SplineFontDB: 1.0
FontName: THKrub-Italic
FullName: THKrub-Italic
FamilyName: TH Krub
Weight: Book
Copyright: Copyright (c) 2006 by Department of Intellectual Property (DIP), Ministry of Commerce and Software Industry Promotion Agency (Public Organization) (SIPA). All rights reserved.
Version: 1.1
ItalicAngle: -12
UnderlinePosition: -58
UnderlineWidth: 35
Ascent: 800
Descent: 200
Order2: 1
XUID: [1021 375 425136265 13130006]
FSType: 0
OS2Version: 3
OS2_WeightWidthSlopeOnly: 0
OS2_UseTypoMetrics: 1
CreationTime: 1157677500
ModificationTime: 1174462302
PfmFamily: 17
TTFWeight: 400
TTFWidth: 5
LineGap: 20
VLineGap: 0
Panose: 2 0 5 6 4 0 0 2 0 4
OS2TypoAscent: 0
OS2TypoAOffset: 1
OS2TypoDescent: 0
OS2TypoDOffset: 1
OS2TypoLinegap: 0
OS2WinAscent: -107
OS2WinAOffset: 1
OS2WinDescent: -188
OS2WinDOffset: 1
HheadAscent: 0
HheadAOffset: 1
HheadDescent: 150
HheadDOffset: 1
OS2SubXSize: 700
OS2SubYSize: 650
OS2SubXOff: 0
OS2SubYOff: 140
OS2SupXSize: 700
OS2SupYSize: 650
OS2SupXOff: 0
OS2SupYOff: 477
OS2StrikeYSize: 35
OS2StrikeYPos: 250
OS2FamilyClass: 2053
OS2Vendor: 'b513'
ScriptLang: 2
 1 latn 1 dflt 
 0 
ChainSub: coverage 0 0 'liga' 0 0 0 1
 1 1 0
  Coverage: 7 uni0E47
  BCoverage: 12 uni0E2C.alt1
 1
  SeqLookup: 0 'L030'
EndFPST
ChainSub: coverage 0 0 'liga' 0 0 0 1
 1 0 1
  Coverage: 7 uni0E2C
  FCoverage: 39 uni0E34 uni0E35 uni0E36 uni0E37 uni0E47
 1
  SeqLookup: 0 'L030'
EndFPST
ChainSub: coverage 0 0 'liga' 0 0 0 1
 1 0 1
  Coverage: 15 uni0E0E uni0E0F
  FCoverage: 38 uni0E38.alt1 uni0E39.alt1 uni0E3A.alt1
 1
  SeqLookup: 0 'L030'
EndFPST
ChainSub: coverage 0 0 'liga' 0 0 0 1
 1 1 0
  Coverage: 5 a b c
  BCoverage: 23 uni0E1B uni0E1D uni0E1F
 1
  SeqLookup: 0 'L030'
EndFPST
ChainSub: coverage 0 0 'liga' 0 0 0 1
 1 0 1
  Coverage: 5 a b c
  FCoverage: 64 uni0E48.alt1 uni0E49.alt1 uni0E4A.alt1 uni0E4B.alt1 uni0E4C.alt1
 1
  SeqLookup: 0 'L030'
EndFPST
ChainSub: coverage 0 0 'liga' 0 0 0 1
 1 1 0

StartChar: exclam
Encoding: 33 33 2
Width: 171
Flags: W
Fore
222 486 m 1,0,-1
 135 143 l 1,1,-1
 96 143 l 1,2,-1
 155 486 l 1,3,-1
 222 486 l 1,0,-1
52 0 m 1,4,-1
 66 69 l 1,5,-1
 133 69 l 1,6,-1
 119 0 l 1,7,-1
 52 0 l 1,4,-1
EndSplineSet
EndChar
StartChar: quotedbl
Encoding: 34 34 3
Width: 225
Flags: W
Fore
163 512 m 1,0,-1
 198 512 l 1,1,-1
 164 351 l 1,2,-1
 129 351 l 1,3,-1
 163 512 l 1,0,-1
243 512 m 1,4,-1
 278 512 l 1,5,-1
 244 351 l 1,6,-1
 209 351 l 1,7,-1
 243 512 l 1,4,-1
EndSplineSet
EndChar
StartChar: numbersign
Encoding: 35 35 4
Width: 360
Flags: W
Fore
358 153 m 1,0,-1
 284 153 l 1,1,-1
 230 0 l 1,2,-1
 198 0 l 1,3,-1
 252 153 l 1,4,-1
 157 153 l 1,5,-1
 103 0 l 1,6,-1
 71 0 l 1,7,-1
 125 153 l 1,8,-1
 49 153 l 1,9,-1
 56 184 l 1,10,-1
 136 184 l 1,11,-1
 172 285 l 1,12,-1
 95 285 l 1,13,-1
 102 316 l 1,14,-1
 182 316 l 1,15,-1
 236 468 l 1,16,-1
 269 468 l 1,17,-1
 215 316 l 1,18,-1
 310 316 l 1,19,-1
 363 468 l 1,20,-1
 396 468 l 1,21,-1
 343 316 l 1,22,-1
 411 316 l 1,23,-1
 404 285 l 1,24,-1
 330 285 l 1,25,-1
 295 184 l 1,26,-1
 365 184 l 1,27,-1
 358 153 l 1,0,-1
203 285 m 1,28,-1
 168 184 l 1,29,-1
 263 184 l 1,30,-1
 299 285 l 1,31,-1
 203 285 l 1,28,-1
EndSplineSet
EndChar
StartChar: dollar
Encoding: 36 36 5
Width: 423
Flags: W
Fore
313 562 m 1,0,-1
 349 562 l 1,1,-1
 333 489 l 1,2,3
 359 488 359 488 380.5 479.5 c 128,-1,4
 402 471 402 471 418 458 c 128,-1,5
 434 445 434 445 444 429.5 c 128,-1,6
 454 414 454 414 458 399 c 1,7,8
 457 399 457 399 451.5 395 c 128,-1,9
 446 391 446 391 439.5 386.5 c 128,-1,10
 433 382 433 382 427.5 378 c 128,-1,11
 422 374 422 374 420 373 c 1,12,13
 409 406 409 406 385.5 426 c 128,-1,14
 362 446 362 446 325 451 c 1,15,-1
 286 267 l 1,16,17
 313 259 313 259 340.5 249 c 128,-1,18
 368 239 368 239 388 223 c 128,-1,19
 408 207 408 207 418 183 c 128,-1,20
 428 159 428 159 420 123 c 0,21,22
 413 88 413 88 394 64.5 c 128,-1,23
 375 41 375 41 349.5 27 c 128,-1,24
 324 13 324 13 293 6.5 c 128,-1,25
 262 0 262 0 230 0 c 1,26,-1
 210 -90 l 1,27,-1
 174 -90 l 1,28,-1
 194 0 l 1,29,30
 138 2 138 2 98.5 31 c 128,-1,31
 59 60 59 60 45 111 c 1,32,-1
 86 136 l 1,33,34
 96 95 96 95 124.5 65.5 c 128,-1,35
 153 36 153 36 201 36 c 1,36,-1
 243 232 l 1,37,38
 217 240 217 240 192 249 c 128,-1,39
 167 258 167 258 148 272.5 c 128,-1,40
 129 287 129 287 120.5 309 c 128,-1,41
 112 331 112 331 119 364 c 0,42,43
 126 399 126 399 142.5 422.5 c 128,-1,44
 159 446 159 446 182.5 460.5 c 128,-1,45
 206 475 206 475 235.5 481.5 c 128,-1,46
 265 488 265 488 297 489 c 1,47,-1
 313 562 l 1,0,-1
290 452 m 1,48,49
 268 452 268 452 247 447.5 c 128,-1,50
 226 443 226 443 208.5 433 c 128,-1,51
 191 423 191 423 178.5 406.5 c 128,-1,52
 166 390 166 390 161 367 c 0,53,54
 155 342 155 342 161.5 327 c 128,-1,55
 168 312 168 312 182 303 c 128,-1,56
 196 294 196 294 215 288.5 c 128,-1,57
 234 283 234 283 253 278 c 1,58,-1
 290 452 l 1,48,49
237 36 m 1,59,60
 261 36 261 36 284 41.5 c 128,-1,61
 307 47 307 47 326.5 57.5 c 128,-1,62
 346 68 346 68 360 85 c 128,-1,63
 374 102 374 102 379 125 c 0,64,65
 384 150 384 150 376 165.5 c 128,-1,66
 368 181 368 181 352.5 191.5 c 128,-1,67
 337 202 337 202 316.5 209 c 128,-1,68
 296 216 296 216 277 223 c 1,69,-1
 237 36 l 1,59,60
EndSplineSet
EndChar
StartChar: percent
Encoding: 37 37 6
Width: 597
Flags: W
Fore
267 486 m 0,0,1
 290 486 290 486 308.5 477 c 128,-1,2
 327 468 327 468 338.5 453 c 128,-1,3
 350 438 350 438 354.5 418 c 128,-1,4
 359 398 359 398 354 375 c 256,5,6
 349 352 349 352 336 332 c 128,-1,7
 323 312 323 312 305 297 c 128,-1,8
 287 282 287 282 265 273.5 c 128,-1,9
 243 265 243 265 220 265 c 0,10,11
 198 265 198 265 179.5 273.5 c 128,-1,12
 161 282 161 282 149.5 297 c 128,-1,13
 138 312 138 312 133.5 332 c 128,-1,14
 129 352 129 352 134 375 c 256,15,16
 139 398 139 398 152 418 c 128,-1,17
 165 438 165 438 183 453 c 128,-1,18
 201 468 201 468 223 477 c 128,-1,19
 245 486 245 486 267 486 c 0,0,1
259 449 m 0,20,21
 229 449 229 449 202.5 428 c 128,-1,22
 176 407 176 407 170 375 c 0,23,24
 162 344 162 344 179.5 322.5 c 128,-1,25
 197 301 197 301 227 301 c 0,26,27
 259 301 259 301 285 322.5 c 128,-1,28
 311 344 311 344 318 375 c 0,29,30
 325 407 325 407 308 428 c 128,-1,31
 291 449 291 449 259 449 c 0,20,21
477 220 m 0,32,33
 500 220 500 220 518.5 211.5 c 128,-1,34
 537 203 537 203 549 188 c 128,-1,35
 561 173 561 173 565.5 153 c 128,-1,36
 570 133 570 133 565 110 c 0,37,38
 560 88 560 88 547 68 c 128,-1,39
 534 48 534 48 516 33 c 128,-1,40
 498 18 498 18 476 9 c 128,-1,41
 454 0 454 0 431 0 c 0,42,43
 409 0 409 0 390.5 9 c 128,-1,44
 372 18 372 18 360 33 c 128,-1,45
 348 48 348 48 343.5 68 c 128,-1,46
 339 88 339 88 344 110 c 0,47,48
 349 133 349 133 362 153 c 128,-1,49
 375 173 375 173 393 188 c 128,-1,50
 411 203 411 203 433 211.5 c 128,-1,51
 455 220 455 220 477 220 c 0,32,33
470 185 m 0,52,53
 439 185 439 185 413 163 c 128,-1,54
 387 141 387 141 381 110 c 0,55,56
 373 79 373 79 390 57.5 c 128,-1,57
 407 36 407 36 438 36 c 0,58,59
 470 36 470 36 496.5 57.5 c 128,-1,60
 523 79 523 79 529 110 c 0,61,62
 537 141 537 141 519.5 163 c 128,-1,63
 502 185 502 185 470 185 c 0,52,53
178 -7 m 1,64,-1
 137 -7 l 1,65,-1
 521 493 l 1,66,-1
 563 493 l 1,67,-1
 178 -7 l 1,64,-1
EndSplineSet
EndChar
StartChar: ampersand
Encoding: 38 38 7
Width: 477
Flags: W
Fore
97 116 m 0,0,1
 93 95 93 95 98.5 78.5 c 128,-1,2
 104 62 104 62 116.5 51 c 128,-1,3
 129 40 129 40 146.5 34.5 c 128,-1,4
 164 29 164 29 183 29 c 0,5,6
 226 29 226 29 256 46 c 128,-1,7
 286 63 286 63 301 76 c 1,8,9
 291 88 291 88 278.5 109 c 128,-1,10
 266 130 266 130 253.5 154 c 128,-1,11
 241 178 241 178 230 201.5 c 128,-1,12
 219 225 219 225 212 242 c 1,13,14
 167 219 167 219 137.5 192 c 128,-1,15
 108 165 108 165 97 116 c 0,0,1
228 386 m 0,16,17
 223 363 223 363 226 340 c 128,-1,18
 229 317 229 317 240 297 c 1,19,20
 276 315 276 315 304 343.5 c 128,-1,21
 332 372 332 372 339 402 c 0,22,23
 344 425 344 425 334 440.5 c 128,-1,24
 324 456 324 456 296 456 c 0,25,26
 272 456 272 456 254 439.5 c 128,-1,27
 236 423 236 423 228 386 c 0,16,17
450 220 m 1,28,29
 433 182 433 182 410.5 145.5 c 128,-1,30
 388 109 388 109 359 77 c 1,31,32
 372 60 372 60 390 47.5 c 128,-1,33
 408 35 408 35 434 34 c 1,34,-1
 425 -7 l 1,35,36
 392 -5 392 -5 367 9 c 128,-1,37
 342 23 342 23 322 46 c 1,38,39
 290 20 290 20 251 6.5 c 128,-1,40
 212 -7 212 -7 173 -7 c 0,41,42
 145 -7 145 -7 120 1 c 128,-1,43
 95 9 95 9 78 24.5 c 128,-1,44
 61 40 61 40 53.5 64 c 128,-1,45
 46 88 46 88 53 119 c 0,46,47
 59 146 59 146 69.5 166.5 c 128,-1,48
 80 187 80 187 97.5 205 c 128,-1,49
 115 223 115 223 140 240.5 c 128,-1,50
 165 258 165 258 200 278 c 1,51,52
 189 304 189 304 184 332.5 c 128,-1,53
 179 361 179 361 186 391 c 0,54,55
 196 440 196 440 228 466.5 c 128,-1,56
 260 493 260 493 306 493 c 0,57,58
 348 493 348 493 370 468.5 c 128,-1,59
 392 444 392 444 382 399 c 0,60,61
 377 375 377 375 364 355 c 128,-1,62
 351 335 351 335 333.5 318.5 c 128,-1,63
 316 302 316 302 295.5 288 c 128,-1,64
 275 274 275 274 254 261 c 1,65,66
 274 220 274 220 292 179.5 c 128,-1,67
 310 139 310 139 334 106 c 1,68,69
 358 134 358 134 377.5 165 c 128,-1,70
 397 196 397 196 410 228 c 1,71,-1
 450 220 l 1,28,29
EndSplineSet
EndChar
StartChar: quotesingle
Encoding: 39 39 8
Width: 155
Flags: W
Fore
168 512 m 1,0,-1
 203 512 l 1,1,-1
 169 351 l 1,2,-1
 134 351 l 1,3,-1
 168 512 l 1,0,-1
EndSplineSet
EndChar
StartChar: parenleft
Encoding: 40 40 9
Width: 270
Flags: W
Fore
351 593 m 1,0,1
 311 556 311 556 279.5 514.5 c 128,-1,2
 248 473 248 473 224 430.5 c 128,-1,3
 200 388 200 388 184 345.5 c 128,-1,4
 168 303 168 303 160 264 c 0,5,6
 151 224 151 224 149 181.5 c 128,-1,7
 147 139 147 139 153 96.5 c 128,-1,8
 159 54 159 54 173 12 c 128,-1,9
 187 -30 187 -30 210 -67 c 1,10,-1
 152 -67 l 1,11,12
 133 -30 133 -30 120.5 12 c 128,-1,13
 108 54 108 54 103 96.5 c 128,-1,14
 98 139 98 139 100 181.5 c 128,-1,15
 102 224 102 224 111 264 c 0,16,17
 119 303 119 303 135 345.5 c 128,-1,18
 151 388 151 388 174 430.5 c 128,-1,19
 197 473 197 473 227 514.5 c 128,-1,20
 257 556 257 556 293 593 c 1,21,-1
 351 593 l 1,0,1
EndSplineSet
EndChar
StartChar: parenright
Encoding: 41 41 10
Width: 270
Flags: W
Fore
30 -67 m 1,0,1
 70 -30 70 -30 102 12 c 128,-1,2
 134 54 134 54 158 96.5 c 128,-1,3
 182 139 182 139 198 181.5 c 128,-1,4
 214 224 214 224 223 264 c 0,5,6
 231 303 231 303 233 345.5 c 128,-1,7
 235 388 235 388 229 430.5 c 128,-1,8
 223 473 223 473 208.5 514.5 c 128,-1,9
 194 556 194 556 171 593 c 1,10,-1
 229 593 l 1,11,12
 249 556 249 556 261 514.5 c 128,-1,13
 273 473 273 473 278 430.5 c 128,-1,14
 283 388 283 388 281 345.5 c 128,-1,15
 279 303 279 303 271 264 c 0,16,17
 262 224 262 224 246 181.5 c 128,-1,18
 230 139 230 139 207 96.5 c 128,-1,19
 184 54 184 54 154 12 c 128,-1,20
 124 -30 124 -30 88 -67 c 1,21,-1
 30 -67 l 1,0,1
EndSplineSet
EndChar
StartChar: asterisk
Encoding: 42 42 11
Width: 429
Flags: W
Fore
338 514 m 1,0,-1
 463 561 l 1,1,-1
 468 517 l 1,2,-1
 338 487 l 1,3,-1
 399 396 l 1,4,-1
 353 365 l 1,5,-1
 316 474 l 1,6,-1
 231 365 l 1,7,-1
 197 391 l 1,8,-1
 300 487 l 1,9,-1
 179 513 l 1,10,-1
 204 559 l 1,11,-1
 312 514 l 1,12,-1
 326 639 l 1,13,-1
 374 639 l 1,14,-1
 338 514 l 1,0,-1
EndSplineSet
EndChar
StartChar: plus
Encoding: 43 43 12
Width: 510
Flags: W
Fore
324 429 m 1,0,-1
 364 429 l 1,1,-1
 325 246 l 1,2,-1
 508 246 l 1,3,-1
 499 204 l 1,4,-1
 316 204 l 1,5,-1
 277 21 l 1,6,-1
 237 21 l 1,7,-1
 276 204 l 1,8,-1
 93 204 l 1,9,-1
 102 246 l 1,10,-1
 285 246 l 1,11,-1
 324 429 l 1,0,-1
EndSplineSet
EndChar
StartChar: comma
Encoding: 44 44 13
Width: 214
Flags: W
Fore
155 69 m 1,0,-1
 141 0 l 1,1,-1
 66 -116 l 1,2,-1
 37 -116 l 1,3,-1
 106 0 l 1,4,-1
 73 0 l 1,5,-1
 87 69 l 1,6,-1
 155 69 l 1,0,-1
EndSplineSet
EndChar
StartChar: hyphen
Encoding: 45 45 14
Width: 333
Flags: W
Fore
87 213 m 1,0,-1
 96 258 l 1,1,-1
 345 258 l 1,2,-1
 336 213 l 1,3,-1
 87 213 l 1,0,-1
EndSplineSet
EndChar
StartChar: period
Encoding: 46 46 15
Width: 214
Flags: W
Fore
73 0 m 1,0,-1
 87 69 l 1,1,-1
 155 69 l 1,2,-1
 141 0 l 1,3,-1
 73 0 l 1,0,-1
EndSplineSet
EndChar
StartChar: slash
Encoding: 47 47 16
Width: 225
Flags: W
Fore
39 -38 m 1,0,-1
 -8 -38 l 1,1,-1
 320 563 l 1,2,-1
 364 563 l 1,3,-1
 39 -38 l 1,0,-1
EndSplineSet
EndChar
StartChar: zero
Encoding: 48 48 17
Width: 418
Flags: W
Fore
216 36 m 0,0,1
 293 36 293 36 331.5 83.5 c 128,-1,2
 370 131 370 131 389 223 c 0,3,4
 400 273 400 273 401.5 310 c 128,-1,5
 403 347 403 347 393 371 c 128,-1,6
 383 395 383 395 360 407 c 128,-1,7
 337 419 337 419 298 419 c 256,8,9
 259 419 259 419 230.5 407 c 128,-1,10
 202 395 202 395 182 371 c 128,-1,11
 162 347 162 347 148 310 c 128,-1,12
 134 273 134 273 123 223 c 0,13,14
 113 177 113 177 112 142 c 128,-1,15
 111 107 111 107 121 83.5 c 128,-1,16
 131 60 131 60 154 48 c 128,-1,17
 177 36 177 36 216 36 c 0,0,1
207 -5 m 0,18,19
 159 -5 159 -5 128.5 10.5 c 128,-1,20
 98 26 98 26 83 55.5 c 128,-1,21
 68 85 68 85 67.5 127.5 c 128,-1,22
 67 170 67 170 78 223 c 0,23,24
 102 336 102 336 155.5 397.5 c 128,-1,25
 209 459 209 459 306 459 c 256,26,27
 403 459 403 459 430.5 397.5 c 128,-1,28
 458 336 458 336 434 223 c 0,29,30
 411 116 411 116 357.5 55.5 c 128,-1,31
 304 -5 304 -5 207 -5 c 0,18,19
EndSplineSet
EndChar
StartChar: one
Encoding: 49 49 18
Width: 319
Flags: W
Fore
54 0 m 1,0,-1
 62 38 l 1,1,-1
 147 38 l 1,2,-1
 223 397 l 1,3,-1
 139 379 l 1,4,-1
 146 414 l 1,5,-1
 257 457 l 1,6,-1
 281 457 l 1,7,-1
 192 38 l 1,8,-1
 273 38 l 1,9,-1
 265 0 l 1,10,-1
 54 0 l 1,0,-1
EndSplineSet
EndChar
StartChar: two
Encoding: 50 50 19
Width: 373
Flags: W
Fore
111 331 m 1,0,1
 135 393 135 393 182.5 427 c 128,-1,2
 230 461 230 461 289 461 c 0,3,4
 358 461 358 461 384 426.5 c 128,-1,5
 410 392 410 392 397 332 c 0,6,7
 386 277 386 277 349 241 c 128,-1,8
 312 205 312 205 241 169 c 0,9,10
 194 145 194 145 165.5 126.5 c 128,-1,11
 137 108 137 108 120.5 93 c 128,-1,12
 104 78 104 78 97.5 65.5 c 128,-1,13
 91 53 91 53 88 41 c 1,14,-1
 335 41 l 1,15,-1
 327 0 l 1,16,-1
 36 0 l 1,17,-1
 44 39 l 2,18,19
 47 56 47 56 53.5 72 c 128,-1,20
 60 88 60 88 78 107 c 128,-1,21
 96 126 96 126 130 148.5 c 128,-1,22
 164 171 164 171 222 200 c 0,23,24
 259 218 259 218 282 233.5 c 128,-1,25
 305 249 305 249 319.5 264 c 128,-1,26
 334 279 334 279 341 295.5 c 128,-1,27
 348 312 348 312 352 331 c 0,28,29
 361 373 361 373 345 397 c 128,-1,30
 329 421 329 421 276 421 c 0,31,32
 242 421 242 421 210 398.5 c 128,-1,33
 178 376 178 376 155 325 c 1,34,-1
 111 331 l 1,0,1
EndSplineSet
EndChar
StartChar: three
Encoding: 51 51 20
Width: 381
Flags: W
Fore
89 104 m 1,0,1
 95 82 95 82 102.5 68 c 128,-1,2
 110 54 110 54 122 46.5 c 128,-1,3
 134 39 134 39 150.5 36.5 c 128,-1,4
 167 34 167 34 189 34 c 0,5,6
 246 34 246 34 276.5 56.5 c 128,-1,7
 307 79 307 79 317 127 c 0,8,9
 328 177 328 177 301 199.5 c 128,-1,10
 274 222 274 222 210 222 c 2,11,-1
 169 222 l 1,12,-1
 177 263 l 1,13,-1
 211 263 l 2,14,15
 273 263 273 263 306.5 283 c 128,-1,16
 340 303 340 303 350 349 c 0,17,18
 359 391 359 391 340 406 c 128,-1,19
 321 421 321 421 274 421 c 0,20,21
 242 421 242 421 215 407 c 128,-1,22
 188 393 188 393 158 364 c 1,23,-1
 129 390 l 1,24,25
 170 428 170 428 209.5 444.5 c 128,-1,26
 249 461 249 461 286 461 c 0,27,28
 312 461 312 461 334.5 456 c 128,-1,29
 357 451 357 451 373 438.5 c 128,-1,30
 389 426 389 426 395.5 405 c 128,-1,31
 402 384 402 384 395 352 c 0,32,33
 385 306 385 306 364 280.5 c 128,-1,34
 343 255 343 255 299 244 c 1,35,36
 336 236 336 236 355 209.5 c 128,-1,37
 374 183 374 183 363 129 c 0,38,39
 348 57 348 57 300.5 25.5 c 128,-1,40
 253 -6 253 -6 178 -6 c 0,41,42
 122 -6 122 -6 88 16 c 128,-1,43
 54 38 54 38 45 85 c 1,44,-1
 89 104 l 1,0,1
EndSplineSet
EndChar
StartChar: four
Encoding: 52 52 21
Width: 355
Flags: W
Fore
88 140 m 1,0,-1
 251 140 l 1,1,-1
 309 410 l 1,2,-1
 305 410 l 1,3,-1
 88 140 l 1,0,-1
38 138 m 1,4,-1
 306 457 l 1,5,-1
 364 457 l 1,6,-1
 296 140 l 1,7,-1
 366 140 l 1,8,-1
 358 99 l 1,9,-1
 288 99 l 1,10,-1
 267 0 l 1,11,-1
 222 0 l 1,12,-1
 243 99 l 1,13,-1
 30 99 l 1,14,-1
 38 138 l 1,4,-1
EndSplineSet
EndChar
StartChar: five
Encoding: 53 53 22
Width: 386
Flags: W
Fore
104 207 m 1,0,-1
 179 457 l 1,1,-1
 414 457 l 1,2,-1
 405 417 l 1,3,-1
 208 417 l 1,4,-1
 163 265 l 1,5,6
 188 285 188 285 216 292 c 128,-1,7
 244 299 244 299 275 299 c 0,8,9
 341 299 341 299 368.5 260.5 c 128,-1,10
 396 222 396 222 382 153 c 0,11,12
 366 78 366 78 317 36 c 128,-1,13
 268 -6 268 -6 190 -6 c 0,14,15
 169 -6 169 -6 148 -0.5 c 128,-1,16
 127 5 127 5 109.5 15.5 c 128,-1,17
 92 26 92 26 79.5 42 c 128,-1,18
 67 58 67 58 61 79 c 1,19,-1
 100 101 l 1,20,21
 111 63 111 63 139.5 48.5 c 128,-1,22
 168 34 168 34 203 34 c 0,23,24
 265 34 265 34 295 66 c 128,-1,25
 325 98 325 98 336 150 c 0,26,27
 350 211 350 211 330.5 234.5 c 128,-1,28
 311 258 311 258 259 258 c 0,29,30
 230 258 230 258 193.5 244.5 c 128,-1,31
 157 231 157 231 137 202 c 1,32,-1
 104 207 l 1,0,-1
EndSplineSet
EndChar
StartChar: six
Encoding: 54 54 23
Width: 401
Flags: W
Fore
389 388 m 1,0,1
 372 406 372 406 350 413.5 c 128,-1,2
 328 421 328 421 301 421 c 0,3,4
 262 421 262 421 235.5 409 c 128,-1,5
 209 397 209 397 190.5 372 c 128,-1,6
 172 347 172 347 159.5 310.5 c 128,-1,7
 147 274 147 274 136 224 c 1,8,9
 165 250 165 250 204 267 c 128,-1,10
 243 284 243 284 278 284 c 256,11,12
 313 284 313 284 338 272.5 c 128,-1,13
 363 261 363 261 377.5 241 c 128,-1,14
 392 221 392 221 396 194 c 128,-1,15
 400 167 400 167 393 135 c 0,16,17
 386 102 386 102 368 76 c 128,-1,18
 350 50 350 50 325 32 c 128,-1,19
 300 14 300 14 270 4 c 128,-1,20
 240 -6 240 -6 209 -6 c 0,21,22
 161 -6 161 -6 132.5 9.5 c 128,-1,23
 104 25 104 25 91 53 c 128,-1,24
 78 81 78 81 78.5 121.5 c 128,-1,25
 79 162 79 162 89 211 c 0,26,27
 102 271 102 271 120 317.5 c 128,-1,28
 138 364 138 364 164.5 396 c 128,-1,29
 191 428 191 428 226.5 444.5 c 128,-1,30
 262 461 262 461 310 461 c 0,31,32
 340 461 340 461 372 451.5 c 128,-1,33
 404 442 404 442 424 423 c 1,34,-1
 389 388 l 1,0,1
350 142 m 0,35,36
 360 189 360 189 338.5 216.5 c 128,-1,37
 317 244 317 244 263 244 c 0,38,39
 238 244 238 244 213.5 233.5 c 128,-1,40
 189 223 189 223 169.5 209 c 128,-1,41
 150 195 150 195 138 181.5 c 128,-1,42
 126 168 126 168 125 162 c 0,43,44
 117 125 117 125 121 100 c 128,-1,45
 125 75 125 75 138 61 c 128,-1,46
 151 47 151 47 172 41 c 128,-1,47
 193 35 193 35 219 35 c 0,48,49
 327 35 327 35 350 142 c 0,35,36
EndSplineSet
EndChar
StartChar: seven
Encoding: 55 55 24
Width: 335
Flags: W
Fore
133 457 m 1,0,-1
 414 457 l 1,1,-1
 407 426 l 1,2,-1
 123 0 l 1,3,-1
 72 0 l 1,4,-1
 354 417 l 1,5,-1
 124 417 l 1,6,-1
 133 457 l 1,0,-1
EndSplineSet
EndChar
StartChar: eight
Encoding: 56 56 25
Width: 392
Flags: W
Fore
294 462 m 0,0,1
 360 462 360 462 391.5 432 c 128,-1,2
 423 402 423 402 411 344 c 0,3,4
 404 314 404 314 376 285.5 c 128,-1,5
 348 257 348 257 302 242 c 1,6,7
 355 216 355 216 371.5 184 c 128,-1,8
 388 152 388 152 380 117 c 0,9,10
 367 55 367 55 316.5 24.5 c 128,-1,11
 266 -6 266 -6 194 -6 c 0,12,13
 159 -6 159 -6 131 1.5 c 128,-1,14
 103 9 103 9 85 24.5 c 128,-1,15
 67 40 67 40 60.5 63 c 128,-1,16
 54 86 54 86 60 117 c 0,17,18
 68 152 68 152 97 184 c 128,-1,19
 126 216 126 216 191 242 c 1,20,21
 152 257 152 257 135.5 285.5 c 128,-1,22
 119 314 119 314 126 344 c 0,23,24
 138 402 138 402 183.5 432 c 128,-1,25
 229 462 229 462 294 462 c 0,0,1
105 117 m 0,26,27
 97 77 97 77 124.5 55.5 c 128,-1,28
 152 34 152 34 203 34 c 256,29,30
 254 34 254 34 290.5 55.5 c 128,-1,31
 327 77 327 77 335 117 c 0,32,33
 343 154 343 154 318.5 177.5 c 128,-1,34
 294 201 294 201 243 223 c 1,35,36
 183 201 183 201 148 177.5 c 128,-1,37
 113 154 113 154 105 117 c 0,26,27
170 346 m 0,38,39
 164 317 164 317 187.5 294 c 128,-1,40
 211 271 211 271 251 259 c 1,41,42
 296 271 296 271 328.5 294 c 128,-1,43
 361 317 361 317 367 346 c 0,44,45
 375 380 375 380 352.5 401 c 128,-1,46
 330 422 330 422 285 422 c 256,47,48
 240 422 240 422 209 401 c 128,-1,49
 178 380 178 380 170 346 c 0,38,39
EndSplineSet
EndChar
StartChar: nine
Encoding: 57 57 26
Width: 401
Flags: W
Fore
108 68 m 1,0,1
 125 49 125 49 147 41.5 c 128,-1,2
 169 34 169 34 195 34 c 0,3,4
 234 34 234 34 260.5 46.5 c 128,-1,5
 287 59 287 59 306 83.5 c 128,-1,6
 325 108 325 108 337.5 145.5 c 128,-1,7
 350 183 350 183 360 232 c 1,8,9
 331 206 331 206 292.5 188.5 c 128,-1,10
 254 171 254 171 219 171 c 256,11,12
 184 171 184 171 159 182.5 c 128,-1,13
 134 194 134 194 119.5 214 c 128,-1,14
 105 234 105 234 101 261.5 c 128,-1,15
 97 289 97 289 104 321 c 0,16,17
 111 354 111 354 129 380 c 128,-1,18
 147 406 147 406 172 424 c 128,-1,19
 197 442 197 442 227 452 c 128,-1,20
 257 462 257 462 288 462 c 0,21,22
 336 462 336 462 364.5 446.5 c 128,-1,23
 393 431 393 431 406 402.5 c 128,-1,24
 419 374 419 374 418.5 334 c 128,-1,25
 418 294 418 294 408 245 c 0,26,27
 395 185 395 185 377 138.5 c 128,-1,28
 359 92 359 92 332.5 60 c 128,-1,29
 306 28 306 28 269.5 11.5 c 128,-1,30
 233 -5 233 -5 185 -5 c 0,31,32
 156 -5 156 -5 124 4.5 c 128,-1,33
 92 14 92 14 72 32 c 1,34,-1
 108 68 l 1,0,1
147 313 m 0,35,36
 137 266 137 266 158.5 239 c 128,-1,37
 180 212 180 212 234 212 c 0,38,39
 260 212 260 212 284 222.5 c 128,-1,40
 308 233 308 233 327 246.5 c 128,-1,41
 346 260 346 260 358.5 274 c 128,-1,42
 371 288 371 288 372 294 c 0,43,44
 380 332 380 332 376 356.5 c 128,-1,45
 372 381 372 381 359 395 c 128,-1,46
 346 409 346 409 325 415 c 128,-1,47
 304 421 304 421 278 421 c 0,48,49
 170 421 170 421 147 313 c 0,35,36
EndSplineSet
EndChar
StartChar: colon
Encoding: 58 58 27
Width: 225
Flags: W
Fore
77 0 m 1,0,-1
 92 73 l 1,1,-1
 163 73 l 1,2,-1
 148 0 l 1,3,-1
 77 0 l 1,0,-1
129 247 m 1,4,-1
 145 320 l 1,5,-1
 216 320 l 1,6,-1
 200 247 l 1,7,-1
 129 247 l 1,4,-1
EndSplineSet
EndChar
StartChar: semicolon
Encoding: 59 59 28
Width: 225
Flags: W
Fore
163 73 m 1,0,-1
 148 0 l 1,1,-1
 70 -122 l 1,2,-1
 39 -122 l 1,3,-1
 112 0 l 1,4,-1
 77 0 l 1,5,-1
 92 73 l 1,6,-1
 163 73 l 1,0,-1
129 247 m 1,7,-1
 145 320 l 1,8,-1
 216 320 l 1,9,-1
 200 247 l 1,10,-1
 129 247 l 1,7,-1
EndSplineSet
EndChar
StartChar: less
Encoding: 60 60 29
Width: 486
Flags: W
Fore
452 -5 m 1,0,-1
 71 188 l 1,1,-1
 81 233 l 1,2,-1
 544 426 l 1,3,-1
 534 379 l 1,4,-1
 131 211 l 1,5,-1
 462 42 l 1,6,-1
 452 -5 l 1,0,-1
EndSplineSet
EndChar
StartChar: equal
Encoding: 61 61 30
Width: 392
Flags: W
Fore
416 280 m 1,0,-1
 94 280 l 1,1,-1
 103 323 l 1,2,-1
 425 323 l 1,3,-1
 416 280 l 1,0,-1
386 138 m 1,4,-1
 64 138 l 1,5,-1
 73 181 l 1,6,-1
 395 181 l 1,7,-1
 386 138 l 1,4,-1
EndSplineSet
EndChar
StartChar: greater
Encoding: 62 62 31
Width: 486
Flags: W
Fore
40 42 m 1,0,-1
 443 211 l 1,1,-1
 112 379 l 1,2,-1
 122 426 l 1,3,-1
 503 233 l 1,4,-1
 493 188 l 1,5,-1
 30 -5 l 1,6,-1
 40 42 l 1,0,-1
EndSplineSet
EndChar
StartChar: question
Encoding: 63 63 32
Width: 330
Flags: W
Fore
117 443 m 1,0,1
 143 489 143 489 187 518.5 c 128,-1,2
 231 548 231 548 284 548 c 0,3,4
 310 548 310 548 333 539.5 c 128,-1,5
 356 531 356 531 371.5 514.5 c 128,-1,6
 387 498 387 498 394 473 c 128,-1,7
 401 448 401 448 394 416 c 0,8,9
 385 376 385 376 358.5 347.5 c 128,-1,10
 332 319 332 319 301.5 294 c 128,-1,11
 271 269 271 269 244.5 242 c 128,-1,12
 218 215 218 215 210 177 c 2,13,-1
 202 138 l 1,14,-1
 159 138 l 1,15,-1
 169 187 l 2,16,17
 177 222 177 222 203.5 252.5 c 128,-1,18
 230 283 230 283 260.5 310.5 c 128,-1,19
 291 338 291 338 316.5 364 c 128,-1,20
 342 390 342 390 348 417 c 0,21,22
 353 440 353 440 348.5 456 c 128,-1,23
 344 472 344 472 333 483 c 128,-1,24
 322 494 322 494 306.5 499 c 128,-1,25
 291 504 291 504 274 504 c 0,26,27
 254 504 254 504 235.5 496 c 128,-1,28
 217 488 217 488 201 476 c 128,-1,29
 185 464 185 464 173 450 c 128,-1,30
 161 436 161 436 153 423 c 1,31,-1
 117 443 l 1,0,1
114 0 m 1,32,-1
 129 73 l 1,33,-1
 199 73 l 1,34,-1
 184 0 l 1,35,-1
 114 0 l 1,32,-1
EndSplineSet
EndChar
StartChar: at
Encoding: 64 64 33
Width: 579
Flags: W
Fore
274 128 m 0,0,1
 298 128 298 128 323 145.5 c 128,-1,2
 348 163 348 163 368.5 188.5 c 128,-1,3
 389 214 389 214 404 243 c 128,-1,4
 419 272 419 272 424 295 c 0,5,6
 429 320 429 320 416.5 340.5 c 128,-1,7
 404 361 404 361 384 361 c 0,8,9
 357 361 357 361 332 345 c 128,-1,10
 307 329 307 329 286 304.5 c 128,-1,11
 265 280 265 280 250 251.5 c 128,-1,12
 235 223 235 223 230 198 c 0,13,14
 223 167 223 167 235.5 147.5 c 128,-1,15
 248 128 248 128 274 128 c 0,0,1
483 383 m 1,16,-1
 520 383 l 1,17,-1
 411 182 l 2,18,19
 405 171 405 171 400 161.5 c 128,-1,20
 395 152 395 152 393 144 c 0,21,22
 390 126 390 126 408 126 c 0,23,24
 428 126 428 126 451.5 140.5 c 128,-1,25
 475 155 475 155 496 178.5 c 128,-1,26
 517 202 517 202 533 231.5 c 128,-1,27
 549 261 549 261 555 290 c 0,28,29
 564 331 564 331 555 363.5 c 128,-1,30
 546 396 546 396 524 419.5 c 128,-1,31
 502 443 502 443 470 455.5 c 128,-1,32
 438 468 438 468 400 468 c 0,33,34
 354 468 354 468 310.5 450 c 128,-1,35
 267 432 267 432 231.5 401.5 c 128,-1,36
 196 371 196 371 171 330 c 128,-1,37
 146 289 146 289 136 243 c 0,38,39
 127 198 127 198 135.5 158 c 128,-1,40
 144 118 144 118 167 88.5 c 128,-1,41
 190 59 190 59 226 41.5 c 128,-1,42
 262 24 262 24 307 24 c 0,43,44
 359 24 359 24 413.5 48.5 c 128,-1,45
 468 73 468 73 508 118 c 1,46,-1
 543 118 l 1,47,48
 521 89 521 89 492.5 66 c 128,-1,49
 464 43 464 43 432.5 26.5 c 128,-1,50
 401 10 401 10 367 1.5 c 128,-1,51
 333 -7 333 -7 300 -7 c 0,52,53
 246 -7 246 -7 204.5 13 c 128,-1,54
 163 33 163 33 136.5 68 c 128,-1,55
 110 103 110 103 100.5 149.5 c 128,-1,56
 91 196 91 196 102 248 c 256,57,58
 113 300 113 300 143 345.5 c 128,-1,59
 173 391 173 391 214 425 c 128,-1,60
 255 459 255 459 304.5 478.5 c 128,-1,61
 354 498 354 498 405 498 c 0,62,63
 453 498 453 498 492 482.5 c 128,-1,64
 531 467 531 467 556 439.5 c 128,-1,65
 581 412 581 412 590.5 373.5 c 128,-1,66
 600 335 600 335 590 289 c 0,67,68
 581 249 581 249 559.5 213.5 c 128,-1,69
 538 178 538 178 510 151 c 128,-1,70
 482 124 482 124 451 108.5 c 128,-1,71
 420 93 420 93 394 93 c 0,72,73
 376 93 376 93 365 105.5 c 128,-1,74
 354 118 354 118 358 141 c 1,75,-1
 357 141 l 1,76,77
 337 124 337 124 310 108.5 c 128,-1,78
 283 93 283 93 257 93 c 0,79,80
 235 93 235 93 219.5 101.5 c 128,-1,81
 204 110 204 110 195 124 c 128,-1,82
 186 138 186 138 183.5 156 c 128,-1,83
 181 174 181 174 185 194 c 0,84,85
 193 231 193 231 212.5 267 c 128,-1,86
 232 303 232 303 260 331.5 c 128,-1,87
 288 360 288 360 323 378 c 128,-1,88
 358 396 358 396 395 396 c 0,89,90
 418 396 418 396 434 383 c 128,-1,91
 450 370 450 370 455 338 c 1,92,-1
 483 383 l 1,16,-1
EndSplineSet
EndChar
StartChar: A
Encoding: 65 65 34
Width: 463
Flags: W
Fore
364 185 m 1,0,-1
 326 445 l 1,1,-1
 326 445 l 1,2,-1
 178 185 l 1,3,-1
 364 185 l 1,0,-1
309 485 m 1,4,-1
 361 485 l 1,5,-1
 443 0 l 1,6,-1
 389 0 l 1,7,-1
 367 141 l 1,8,-1
 154 141 l 1,9,-1
 74 0 l 1,10,-1
 20 0 l 1,11,-1
 309 485 l 1,4,-1
EndSplineSet
EndChar
StartChar: B
Encoding: 66 66 35
Width: 427
Flags: W
Fore
367 271 m 1,0,1
 385 267 385 267 398.5 254.5 c 128,-1,2
 412 242 412 242 420 225.5 c 128,-1,3
 428 209 428 209 430.5 189.5 c 128,-1,4
 433 170 433 170 428 150 c 0,5,6
 421 117 421 117 406.5 89.5 c 128,-1,7
 392 62 392 62 368.5 42 c 128,-1,8
 345 22 345 22 311 11 c 128,-1,9
 277 0 277 0 231 0 c 2,10,-1
 60 0 l 1,11,-1
 163 486 l 1,12,-1
 336 486 l 2,13,14
 374 486 374 486 398 477 c 128,-1,15
 422 468 422 468 435 452.5 c 128,-1,16
 448 437 448 437 450.5 416.5 c 128,-1,17
 453 396 453 396 448 373 c 0,18,19
 440 333 440 333 418 306.5 c 128,-1,20
 396 280 396 280 367 271 c 1,0,1
205 441 m 1,21,-1
 173 289 l 1,22,-1
 274 289 l 2,23,24
 313 289 313 289 335.5 296 c 128,-1,25
 358 303 358 303 371 314.5 c 128,-1,26
 384 326 384 326 389 341 c 128,-1,27
 394 356 394 356 398 373 c 0,28,29
 404 402 404 402 390.5 421.5 c 128,-1,30
 377 441 377 441 326 441 c 2,31,-1
 205 441 l 1,21,-1
229 42 m 2,32,33
 299 42 299 42 332.5 66.5 c 128,-1,34
 366 91 366 91 378 150 c 0,35,36
 389 199 389 199 364.5 224 c 128,-1,37
 340 249 340 249 263 249 c 2,38,-1
 162 249 l 1,39,-1
 118 42 l 1,40,-1
 229 42 l 2,32,33
EndSplineSet
EndChar
StartChar: C
Encoding: 67 67 36
Width: 379
Flags: W
Fore
91 242 m 256,0,1
 105 308 105 308 124 355 c 128,-1,2
 143 402 143 402 171 432.5 c 128,-1,3
 199 463 199 463 237.5 477 c 128,-1,4
 276 491 276 491 328 491 c 0,5,6
 361 491 361 491 396 480.5 c 128,-1,7
 431 470 431 470 454 449 c 1,8,-1
 415 411 l 1,9,10
 396 431 396 431 372 439 c 128,-1,11
 348 447 348 447 318 447 c 0,12,13
 276 447 276 447 247 435.5 c 128,-1,14
 218 424 218 424 198 399.5 c 128,-1,15
 178 375 178 375 164.5 336 c 128,-1,16
 151 297 151 297 139 242 c 256,17,18
 127 187 127 187 124 148.5 c 128,-1,19
 121 110 121 110 130.5 85 c 128,-1,20
 140 60 140 60 164 48.5 c 128,-1,21
 188 37 188 37 230 37 c 0,22,23
 260 37 260 37 288 45 c 128,-1,24
 316 53 316 53 343 73 c 1,25,-1
 366 35 l 1,26,27
 334 14 334 14 294.5 3.5 c 128,-1,28
 255 -7 255 -7 222 -7 c 0,29,30
 170 -7 170 -7 137.5 7 c 128,-1,31
 105 21 105 21 90 51.5 c 128,-1,32
 75 82 75 82 76 129 c 128,-1,33
 77 176 77 176 91 242 c 256,0,1
EndSplineSet
EndChar
StartChar: D
Encoding: 68 68 37
Width: 467
Flags: W
Fore
204 444 m 1,0,-1
 118 42 l 1,1,-1
 239 42 l 2,2,3
 281 42 281 42 311.5 53.5 c 128,-1,4
 342 65 342 65 363.5 88.5 c 128,-1,5
 385 112 385 112 399.5 148.5 c 128,-1,6
 414 185 414 185 425 236 c 0,7,8
 437 292 437 292 438.5 331 c 128,-1,9
 440 370 440 370 429 395.5 c 128,-1,10
 418 421 418 421 392.5 432.5 c 128,-1,11
 367 444 367 444 325 444 c 2,12,-1
 204 444 l 1,0,-1
60 0 m 1,13,-1
 163 486 l 1,14,-1
 334 486 l 2,15,16
 387 486 387 486 421 470.5 c 128,-1,17
 455 455 455 455 472 423.5 c 128,-1,18
 489 392 489 392 489.5 345 c 128,-1,19
 490 298 490 298 477 236 c 0,20,21
 452 118 452 118 395 59 c 128,-1,22
 338 0 338 0 231 0 c 2,23,-1
 60 0 l 1,13,-1
EndSplineSet
EndChar
StartChar: E
Encoding: 69 69 38
Width: 366
Flags: W
Fore
118 42 m 1,0,-1
 351 42 l 1,1,-1
 343 0 l 1,2,-1
 60 0 l 1,3,-1
 163 486 l 1,4,-1
 449 486 l 1,5,-1
 440 444 l 1,6,-1
 204 444 l 1,7,-1
 169 280 l 1,8,-1
 375 280 l 1,9,-1
 366 238 l 1,10,-1
 160 238 l 1,11,-1
 118 42 l 1,0,-1
EndSplineSet
EndChar
StartChar: F
Encoding: 70 70 39
Width: 366
Flags: W
Fore
110 0 m 1,0,-1
 60 0 l 1,1,-1
 163 486 l 1,2,-1
 449 486 l 1,3,-1
 440 444 l 1,4,-1
 204 444 l 1,5,-1
 169 280 l 1,6,-1
 375 280 l 1,7,-1
 366 238 l 1,8,-1
 160 238 l 1,9,-1
 110 0 l 1,0,-1
EndSplineSet
EndChar
StartChar: G
Encoding: 71 71 40
Width: 435
Flags: W
Fore
383 216 m 1,0,-1
 342 216 l 2,1,2
 323 216 323 216 311.5 214 c 128,-1,3
 300 212 300 212 294 211 c 128,-1,4
 288 210 288 210 286 211 c 128,-1,5
 284 212 284 212 282 218 c 0,6,7
 279 228 279 228 280.5 240.5 c 128,-1,8
 282 253 282 253 287 259 c 1,9,-1
 440 259 l 1,10,-1
 396 54 l 1,11,12
 371 33 371 33 329.5 13 c 128,-1,13
 288 -7 288 -7 232 -7 c 0,14,15
 180 -7 180 -7 147.5 7 c 128,-1,16
 115 21 115 21 100 51.5 c 128,-1,17
 85 82 85 82 86 129 c 128,-1,18
 87 176 87 176 101 242 c 256,19,20
 115 308 115 308 134 355 c 128,-1,21
 153 402 153 402 181 432.5 c 128,-1,22
 209 463 209 463 247.5 477 c 128,-1,23
 286 491 286 491 338 491 c 0,24,25
 371 491 371 491 406 480.5 c 128,-1,26
 441 470 441 470 464 449 c 1,27,-1
 425 411 l 1,28,29
 406 431 406 431 382 439 c 128,-1,30
 358 447 358 447 328 447 c 0,31,32
 286 447 286 447 257 435.5 c 128,-1,33
 228 424 228 424 208 399.5 c 128,-1,34
 188 375 188 375 174.5 336 c 128,-1,35
 161 297 161 297 149 242 c 256,36,37
 137 187 137 187 134 148.5 c 128,-1,38
 131 110 131 110 140.5 85 c 128,-1,39
 150 60 150 60 174 48.5 c 128,-1,40
 198 37 198 37 240 37 c 0,41,42
 270 37 270 37 298 45 c 128,-1,43
 326 53 326 53 353 73 c 1,44,-1
 383 216 l 1,0,-1
EndSplineSet
EndChar
StartChar: H
Encoding: 72 72 41
Width: 456
Flags: W
Fore
405 280 m 1,0,-1
 449 486 l 1,1,-1
 499 486 l 1,2,-1
 396 0 l 1,3,-1
 346 0 l 1,4,-1
 396 238 l 1,5,-1
 160 238 l 1,6,-1
 110 0 l 1,7,-1
 60 0 l 1,8,-1
 163 486 l 1,9,-1
 213 486 l 1,10,-1
 169 280 l 1,11,-1
 405 280 l 1,0,-1
EndSplineSet
EndChar
StartChar: I
Encoding: 73 73 42
Width: 276
Flags: W
Fore
169 42 m 1,0,-1
 261 42 l 1,1,-1
 253 0 l 1,2,-1
 20 0 l 1,3,-1
 28 42 l 1,4,-1
 120 42 l 1,5,-1
 206 444 l 1,6,-1
 117 444 l 1,7,-1
 126 486 l 1,8,-1
 359 486 l 1,9,-1
 350 444 l 1,10,-1
 255 444 l 1,11,-1
 169 42 l 1,0,-1
EndSplineSet
EndChar
StartChar: J
Encoding: 74 74 43
Width: 331
Flags: W
Fore
321 239 m 2,0,1
 307 173 307 173 293 126.5 c 128,-1,2
 279 80 279 80 258.5 50 c 128,-1,3
 238 20 238 20 208 6.5 c 128,-1,4
 178 -7 178 -7 133 -7 c 0,5,6
 100 -7 100 -7 70 3.5 c 128,-1,7
 40 14 40 14 17 35 c 1,8,-1
 56 73 l 1,9,10
 74 53 74 53 93.5 45 c 128,-1,11
 113 37 113 37 143 37 c 0,12,13
 174 37 174 37 193.5 48 c 128,-1,14
 213 59 213 59 226.5 83 c 128,-1,15
 240 107 240 107 249.5 145.5 c 128,-1,16
 259 184 259 184 271 239 c 2,17,-1
 324 486 l 1,18,-1
 374 486 l 1,19,-1
 321 239 l 2,0,1
EndSplineSet
EndChar
StartChar: K
Encoding: 75 75 44
Width: 437
Flags: W
Fore
60 0 m 1,0,-1
 163 486 l 1,1,-1
 213 486 l 1,2,-1
 165 260 l 1,3,-1
 439 486 l 1,4,-1
 498 486 l 1,5,-1
 247 278 l 1,6,-1
 397 0 l 1,7,-1
 343 0 l 1,8,-1
 209 246 l 1,9,-1
 152 200 l 1,10,-1
 110 0 l 1,11,-1
 60 0 l 1,0,-1
EndSplineSet
EndChar
StartChar: L
Encoding: 76 76 45
Width: 356
Flags: W
Fore
118 42 m 1,0,-1
 354 42 l 1,1,-1
 346 0 l 1,2,-1
 60 0 l 1,3,-1
 163 486 l 1,4,-1
 213 486 l 1,5,-1
 118 42 l 1,0,-1
EndSplineSet
EndChar
StartChar: M
Encoding: 77 77 46
Width: 562
Flags: W
Fore
522 486 m 1,0,-1
 605 486 l 1,1,-1
 502 0 l 1,2,-1
 452 0 l 1,3,-1
 546 444 l 1,4,-1
 306 0 l 1,5,-1
 256 0 l 1,6,-1
 204 444 l 1,7,-1
 110 0 l 1,8,-1
 60 0 l 1,9,-1
 163 486 l 1,10,-1
 246 486 l 1,11,-1
 291 50 l 1,12,-1
 522 486 l 1,0,-1
EndSplineSet
EndChar
StartChar: N
Encoding: 78 78 47
Width: 476
Flags: W
Fore
60 0 m 1,0,-1
 163 486 l 1,1,-1
 246 486 l 1,2,-1
 385 90 l 1,3,-1
 469 486 l 1,4,-1
 519 486 l 1,5,-1
 416 0 l 1,6,-1
 366 0 l 1,7,-1
 204 444 l 1,8,-1
 110 0 l 1,9,-1
 60 0 l 1,0,-1
EndSplineSet
EndChar
StartChar: O
Encoding: 79 79 48
Width: 472
Flags: W
Fore
244 41 m 0,0,1
 286 41 286 41 316.5 52.5 c 128,-1,2
 347 64 347 64 368.5 88 c 128,-1,3
 390 112 390 112 404.5 149 c 128,-1,4
 419 186 419 186 430 237 c 0,5,6
 442 293 442 293 443.5 332 c 128,-1,7
 445 371 445 371 434 396 c 128,-1,8
 423 421 423 421 397.5 432.5 c 128,-1,9
 372 444 372 444 330 444 c 0,10,11
 287 444 287 444 257 432.5 c 128,-1,12
 227 421 227 421 205 396 c 128,-1,13
 183 371 183 371 168.5 332 c 128,-1,14
 154 293 154 293 142 237 c 0,15,16
 131 186 131 186 129.5 149 c 128,-1,17
 128 112 128 112 139.5 88 c 128,-1,18
 151 64 151 64 176 52.5 c 128,-1,19
 201 41 201 41 244 41 c 0,0,1
234 -6 m 0,20,21
 128 -6 128 -6 96.5 57 c 128,-1,22
 65 120 65 120 90 237 c 0,23,24
 116 362 116 362 174 425.5 c 128,-1,25
 232 489 232 489 339 489 c 0,26,27
 392 489 392 489 426 473 c 128,-1,28
 460 457 460 457 477 425.5 c 128,-1,29
 494 394 494 394 494.5 346.5 c 128,-1,30
 495 299 495 299 482 237 c 0,31,32
 457 120 457 120 399 57 c 128,-1,33
 341 -6 341 -6 234 -6 c 0,20,21
EndSplineSet
EndChar
StartChar: P
Encoding: 80 80 49
Width: 427
Flags: W
Fore
204 444 m 1,0,-1
 157 222 l 1,1,-1
 258 222 l 2,2,3
 335 222 335 222 370 248.5 c 128,-1,4
 405 275 405 275 417 331 c 0,5,6
 431 397 431 397 408 420.5 c 128,-1,7
 385 444 385 444 315 444 c 2,8,-1
 204 444 l 1,0,-1
148 180 m 1,9,-1
 110 0 l 1,10,-1
 60 0 l 1,11,-1
 163 486 l 1,12,-1
 324 486 l 2,13,14
 374 486 374 486 405.5 476.5 c 128,-1,15
 437 467 437 467 453.5 448 c 128,-1,16
 470 429 470 429 472.5 400 c 128,-1,17
 475 371 475 371 467 331 c 0,18,19
 451 259 451 259 398.5 219.5 c 128,-1,20
 346 180 346 180 239 180 c 2,21,-1
 148 180 l 1,9,-1
EndSplineSet
EndChar
StartChar: Q
Encoding: 81 81 50
Width: 512
Flags: W
Fore
264 41 m 0,0,1
 306 41 306 41 336.5 52.5 c 128,-1,2
 367 64 367 64 388.5 88 c 128,-1,3
 410 112 410 112 424.5 149 c 128,-1,4
 439 186 439 186 450 237 c 0,5,6
 462 293 462 293 463.5 332 c 128,-1,7
 465 371 465 371 454 396 c 128,-1,8
 443 421 443 421 417.5 432.5 c 128,-1,9
 392 444 392 444 350 444 c 0,10,11
 307 444 307 444 277 432.5 c 128,-1,12
 247 421 247 421 225 396 c 128,-1,13
 203 371 203 371 188.5 332 c 128,-1,14
 174 293 174 293 162 237 c 0,15,16
 151 186 151 186 149.5 149 c 128,-1,17
 148 112 148 112 159.5 88 c 128,-1,18
 171 64 171 64 196 52.5 c 128,-1,19
 221 41 221 41 264 41 c 0,0,1
254 -6 m 0,20,21
 148 -6 148 -6 116.5 57 c 128,-1,22
 85 120 85 120 110 237 c 0,23,24
 136 362 136 362 194 425.5 c 128,-1,25
 252 489 252 489 359 489 c 0,26,27
 412 489 412 489 446 473 c 128,-1,28
 480 457 480 457 497 425.5 c 128,-1,29
 514 394 514 394 514.5 346.5 c 128,-1,30
 515 299 515 299 502 237 c 0,31,32
 477 120 477 120 419 57 c 128,-1,33
 361 -6 361 -6 254 -6 c 0,20,21
333 146 m 1,34,-1
 444 -36 l 1,35,-1
 390 -52 l 1,36,-1
 287 131 l 1,37,-1
 333 146 l 1,34,-1
EndSplineSet
EndChar
StartChar: R
Encoding: 82 82 51
Width: 437
Flags: W
Fore
324 486 m 2,0,1
 374 486 374 486 405.5 477 c 128,-1,2
 437 468 437 468 453.5 450 c 128,-1,3
 470 432 470 432 473.5 406 c 128,-1,4
 477 380 477 380 470 346 c 0,5,6
 464 319 464 319 451.5 298 c 128,-1,7
 439 277 439 277 421 261 c 128,-1,8
 403 245 403 245 381.5 235.5 c 128,-1,9
 360 226 360 226 337 223 c 1,10,-1
 395 0 l 1,11,-1
 338 0 l 1,12,-1
 290 220 l 1,13,-1
 156 220 l 1,14,-1
 110 0 l 1,15,-1
 60 0 l 1,16,-1
 163 486 l 1,17,-1
 324 486 l 2,0,1
165 262 m 1,18,-1
 286 262 l 2,19,20
 306 262 306 262 327 266 c 128,-1,21
 348 270 348 270 366.5 279.5 c 128,-1,22
 385 289 385 289 399 305.5 c 128,-1,23
 413 322 413 322 418 346 c 0,24,25
 424 375 424 375 418.5 394 c 128,-1,26
 413 413 413 413 399 424 c 128,-1,27
 385 435 385 435 363 439.5 c 128,-1,28
 341 444 341 444 315 444 c 2,29,-1
 204 444 l 1,30,-1
 165 262 l 1,18,-1
EndSplineSet
EndChar
StartChar: S
Encoding: 83 83 52
Width: 446
Flags: W
Fore
120 158 m 1,0,1
 122 94 122 94 154 65 c 128,-1,2
 186 36 186 36 252 36 c 0,3,4
 304 36 304 36 338 58 c 128,-1,5
 372 80 372 80 383 130 c 0,6,7
 390 163 390 163 371.5 181.5 c 128,-1,8
 353 200 353 200 322.5 212 c 128,-1,9
 292 224 292 224 255 234 c 128,-1,10
 218 244 218 244 187.5 259.5 c 128,-1,11
 157 275 157 275 140.5 300.5 c 128,-1,12
 124 326 124 326 133 370 c 0,13,14
 145 427 145 427 192.5 457.5 c 128,-1,15
 240 488 240 488 318 488 c 0,16,17
 384 488 384 488 423 454 c 128,-1,18
 462 420 462 420 468 355 c 1,19,-1
 421 342 l 1,20,21
 416 389 416 389 390 418 c 128,-1,22
 364 447 364 447 310 447 c 0,23,24
 200 447 200 447 183 370 c 0,25,26
 176 337 176 337 194.5 318.5 c 128,-1,27
 213 300 213 300 243.5 287.5 c 128,-1,28
 274 275 274 275 311 265.5 c 128,-1,29
 348 256 348 256 378.5 241 c 128,-1,30
 409 226 409 226 426.5 202 c 128,-1,31
 444 178 444 178 435 137 c 0,32,33
 419 65 419 65 369.5 29.5 c 128,-1,34
 320 -6 320 -6 242 -6 c 0,35,36
 157 -6 157 -6 117 30 c 128,-1,37
 77 66 77 66 70 144 c 1,38,-1
 120 158 l 1,0,1
EndSplineSet
EndChar
StartChar: T
Encoding: 84 84 53
Width: 370
Flags: W
Fore
210 0 m 1,0,-1
 160 0 l 1,1,-1
 254 444 l 1,2,-1
 104 444 l 1,3,-1
 113 486 l 1,4,-1
 463 486 l 1,5,-1
 454 444 l 1,6,-1
 304 444 l 1,7,-1
 210 0 l 1,0,-1
EndSplineSet
EndChar
StartChar: U
Encoding: 85 85 54
Width: 492
Flags: W
Fore
163 486 m 1,0,-1
 213 486 l 1,1,-1
 160 239 l 2,2,3
 154 209 154 209 148 184.5 c 128,-1,4
 142 160 142 160 137 140 c 0,5,6
 132 117 132 117 131.5 98.5 c 128,-1,7
 131 80 131 80 139 69 c 0,8,9
 151 52 151 52 182 44 c 128,-1,10
 213 36 213 36 251 36 c 0,11,12
 288 36 288 36 325 44 c 128,-1,13
 362 52 362 52 381 69 c 0,14,15
 394 80 394 80 401 98.5 c 128,-1,16
 408 117 408 117 413 140 c 0,17,18
 418 160 418 160 422 184.5 c 128,-1,19
 426 209 426 209 432 239 c 2,20,-1
 485 486 l 1,21,-1
 535 486 l 1,22,-1
 466 161 l 2,23,24
 456 114 456 114 445.5 88.5 c 128,-1,25
 435 63 435 63 415 43 c 0,26,27
 397 27 397 27 374 17.5 c 128,-1,28
 351 8 351 8 327 2.5 c 128,-1,29
 303 -3 303 -3 280.5 -4.5 c 128,-1,30
 258 -6 258 -6 242 -6 c 256,31,32
 226 -6 226 -6 204.5 -4.5 c 128,-1,33
 183 -3 183 -3 162.5 2 c 128,-1,34
 142 7 142 7 124 17 c 128,-1,35
 106 27 106 27 95 43 c 0,36,37
 82 62 82 62 83 88 c 128,-1,38
 84 114 84 114 94 161 c 2,39,-1
 163 486 l 1,0,-1
EndSplineSet
EndChar
StartChar: V
Encoding: 86 86 55
Width: 443
Flags: W
Fore
472 486 m 1,0,-1
 526 486 l 1,1,-1
 248 0 l 1,2,-1
 196 0 l 1,3,-1
 123 486 l 1,4,-1
 177 486 l 1,5,-1
 230 41 l 1,6,-1
 472 486 l 1,0,-1
EndSplineSet
EndChar
StartChar: W
Encoding: 87 87 56
Width: 566
Flags: W
Fore
410 486 m 1,0,-1
 424 51 l 1,1,-1
 424 51 l 1,2,-1
 595 486 l 1,3,-1
 649 486 l 1,4,-1
 445 0 l 1,5,-1
 388 0 l 1,6,-1
 375 436 l 1,7,-1
 178 0 l 1,8,-1
 121 0 l 1,9,-1
 123 486 l 1,10,-1
 177 486 l 1,11,-1
 162 51 l 1,12,-1
 162 51 l 1,13,-1
 362 486 l 1,14,-1
 410 486 l 1,0,-1
EndSplineSet
EndChar
StartChar: X
Encoding: 88 88 57
Width: 409
Flags: W
Fore
123 486 m 1,0,-1
 183 486 l 1,1,-1
 259 269 l 1,2,-1
 426 486 l 1,3,-1
 486 486 l 1,4,-1
 284 241 l 1,5,-1
 399 0 l 1,6,-1
 338 0 l 1,7,-1
 246 208 l 1,8,-1
 69 0 l 1,9,-1
 10 0 l 1,10,-1
 223 241 l 1,11,-1
 123 486 l 1,0,-1
EndSplineSet
EndChar
StartChar: Y
Encoding: 89 89 58
Width: 423
Flags: W
Fore
236 0 m 1,0,-1
 186 0 l 1,1,-1
 226 190 l 1,2,-1
 123 486 l 1,3,-1
 177 486 l 1,4,-1
 261 231 l 1,5,-1
 452 486 l 1,6,-1
 506 486 l 1,7,-1
 276 190 l 1,8,-1
 236 0 l 1,0,-1
EndSplineSet
EndChar
StartChar: Z
Encoding: 90 90 59
Width: 396
Flags: W
Fore
390 443 m 1,0,-1
 134 443 l 1,1,-1
 143 486 l 1,2,-1
 454 486 l 1,3,-1
 444 440 l 1,4,-1
 108 42 l 1,5,-1
 364 42 l 1,6,-1
 356 0 l 1,7,-1
 42 0 l 1,8,-1
 50 42 l 1,9,-1
 390 443 l 1,0,-1
EndSplineSet
EndChar
StartChar: bracketleft
Encoding: 91 91 60
Width: 270
Flags: W
Fore
346 585 m 1,0,-1
 339 555 l 1,1,-1
 237 555 l 1,2,-1
 113 -29 l 1,3,-1
 215 -29 l 1,4,-1
 209 -59 l 1,5,-1
 58 -59 l 1,6,-1
 195 585 l 1,7,-1
 346 585 l 1,0,-1
EndSplineSet
EndChar
StartChar: backslash
Encoding: 92 92 61
Width: 225
Flags: W
Fore
116 593 m 1,0,-1
 161 593 l 1,1,-1
 233 -8 l 1,2,-1
 185 -8 l 1,3,-1
 116 593 l 1,0,-1
EndSplineSet
EndChar
StartChar: bracketright
Encoding: 93 93 62
Width: 270
Flags: W
Fore
35 -59 m 1,0,-1
 41 -29 l 1,1,-1
 143 -29 l 1,2,-1
 267 555 l 1,3,-1
 165 555 l 1,4,-1
 172 585 l 1,5,-1
 323 585 l 1,6,-1
 186 -59 l 1,7,-1
 35 -59 l 1,0,-1
EndSplineSet
EndChar
StartChar: asciicircum
Encoding: 94 94 63
Width: 456
Flags: W
Fore
364 549 m 1,0,-1
 460 225 l 1,1,-1
 410 225 l 1,2,-1
 331 494 l 1,3,-1
 140 225 l 1,4,-1
 90 225 l 1,5,-1
 323 549 l 1,6,-1
 364 549 l 1,0,-1
EndSplineSet
EndChar
StartChar: underscore
Encoding: 95 95 64
Width: 475
Flags: W
Fore
-25 -119 m 1,0,-1
 -15 -71 l 1,1,-1
 459 -71 l 1,2,-1
 449 -119 l 1,3,-1
 -25 -119 l 1,0,-1
EndSplineSet
EndChar
StartChar: grave
Encoding: 96 96 65
Width: 169
Flags: W
Fore
163 544 m 1,0,-1
 225 439 l 1,1,-1
 186 439 l 1,2,-1
 105 544 l 1,3,-1
 163 544 l 1,0,-1
EndSplineSet
EndChar
StartChar: a
Encoding: 97 97 66
Width: 380
Flags: W
Fore
283 48 m 1,0,1
 242 20 242 20 207 6 c 128,-1,2
 172 -8 172 -8 126 -8 c 256,3,4
 80 -8 80 -8 55.5 24 c 128,-1,5
 31 56 31 56 42 106 c 0,6,7
 51 146 51 146 72.5 171 c 128,-1,8
 94 196 94 196 129 210.5 c 128,-1,9
 164 225 164 225 212.5 231 c 128,-1,10
 261 237 261 237 324 240 c 1,11,-1
 334 287 l 2,12,13
 351 367 351 367 250 367 c 0,14,15
 207 367 207 367 177 348 c 128,-1,16
 147 329 147 329 121 295 c 1,17,-1
 88 314 l 1,18,19
 124 362 124 362 167.5 382.5 c 128,-1,20
 211 403 211 403 259 403 c 0,21,22
 327 403 327 403 358 374 c 128,-1,23
 389 345 389 345 375 279 c 2,24,-1
 331 72 l 2,25,26
 326 49 326 49 325.5 32.5 c 128,-1,27
 325 16 325 16 327 8 c 1,28,29
 308 0 308 0 293 0 c 0,30,31
 289 0 289 0 285.5 1.5 c 128,-1,32
 282 3 282 3 280 8 c 0,33,34
 278 16 278 16 280 31 c 0,35,36
 281 39 281 39 283 48 c 1,0,1
314 203 m 1,37,38
 247 202 247 202 204.5 193.5 c 128,-1,39
 162 185 162 185 136.5 172 c 128,-1,40
 111 159 111 159 99.5 142 c 128,-1,41
 88 125 88 125 84 107 c 0,42,43
 77 74 77 74 94 51.5 c 128,-1,44
 111 29 111 29 142 29 c 0,45,46
 174 29 174 29 214 46.5 c 128,-1,47
 254 64 254 64 290 94 c 1,48,-1
 314 203 l 1,37,38
EndSplineSet
Substitution: 0 65534 'L030' uni0E38
Substitution: 0 65534 'L030' uni0E38
EndChar
StartChar: b
Encoding: 98 98 67
Width: 415
Flags: W
Fore
229 549 m 1,0,-1
 188 354 l 1,1,2
 228 375 228 375 262 389 c 128,-1,3
 296 403 296 403 336 403 c 0,4,5
 406 403 406 403 427.5 349 c 128,-1,6
 449 295 449 295 429 200 c 0,7,8
 406 91 406 91 358.5 41.5 c 128,-1,9
 311 -8 311 -8 242 -8 c 0,10,11
 200 -8 200 -8 173 6 c 128,-1,12
 146 20 146 20 122 51 c 1,13,14
 116 33 l 0,15,16
 114 25 114 25 111 18.5 c 128,-1,17
 108 12 108 12 105 8 c 0,18,19
 101 3 101 3 97.5 1.5 c 128,-1,20
 94 0 94 0 90 0 c 0,21,22
 74 0 74 0 58 8 c 1,23,24
 63 19 63 19 72 36 c 128,-1,25
 81 53 81 53 87 82 c 2,26,-1
 186 549 l 1,27,-1
 229 549 l 1,0,-1
134 101 m 1,28,29
 149 70 149 70 177 49.5 c 128,-1,30
 205 29 205 29 247 29 c 0,31,32
 307 29 307 29 336.5 72.5 c 128,-1,33
 366 116 366 116 382 192 c 0,34,35
 391 234 391 234 393.5 267 c 128,-1,36
 396 300 396 300 389.5 322 c 128,-1,37
 383 344 383 344 365.5 355.5 c 128,-1,38
 348 367 348 367 317 367 c 0,39,40
 300 367 300 367 281.5 361 c 128,-1,41
 263 355 263 355 244.5 346 c 128,-1,42
 226 337 226 337 208.5 326 c 128,-1,43
 191 315 191 315 177 305 c 1,44,-1
 134 101 l 1,28,29
EndSplineSet
Substitution: 0 65534 'L030' uni0E39
Substitution: 0 65534 'L030' uni0E39
EndChar
StartChar: c
Encoding: 99 99 68
Width: 380
Flags: W
Fore
356 304 m 1,0,1
 346 331 346 331 328 349 c 128,-1,2
 310 367 310 367 271 367 c 0,3,4
 236 367 236 367 211 358 c 128,-1,5
 186 349 186 349 168 328.5 c 128,-1,6
 150 308 150 308 137.5 276 c 128,-1,7
 125 244 125 244 115 198 c 0,8,9
 107 160 107 160 105 129 c 128,-1,10
 103 98 103 98 111 75.5 c 128,-1,11
 119 53 119 53 140 41 c 128,-1,12
 161 29 161 29 198 29 c 0,13,14
 240 29 240 29 269 50 c 128,-1,15
 298 71 298 71 315 94 c 1,16,-1
 346 74 l 1,17,18
 334 58 334 58 318.5 43.5 c 128,-1,19
 303 29 303 29 284 17.5 c 128,-1,20
 265 6 265 6 241.5 -1 c 128,-1,21
 218 -8 218 -8 190 -8 c 0,22,23
 141 -8 141 -8 112 7.5 c 128,-1,24
 83 23 83 23 70.5 50 c 128,-1,25
 58 77 58 77 59 115 c 128,-1,26
 60 153 60 153 70 198 c 0,27,28
 91 299 91 299 139 351 c 128,-1,29
 187 403 187 403 278 403 c 0,30,31
 329 403 329 403 356 381.5 c 128,-1,32
 383 360 383 360 398 318 c 1,33,-1
 356 304 l 1,0,1
EndSplineSet
Substitution: 0 65534 'L030' uni0E3A
Substitution: 0 65534 'L030' uni0E3A
EndChar
StartChar: d
Encoding: 100 100 69
Width: 415
Flags: W
Fore
368 315 m 1,0,1
 359 332 359 332 333.5 349.5 c 128,-1,2
 308 367 308 367 274 367 c 0,3,4
 211 367 211 367 171 322 c 128,-1,5
 131 277 131 277 113 192 c 0,6,7
 105 154 105 154 103.5 124 c 128,-1,8
 102 94 102 94 109 73 c 128,-1,9
 116 52 116 52 133 40.5 c 128,-1,10
 150 29 150 29 180 29 c 0,11,12
 222 29 222 29 258 49.5 c 128,-1,13
 294 70 294 70 323 101 c 1,14,-1
 368 315 l 1,0,1
362 82 m 2,15,16
 357 59 357 59 356 39 c 128,-1,17
 355 19 355 19 356 8 c 1,18,19
 337 0 337 0 323 0 c 0,20,21
 319 0 319 0 315.5 1.5 c 128,-1,22
 312 3 312 3 310 8 c 0,23,24
 308 16 308 16 310 33 c 0,25,26
 311 42 311 42 313 51 c 1,27,28
 277 20 277 20 244 6 c 128,-1,29
 211 -8 211 -8 169 -8 c 0,30,31
 100 -8 100 -8 73.5 41.5 c 128,-1,32
 47 91 47 91 70 200 c 0,33,34
 80 247 80 247 99.5 285 c 128,-1,35
 119 323 119 323 145 349 c 128,-1,36
 171 375 171 375 202.5 389 c 128,-1,37
 234 403 234 403 269 403 c 0,38,39
 309 403 309 403 335 389.5 c 128,-1,40
 361 376 361 376 379 364 c 1,41,-1
 418 549 l 1,42,-1
 461 549 l 1,43,-1
 362 82 l 2,15,16
EndSplineSet
EndChar
StartChar: e
Encoding: 101 101 70
Width: 380
Flags: W
Fore
114 196 m 1,0,1
 107 162 107 162 108 132 c 128,-1,2
 109 102 109 102 119.5 79 c 128,-1,3
 130 56 130 56 151 42.5 c 128,-1,4
 172 29 172 29 206 29 c 0,5,6
 225 29 225 29 240.5 33 c 128,-1,7
 256 37 256 37 271 46 c 128,-1,8
 286 55 286 55 302 70 c 128,-1,9
 318 85 318 85 337 108 c 1,10,-1
 370 89 l 1,11,12
 349 63 349 63 329.5 44.5 c 128,-1,13
 310 26 310 26 289.5 14.5 c 128,-1,14
 269 3 269 3 246 -2.5 c 128,-1,15
 223 -8 223 -8 194 -8 c 0,16,17
 117 -8 117 -8 82.5 43 c 128,-1,18
 48 94 48 94 70 198 c 0,19,20
 82 255 82 255 103.5 294 c 128,-1,21
 125 333 125 333 153 357.5 c 128,-1,22
 181 382 181 382 213.5 392.5 c 128,-1,23
 246 403 246 403 280 403 c 0,24,25
 320 403 320 403 346 388 c 128,-1,26
 372 373 372 373 384.5 345.5 c 128,-1,27
 397 318 397 318 398 280 c 128,-1,28
 399 242 399 242 389 196 c 1,29,-1
 114 196 l 1,0,1
351 233 m 1,30,31
 362 298 362 298 342.5 332.5 c 128,-1,32
 323 367 323 367 271 367 c 0,33,34
 241 367 241 367 216 356 c 128,-1,35
 191 345 191 345 172.5 327 c 128,-1,36
 154 309 154 309 141 284.5 c 128,-1,37
 128 260 128 260 122 233 c 1,38,-1
 351 233 l 1,30,31
EndSplineSet
EndChar
StartChar: f
Encoding: 102 102 71
Width: 212
Flags: W
Fore
194 359 m 1,0,-1
 118 0 l 1,1,-1
 73 0 l 1,2,-1
 149 359 l 1,3,-1
 84 359 l 1,4,-1
 91 395 l 1,5,-1
 156 395 l 1,6,-1
 168 451 l 2,7,8
 179 503 179 503 206.5 530 c 128,-1,9
 234 557 234 557 285 557 c 0,10,11
 297 557 297 557 310 556 c 128,-1,12
 323 555 323 555 334 551 c 1,13,14
 338 537 338 537 332 521 c 128,-1,15
 326 505 326 505 321 505 c 1,16,17
 312 510 312 510 302.5 513.5 c 128,-1,18
 293 517 293 517 281 517 c 0,19,20
 254 517 254 517 238 504.5 c 128,-1,21
 222 492 222 492 215 457 c 2,22,-1
 201 395 l 1,23,-1
 282 395 l 1,24,-1
 275 359 l 1,25,-1
 194 359 l 1,0,-1
EndSplineSet
EndChar
StartChar: g
Encoding: 103 103 72
Width: 380
Flags: W
Fore
381 355 m 1,0,1
 390 338 390 338 392 317.5 c 128,-1,2
 394 297 394 297 387 268 c 0,3,4
 378 226 378 226 362 199 c 128,-1,5
 346 172 346 172 322.5 156 c 128,-1,6
 299 140 299 140 269.5 134 c 128,-1,7
 240 128 240 128 205 128 c 0,8,9
 186 128 186 128 169 130.5 c 128,-1,10
 152 133 152 133 138 138 c 1,11,12
 118 130 118 130 108.5 121.5 c 128,-1,13
 99 113 99 113 97 102 c 0,14,15
 95 93 95 93 98 87 c 128,-1,16
 101 81 101 81 113.5 77.5 c 128,-1,17
 126 74 126 74 150 72 c 128,-1,18
 174 70 174 70 214 70 c 0,19,20
 303 70 303 70 335 47 c 128,-1,21
 367 24 367 24 356 -32 c 0,22,23
 350 -61 350 -61 337 -81.5 c 128,-1,24
 324 -102 324 -102 301.5 -115 c 128,-1,25
 279 -128 279 -128 244 -134 c 128,-1,26
 209 -140 209 -140 158 -140 c 256,27,28
 107 -140 107 -140 75.5 -133.5 c 128,-1,29
 44 -127 44 -127 28 -114.5 c 128,-1,30
 12 -102 12 -102 8.5 -85 c 128,-1,31
 5 -68 5 -68 9 -47 c 0,32,33
 14 -21 14 -21 30.5 0.5 c 128,-1,34
 47 22 47 22 92 37 c 1,35,-1
 93 39 l 1,36,37
 65 44 65 44 57.5 59.5 c 128,-1,38
 50 75 50 75 55 96 c 0,39,40
 60 122 60 122 76 136.5 c 128,-1,41
 92 151 92 151 115 156 c 1,42,43
 92 173 92 173 87 201 c 128,-1,44
 82 229 82 229 89 260 c 0,45,46
 104 330 104 330 146.5 366.5 c 128,-1,47
 189 403 189 403 276 403 c 0,48,49
 307 403 307 403 328 395.5 c 128,-1,50
 349 388 349 388 360 380 c 1,51,52
 381 397 381 397 402.5 407.5 c 128,-1,53
 424 418 424 418 448 418 c 0,54,55
 453 418 453 418 454.5 413 c 128,-1,56
 456 408 456 408 455.5 400.5 c 128,-1,57
 455 393 455 393 452 385 c 128,-1,58
 449 377 449 377 444 370 c 1,59,60
 428 370 428 370 411.5 368 c 128,-1,61
 395 366 395 366 381 355 c 1,0,1
184 29 m 0,62,63
 150 29 150 29 127 23.5 c 128,-1,64
 104 18 104 18 89 8.5 c 128,-1,65
 74 -1 74 -1 66.5 -13 c 128,-1,66
 59 -25 59 -25 56 -38 c 0,67,68
 52 -60 52 -60 55.5 -73 c 128,-1,69
 59 -86 59 -86 71.5 -93 c 128,-1,70
 84 -100 84 -100 105.5 -102 c 128,-1,71
 127 -104 127 -104 158 -104 c 0,72,73
 195 -104 195 -104 221 -102 c 128,-1,74
 247 -100 247 -100 265 -93 c 128,-1,75
 283 -86 283 -86 293.5 -72.5 c 128,-1,76
 304 -59 304 -59 309 -36 c 0,77,78
 313 -16 313 -16 310.5 -3.5 c 128,-1,79
 308 9 308 9 294.5 16.5 c 128,-1,80
 281 24 281 24 254.5 26.5 c 128,-1,81
 228 29 228 29 184 29 c 0,62,63
136 265 m 0,82,83
 129 234 129 234 132 214.5 c 128,-1,84
 135 195 135 195 145.5 184.5 c 128,-1,85
 156 174 156 174 174.5 170 c 128,-1,86
 193 166 193 166 217 166 c 0,87,88
 245 166 245 166 265 170 c 128,-1,89
 285 174 285 174 300 184.5 c 128,-1,90
 315 195 315 195 324.5 214.5 c 128,-1,91
 334 234 334 234 341 265 c 0,92,93
 348 297 348 297 346.5 316.5 c 128,-1,94
 345 336 345 336 335 347.5 c 128,-1,95
 325 359 325 359 306.5 363 c 128,-1,96
 288 367 288 367 260 367 c 0,97,98
 205 367 205 367 176.5 345 c 128,-1,99
 148 323 148 323 136 265 c 0,82,83
EndSplineSet
EndChar
StartChar: h
Encoding: 104 104 73
Width: 423
Flags: W
Fore
63 0 m 1,0,-1
 179 549 l 1,1,-1
 224 549 l 1,2,-1
 178 333 l 1,3,4
 217 366 217 366 250.5 384.5 c 128,-1,5
 284 403 284 403 328 403 c 0,6,7
 390 403 390 403 410.5 368.5 c 128,-1,8
 431 334 431 334 417 270 c 2,9,-1
 360 0 l 1,10,-1
 314 0 l 1,11,-1
 370 265 l 2,12,13
 381 315 381 315 369.5 341 c 128,-1,14
 358 367 358 367 312 367 c 0,15,16
 294 367 294 367 277.5 361.5 c 128,-1,17
 261 356 261 356 244.5 346 c 128,-1,18
 228 336 228 336 210 322 c 128,-1,19
 192 308 192 308 169 291 c 1,20,-1
 108 0 l 1,21,-1
 63 0 l 1,0,-1
EndSplineSet
EndChar
StartChar: i
Encoding: 105 105 74
Width: 169
Flags: W
Fore
107 0 m 1,0,-1
 62 0 l 1,1,-1
 145 395 l 1,2,-1
 190 395 l 1,3,-1
 107 0 l 1,0,-1
164 482 m 1,4,-1
 178 549 l 1,5,-1
 223 549 l 1,6,-1
 209 482 l 1,7,-1
 164 482 l 1,4,-1
EndSplineSet
EndChar
StartChar: j
Encoding: 106 106 75
Width: 169
Flags: W
Fore
97 -44 m 2,0,1
 86 -96 86 -96 60 -118 c 128,-1,2
 34 -140 34 -140 -16 -140 c 0,3,4
 -28 -140 -28 -140 -41 -139 c 128,-1,5
 -54 -138 -54 -138 -65 -134 c 1,6,7
 -69 -120 -69 -120 -63 -104 c 128,-1,8
 -57 -88 -57 -88 -52 -88 c 1,9,10
 -43 -93 -43 -93 -34 -96.5 c 128,-1,11
 -25 -100 -25 -100 -13 -100 c 0,12,13
 0 -100 0 -100 10.5 -98.5 c 128,-1,14
 21 -97 21 -97 28.5 -92 c 128,-1,15
 36 -87 36 -87 41.5 -77 c 128,-1,16
 47 -67 47 -67 51 -50 c 2,17,-1
 145 395 l 1,18,-1
 190 395 l 1,19,-1
 97 -44 l 2,0,1
164 482 m 1,20,-1
 178 549 l 1,21,-1
 223 549 l 1,22,-1
 209 482 l 1,23,-1
 164 482 l 1,20,-1
EndSplineSet
EndChar
StartChar: k
Encoding: 107 107 76
Width: 380
Flags: W
Fore
63 0 m 1,0,-1
 179 549 l 1,1,-1
 224 549 l 1,2,-1
 151 205 l 1,3,-1
 369 395 l 1,4,-1
 427 395 l 1,5,-1
 225 217 l 1,6,-1
 363 0 l 1,7,-1
 303 0 l 1,8,-1
 187 187 l 1,9,-1
 138 142 l 1,10,-1
 108 0 l 1,11,-1
 63 0 l 1,0,-1
EndSplineSet
EndChar
StartChar: l
Encoding: 108 108 77
Width: 169
Flags: W
Fore
178 549 m 1,0,-1
 223 549 l 1,1,-1
 107 0 l 1,2,-1
 62 0 l 1,3,-1
 178 549 l 1,0,-1
EndSplineSet
EndChar
StartChar: m
Encoding: 109 109 78
Width: 633
Flags: W
Fore
63 0 m 1,0,-1
 146 395 l 1,1,-1
 191 395 l 1,2,-1
 179 335 l 1,3,4
 197 351 197 351 213.5 363.5 c 128,-1,5
 230 376 230 376 247 385 c 128,-1,6
 264 394 264 394 282.5 398.5 c 128,-1,7
 301 403 301 403 324 403 c 0,8,9
 357 403 357 403 380 383 c 128,-1,10
 403 363 403 363 405 331 c 1,11,12
 439 362 439 362 473.5 382.5 c 128,-1,13
 508 403 508 403 551 403 c 0,14,15
 603 403 603 403 623 375.5 c 128,-1,16
 643 348 643 348 632 295 c 2,17,-1
 570 0 l 1,18,-1
 524 0 l 1,19,-1
 587 300 l 2,20,21
 602 367 602 367 534 367 c 0,22,23
 521 367 521 367 503 360.5 c 128,-1,24
 485 354 485 354 466 343.5 c 128,-1,25
 447 333 447 333 429.5 319 c 128,-1,26
 412 305 412 305 400 291 c 1,27,-1
 339 0 l 1,28,-1
 294 0 l 1,29,-1
 357 300 l 2,30,31
 365 333 365 333 350.5 350 c 128,-1,32
 336 367 336 367 303 367 c 0,33,34
 290 367 290 367 272 360.5 c 128,-1,35
 254 354 254 354 235 343.5 c 128,-1,36
 216 333 216 333 198.5 319 c 128,-1,37
 181 305 181 305 169 291 c 1,38,-1
 108 0 l 1,39,-1
 63 0 l 1,0,-1
EndSplineSet
EndChar
StartChar: n
Encoding: 110 110 79
Width: 423
Flags: W
Fore
63 0 m 1,0,-1
 146 395 l 1,1,-1
 191 395 l 1,2,-1
 178 334 l 1,3,4
 210 367 210 367 247 385 c 128,-1,5
 284 403 284 403 328 403 c 0,6,7
 390 403 390 403 410.5 368.5 c 128,-1,8
 431 334 431 334 417 270 c 2,9,-1
 360 0 l 1,10,-1
 314 0 l 1,11,-1
 370 265 l 2,12,13
 381 315 381 315 369.5 341 c 128,-1,14
 358 367 358 367 312 367 c 0,15,16
 275 367 275 367 241 346 c 128,-1,17
 207 325 207 325 169 291 c 1,18,-1
 108 0 l 1,19,-1
 63 0 l 1,0,-1
EndSplineSet
EndChar
StartChar: o
Encoding: 111 111 80
Width: 380
Flags: W
Fore
268 367 m 0,0,1
 234 367 234 367 208.5 355.5 c 128,-1,2
 183 344 183 344 165 322.5 c 128,-1,3
 147 301 147 301 135 269.5 c 128,-1,4
 123 238 123 238 115 198 c 0,5,6
 106 158 106 158 105 126.5 c 128,-1,7
 104 95 104 95 112.5 73 c 128,-1,8
 121 51 121 51 141.5 40 c 128,-1,9
 162 29 162 29 196 29 c 0,10,11
 265 29 265 29 298.5 73 c 128,-1,12
 332 117 332 117 349 198 c 0,13,14
 357 238 357 238 358.5 269.5 c 128,-1,15
 360 301 360 301 351.5 322.5 c 128,-1,16
 343 344 343 344 323 355.5 c 128,-1,17
 303 367 303 367 268 367 c 0,0,1
275 403 m 0,18,19
 322 403 322 403 350 389 c 128,-1,20
 378 375 378 375 391 348.5 c 128,-1,21
 404 322 404 322 404 284 c 128,-1,22
 404 246 404 246 394 198 c 256,23,24
 384 150 384 150 367.5 112 c 128,-1,25
 351 74 351 74 327 47 c 128,-1,26
 303 20 303 20 269 6 c 128,-1,27
 235 -8 235 -8 188 -8 c 0,28,29
 142 -8 142 -8 114 6 c 128,-1,30
 86 20 86 20 72.5 47 c 128,-1,31
 59 74 59 74 59.5 112 c 128,-1,32
 60 150 60 150 70 198 c 256,33,34
 80 246 80 246 96 284 c 128,-1,35
 112 322 112 322 136.5 348.5 c 128,-1,36
 161 375 161 375 195 389 c 128,-1,37
 229 403 229 403 275 403 c 0,18,19
EndSplineSet
EndChar
StartChar: p
Encoding: 112 112 81
Width: 415
Flags: W
Fore
127 70 m 1,0,1
 141 57 141 57 165.5 42.5 c 128,-1,2
 190 28 190 28 224 28 c 0,3,4
 294 28 294 28 330.5 73 c 128,-1,5
 367 118 367 118 385 203 c 0,6,7
 402 286 402 286 390 326 c 128,-1,8
 378 366 378 366 318 366 c 0,9,10
 276 366 276 366 239 340.5 c 128,-1,11
 202 315 202 315 173 284 c 1,12,-1
 127 70 l 1,0,1
180 395 m 0,13,14
 189 395 189 395 191 386 c 128,-1,15
 193 377 193 377 188 355 c 2,16,-1
 183 334 l 1,17,-1
 184 334 l 1,18,19
 215 369 215 369 252.5 386 c 128,-1,20
 290 403 290 403 329 403 c 0,21,22
 364 403 364 403 388 392 c 128,-1,23
 412 381 412 381 425 356.5 c 128,-1,24
 438 332 438 332 439 292.5 c 128,-1,25
 440 253 440 253 428 195 c 0,26,27
 408 100 408 100 357.5 46 c 128,-1,28
 307 -8 307 -8 229 -8 c 0,29,30
 189 -8 189 -8 165.5 -0.5 c 128,-1,31
 142 7 142 7 117 21 c 1,32,-1
 83 -140 l 1,33,-1
 40 -140 l 1,34,-1
 125 262 l 2,35,36
 127 271 127 271 130.5 288.5 c 128,-1,37
 134 306 134 306 137.5 324.5 c 128,-1,38
 141 343 141 343 143 360 c 128,-1,39
 145 377 145 377 143 385 c 1,40,41
 148 387 148 387 154 390 c 0,42,43
 166 395 166 395 180 395 c 0,13,14
EndSplineSet
EndChar
StartChar: q
Encoding: 113 113 82
Width: 415
Flags: W
Fore
364 294 m 1,0,1
 349 325 349 325 321 345.5 c 128,-1,2
 293 366 293 366 251 366 c 0,3,4
 191 366 191 366 161.5 322.5 c 128,-1,5
 132 279 132 279 116 203 c 0,6,7
 98 118 98 118 114.5 73 c 128,-1,8
 131 28 131 28 201 28 c 0,9,10
 235 28 235 28 261.5 39 c 128,-1,11
 288 50 288 50 316 70 c 1,12,-1
 364 294 l 1,0,1
439 385 m 1,13,14
 435 377 435 377 429 361.5 c 128,-1,15
 423 346 423 346 417.5 328 c 128,-1,16
 412 310 412 310 407.5 292.5 c 128,-1,17
 403 275 403 275 400 262 c 2,18,-1
 315 -140 l 1,19,-1
 272 -140 l 1,20,-1
 306 21 l 1,21,22
 288 12 288 12 274 6.5 c 128,-1,23
 260 1 260 1 246 -2.5 c 128,-1,24
 232 -6 232 -6 217 -7 c 128,-1,25
 202 -8 202 -8 182 -8 c 0,26,27
 104 -8 104 -8 76.5 46 c 128,-1,28
 49 100 49 100 69 195 c 0,29,30
 92 304 92 304 139.5 353.5 c 128,-1,31
 187 403 187 403 256 403 c 0,32,33
 338 403 338 403 380 349 c 1,34,35
 385 371 385 371 391 383 c 128,-1,36
 397 395 397 395 406 395 c 0,37,38
 420 395 420 395 430 390 c 0,39,40
 435 387 435 387 439 385 c 1,13,14
EndSplineSet
EndChar
StartChar: r
Encoding: 114 114 83
Width: 264
Flags: W
Fore
280 359 m 0,0,1
 263 359 263 359 243 348.5 c 128,-1,2
 223 338 223 338 205 319.5 c 128,-1,3
 187 301 187 301 172.5 276.5 c 128,-1,4
 158 252 158 252 152 223 c 2,5,-1
 105 0 l 1,6,-1
 59 0 l 1,7,-1
 142 395 l 1,8,-1
 188 395 l 1,9,-1
 173 320 l 1,10,-1
 174 320 l 1,11,12
 197 357 197 357 230 380 c 128,-1,13
 263 403 263 403 301 403 c 0,14,15
 306 403 306 403 317.5 402 c 128,-1,16
 329 401 329 401 334 398 c 1,17,18
 336 391 336 391 333.5 383 c 128,-1,19
 331 375 331 375 327 367.5 c 128,-1,20
 323 360 323 360 318.5 355 c 128,-1,21
 314 350 314 350 312 350 c 1,22,23
 299 359 299 359 280 359 c 0,0,1
EndSplineSet
EndChar
StartChar: s
Encoding: 115 115 84
Width: 337
Flags: W
Fore
34 72 m 1,0,1
 39 77 39 77 44 81 c 256,2,3
 49 85 49 85 54 88.5 c 128,-1,4
 59 92 59 92 63 94 c 0,5,6
 75 99 75 99 81 90 c 0,7,8
 99 57 99 57 125 43 c 128,-1,9
 151 29 151 29 181 29 c 0,10,11
 219 29 219 29 248.5 51 c 128,-1,12
 278 73 278 73 285 105 c 0,13,14
 291 133 291 133 277 148.5 c 128,-1,15
 263 164 263 164 239 173.5 c 128,-1,16
 215 183 215 183 186 190 c 128,-1,17
 157 197 157 197 134 208.5 c 128,-1,18
 111 220 111 220 98 240 c 128,-1,19
 85 260 85 260 92 295 c 0,20,21
 98 323 98 323 114 343.5 c 128,-1,22
 130 364 130 364 151 377 c 128,-1,23
 172 390 172 390 196 396.5 c 128,-1,24
 220 403 220 403 241 403 c 0,25,26
 283 403 283 403 315.5 384.5 c 128,-1,27
 348 366 348 366 362 332 c 1,28,29
 354 324 l 1,30,31
 350 321 350 321 344.5 317.5 c 128,-1,32
 339 314 339 314 332 312 c 0,33,34
 326 310 326 310 324 312 c 128,-1,35
 322 314 322 314 319 320 c 0,36,37
 305 343 305 343 285 355 c 128,-1,38
 265 367 265 367 232 367 c 256,39,40
 199 367 199 367 173 350 c 128,-1,41
 147 333 147 333 139 297 c 0,42,43
 134 273 134 273 148.5 260 c 128,-1,44
 163 247 163 247 187 238 c 128,-1,45
 211 229 211 229 239.5 221.5 c 128,-1,46
 268 214 268 214 291 201 c 128,-1,47
 314 188 314 188 326.5 165.5 c 128,-1,48
 339 143 339 143 331 105 c 0,49,50
 325 78 325 78 309.5 57 c 128,-1,51
 294 36 294 36 271.5 21.5 c 128,-1,52
 249 7 249 7 223 -0.5 c 128,-1,53
 197 -8 197 -8 170 -8 c 0,54,55
 124 -8 124 -8 88.5 11 c 128,-1,56
 53 30 53 30 34 72 c 1,0,1
EndSplineSet
EndChar
StartChar: t
Encoding: 116 116 85
Width: 211
Flags: W
Fore
150 395 m 1,0,-1
 178 524 l 1,1,-1
 223 524 l 1,2,-1
 195 395 l 1,3,-1
 283 395 l 1,4,-1
 276 359 l 1,5,-1
 188 359 l 1,6,-1
 127 71 l 2,7,8
 122 51 122 51 129 42 c 128,-1,9
 136 33 136 33 158 33 c 0,10,11
 169 33 169 33 184.5 36.5 c 128,-1,12
 200 40 200 40 212 45 c 1,13,14
 213 44 213 44 213.5 37 c 128,-1,15
 214 30 214 30 213.5 22 c 128,-1,16
 213 14 213 14 210 7 c 128,-1,17
 207 0 207 0 202 -1 c 0,18,19
 189 -4 189 -4 175.5 -6 c 128,-1,20
 162 -8 162 -8 151 -8 c 0,21,22
 102 -8 102 -8 87 8.5 c 128,-1,23
 72 25 72 25 80 62 c 2,24,-1
 143 359 l 1,25,-1
 84 359 l 1,26,-1
 91 395 l 1,27,-1
 150 395 l 1,0,-1
EndSplineSet
EndChar
StartChar: u
Encoding: 117 117 86
Width: 423
Flags: W
Fore
329 63 m 1,0,1
 305 29 305 29 263.5 10.5 c 128,-1,2
 222 -8 222 -8 178 -8 c 0,3,4
 115 -8 115 -8 95 26.5 c 128,-1,5
 75 61 75 61 89 125 c 2,6,-1
 146 395 l 1,7,-1
 191 395 l 1,8,-1
 135 130 l 2,9,10
 124 81 124 81 136 55 c 128,-1,11
 148 29 148 29 194 29 c 0,12,13
 232 29 232 29 269 49.5 c 128,-1,14
 306 70 306 70 336 105 c 1,15,-1
 397 395 l 1,16,-1
 443 395 l 1,17,-1
 377 82 l 2,18,19
 370 48 370 48 370 33 c 128,-1,20
 370 18 370 18 371 8 c 1,21,22
 362 4 362 4 355 2 c 128,-1,23
 348 0 348 0 340 0 c 0,24,25
 336 0 336 0 330.5 1.5 c 128,-1,26
 325 3 325 3 323 8 c 0,27,28
 322 12 322 12 322.5 20.5 c 128,-1,29
 323 29 323 29 325 39 c 0,30,31
 327 50 327 50 329 63 c 1,0,1
EndSplineSet
EndChar
StartChar: v
Encoding: 118 118 87
Width: 337
Flags: W
Fore
93 395 m 1,0,-1
 142 395 l 1,1,-1
 181 70 l 1,2,-1
 183 70 l 1,3,-1
 361 395 l 1,4,-1
 410 395 l 1,5,-1
 191 0 l 1,6,-1
 146 0 l 1,7,-1
 93 395 l 1,0,-1
EndSplineSet
EndChar
StartChar: w
Encoding: 119 119 88
Width: 507
Flags: W
Fore
89 395 m 1,0,-1
 134 395 l 1,1,-1
 155 78 l 1,2,-1
 156 78 l 1,3,-1
 313 395 l 1,4,-1
 359 395 l 1,5,-1
 379 78 l 1,6,-1
 381 78 l 1,7,-1
 537 395 l 1,8,-1
 584 395 l 1,9,-1
 386 0 l 1,10,-1
 341 0 l 1,11,-1
 320 317 l 1,12,-1
 318 317 l 1,13,-1
 162 0 l 1,14,-1
 116 0 l 1,15,-1
 89 395 l 1,0,-1
EndSplineSet
EndChar
StartChar: x
Encoding: 120 120 89
Width: 337
Flags: W
Fore
63 0 m 1,0,-1
 8 0 l 1,1,-1
 186 210 l 1,2,-1
 106 395 l 1,3,-1
 161 395 l 1,4,-1
 222 253 l 1,5,-1
 343 395 l 1,6,-1
 397 395 l 1,7,-1
 240 210 l 1,8,-1
 330 0 l 1,9,-1
 276 0 l 1,10,-1
 204 166 l 1,11,-1
 63 0 l 1,0,-1
EndSplineSet
EndChar
StartChar: y
Encoding: 121 121 90
Width: 337
Flags: W
Fore
183 74 m 1,0,-1
 184 74 l 1,1,-1
 362 395 l 1,2,-1
 412 395 l 1,3,-1
 174 -29 l 2,4,5
 142 -86 142 -86 110 -113 c 128,-1,6
 78 -140 78 -140 25 -140 c 0,7,8
 10 -140 10 -140 1 -137.5 c 128,-1,9
 -8 -135 -8 -135 -16 -132 c 0,10,11
 -21 -130 -21 -130 -20.5 -122.5 c 128,-1,12
 -20 -115 -20 -115 -16.5 -107 c 128,-1,13
 -13 -99 -13 -99 -8 -91.5 c 128,-1,14
 -3 -84 -3 -84 0 -82 c 1,15,16
 8 -90 8 -90 16.5 -96 c 128,-1,17
 25 -102 25 -102 39 -102 c 0,18,19
 62 -102 62 -102 90 -78.5 c 128,-1,20
 118 -55 118 -55 147 6 c 1,21,-1
 93 395 l 1,22,-1
 142 395 l 1,23,-1
 183 74 l 1,0,-1
EndSplineSet
EndChar
StartChar: z
Encoding: 122 122 91
Width: 337
Flags: W
Fore
120 395 m 1,0,-1
 391 395 l 1,1,-1
 386 367 l 1,2,-1
 87 36 l 1,3,-1
 321 36 l 1,4,-1
 314 0 l 1,5,-1
 19 0 l 1,6,-1
 25 29 l 1,7,-1
 323 359 l 1,8,-1
 113 359 l 1,9,-1
 120 395 l 1,0,-1
EndSplineSet
EndChar
StartChar: braceleft
Encoding: 123 123 92
Width: 253
Flags: W
Fore
88 260 m 1,0,1
 114 260 114 260 127.5 276.5 c 128,-1,2
 141 293 141 293 147 322 c 2,3,-1
 178 470 l 2,4,5
 187 512 187 512 209.5 534.5 c 128,-1,6
 232 557 232 557 264 557 c 2,7,-1
 311 557 l 1,8,-1
 305 529 l 1,9,-1
 267 529 l 2,10,11
 252 529 252 529 242 520 c 128,-1,12
 232 511 232 511 225 479 c 2,13,-1
 193 329 l 2,14,15
 185 291 185 291 167.5 273 c 128,-1,16
 150 255 150 255 122 248 c 1,17,-1
 122 246 l 1,18,19
 147 240 147 240 157 221.5 c 128,-1,20
 167 203 167 203 159 165 c 2,21,-1
 127 15 l 2,22,23
 120 -17 120 -17 126 -26 c 128,-1,24
 132 -35 132 -35 147 -35 c 2,25,-1
 185 -35 l 1,26,-1
 179 -63 l 1,27,-1
 132 -63 l 2,28,29
 100 -63 100 -63 87.5 -40.5 c 128,-1,30
 75 -18 75 -18 84 24 c 2,31,-1
 115 172 l 2,32,33
 121 201 121 201 114.5 217.5 c 128,-1,34
 108 234 108 234 82 234 c 1,35,-1
 88 260 l 1,0,1
EndSplineSet
EndChar
StartChar: bar
Encoding: 124 124 93
Width: 169
Flags: W
Fore
182 557 m 1,0,-1
 223 557 l 1,1,-1
 103 -8 l 1,2,-1
 62 -8 l 1,3,-1
 182 557 l 1,0,-1
EndSplineSet
EndChar
StartChar: braceright
Encoding: 125 125 94
Width: 253
Flags: W
Fore
268 234 m 1,0,1
 242 234 242 234 229 217.5 c 128,-1,2
 216 201 216 201 210 172 c 2,3,-1
 179 24 l 2,4,5
 170 -18 170 -18 147.5 -40.5 c 128,-1,6
 125 -63 125 -63 93 -63 c 2,7,-1
 46 -63 l 1,8,-1
 52 -35 l 1,9,-1
 90 -35 l 2,10,11
 105 -35 105 -35 114.5 -26 c 128,-1,12
 124 -17 124 -17 131 15 c 2,13,-1
 163 165 l 2,14,15
 171 203 171 203 189 221.5 c 128,-1,16
 207 240 207 240 235 246 c 1,17,-1
 235 248 l 1,18,19
 210 255 210 255 199.5 273 c 128,-1,20
 189 291 189 291 197 329 c 2,21,-1
 229 479 l 2,22,23
 236 511 236 511 230.5 520 c 128,-1,24
 225 529 225 529 210 529 c 2,25,-1
 172 529 l 1,26,-1
 178 557 l 1,27,-1
 225 557 l 2,28,29
 257 557 257 557 269.5 534.5 c 128,-1,30
 282 512 282 512 273 470 c 2,31,-1
 242 322 l 2,32,33
 236 293 236 293 242 276.5 c 128,-1,34
 248 260 248 260 274 260 c 1,35,-1
 268 234 l 1,0,1
EndSplineSet
EndChar
StartChar: asciitilde
Encoding: 126 126 95
Width: 456
Flags: W
Fore
462 215 m 1,0,1
 444 191 444 191 416.5 171 c 128,-1,2
 389 151 389 151 346 151 c 0,3,4
 326 151 326 151 304.5 158 c 128,-1,5
 283 165 283 165 261 176 c 0,6,7
 240 185 240 185 219.5 193 c 128,-1,8
 199 201 199 201 182 201 c 0,9,10
 157 201 157 201 137 184.5 c 128,-1,11
 117 168 117 168 98 148 c 1,12,-1
 77 181 l 1,13,14
 94 204 94 204 122.5 224 c 128,-1,15
 151 244 151 244 193 244 c 0,16,17
 213 244 213 244 234.5 237 c 128,-1,18
 256 230 256 230 278 219 c 0,19,20
 298 210 298 210 319 202 c 128,-1,21
 340 194 340 194 357 194 c 0,22,23
 382 194 382 194 402 210.5 c 128,-1,24
 422 227 422 227 441 247 c 1,25,-1
 462 215 l 1,0,1
EndSplineSet
EndChar
StartChar: uni0E33.alt1
Encoding: 65537 -1 96
Width: 335
Flags: W
Fore
-47 534 m 256,0,1
 -53 506 -53 506 -76.5 486.5 c 128,-1,2
 -100 467 -100 467 -128 467 c 256,3,4
 -156 467 -156 467 -171.5 486.5 c 128,-1,5
 -187 506 -187 506 -181 534 c 256,6,7
 -175 562 -175 562 -151.5 581.5 c 128,-1,8
 -128 601 -128 601 -100 601 c 256,9,10
 -72 601 -72 601 -56.5 581.5 c 128,-1,11
 -41 562 -41 562 -47 534 c 256,0,1
-80 534 m 256,12,13
 -77 548 -77 548 -85 558 c 128,-1,14
 -93 568 -93 568 -107 568 c 256,15,16
 -121 568 -121 568 -133 558 c 128,-1,17
 -145 548 -145 548 -148 534 c 256,18,19
 -151 520 -151 520 -143 510 c 128,-1,20
 -135 500 -135 500 -121 500 c 256,21,22
 -107 500 -107 500 -95 510 c 128,-1,23
 -83 520 -83 520 -80 534 c 256,12,13
227 0 m 1,24,25
 234 31 234 31 240 60 c 0,26,27
 245 85 245 85 250.5 111 c 128,-1,28
 256 137 256 137 259 153 c 0,29,30
 266 185 266 185 274.5 214 c 128,-1,31
 283 243 283 243 291 278 c 0,32,33
 298 311 298 311 291.5 329.5 c 128,-1,34
 285 348 285 348 273.5 357 c 128,-1,35
 262 366 262 366 249.5 368.5 c 128,-1,36
 237 371 237 371 231 371 c 0,37,38
 196 371 196 371 165 353 c 128,-1,39
 134 335 134 335 102 305 c 0,40,41
 97 299 97 299 86.5 306 c 128,-1,42
 76 313 76 313 69 326 c 1,43,44
 81 339 81 339 101 353 c 128,-1,45
 121 367 121 367 144 379 c 128,-1,46
 167 391 167 391 190.5 398.5 c 128,-1,47
 214 406 214 406 233 406 c 0,48,49
 290 406 290 406 317.5 377 c 128,-1,50
 345 348 345 348 331 278 c 0,51,52
 323 246 323 246 315.5 217.5 c 128,-1,53
 308 189 308 189 301 158 c 0,54,55
 299 147 299 147 294.5 126 c 128,-1,56
 290 105 290 105 286 82.5 c 128,-1,57
 282 60 282 60 278.5 41 c 128,-1,58
 275 22 275 22 275 14 c 0,59,60
 275 4 275 4 272.5 2 c 128,-1,61
 270 0 270 0 266 0 c 2,62,-1
 227 0 l 1,63,-1
 227 0 l 1,24,25
EndSplineSet
EndChar
StartChar: exclamdown
Encoding: 161 161 100
Width: 169
Flags: W
Fore
18 -154 m 1,0,-1
 114 226 l 1,1,-1
 152 226 l 1,2,-1
 84 -154 l 1,3,-1
 18 -154 l 1,0,-1
200 395 m 1,4,-1
 186 327 l 1,5,-1
 120 327 l 1,6,-1
 134 395 l 1,7,-1
 200 395 l 1,4,-1
EndSplineSet
EndChar
StartChar: cent
Encoding: 162 162 101
Width: 423
Flags: W
Fore
296 339 m 1,0,1
 288 341 288 341 281.5 343 c 128,-1,2
 275 345 275 345 267 345 c 0,3,4
 242 345 242 345 219.5 336.5 c 128,-1,5
 197 328 197 328 178.5 309 c 128,-1,6
 160 290 160 290 145.5 259.5 c 128,-1,7
 131 229 131 229 122 185 c 0,8,9
 100 82 100 82 143 45 c 1,10,-1
 296 339 l 1,0,1
171 29 m 1,11,12
 182 26 182 26 199 26 c 0,13,14
 244 26 244 26 271 45 c 128,-1,15
 298 64 298 64 318 98 c 1,16,-1
 348 82 l 1,17,18
 325 45 325 45 287.5 19 c 128,-1,19
 250 -7 250 -7 192 -7 c 0,20,21
 171 -7 171 -7 154 -2 c 1,22,-1
 111 -81 l 1,23,-1
 75 -81 l 1,24,-1
 125 10 l 1,25,26
 90 32 90 32 77.5 72.5 c 128,-1,27
 65 113 65 113 81 185 c 0,28,29
 92 238 92 238 111 274.5 c 128,-1,30
 130 311 130 311 155 333.5 c 128,-1,31
 180 356 180 356 210 366.5 c 128,-1,32
 240 377 240 377 274 377 c 0,33,34
 294 377 294 377 312 371 c 1,35,-1
 352 443 l 1,36,-1
 388 443 l 1,37,-1
 340 357 l 1,38,39
 376 331 376 331 380 281 c 1,40,-1
 341 271 l 1,41,42
 336 300 336 300 321 320 c 1,43,-1
 171 29 l 1,11,12
EndSplineSet
EndChar
StartChar: sterling
Encoding: 163 163 102
Width: 423
Flags: W
Fore
20 45 m 1,0,1
 43 51 43 51 60.5 64.5 c 128,-1,2
 78 78 78 78 91.5 96.5 c 128,-1,3
 105 115 105 115 113.5 137 c 128,-1,4
 122 159 122 159 127 181 c 0,5,6
 129 192 129 192 130 203.5 c 128,-1,7
 131 215 131 215 133 226 c 1,8,-1
 58 226 l 1,9,-1
 64 258 l 1,10,-1
 135 258 l 1,11,12
 138 283 138 283 140 307.5 c 128,-1,13
 142 332 142 332 147 357 c 0,14,15
 161 419 161 419 205 456 c 128,-1,16
 249 493 249 493 311 493 c 0,17,18
 369 493 369 493 399.5 459.5 c 128,-1,19
 430 426 430 426 428 369 c 1,20,-1
 382 355 l 1,21,22
 381 400 381 400 365.5 425.5 c 128,-1,23
 350 451 350 451 302 451 c 0,24,25
 253 451 253 451 227.5 425.5 c 128,-1,26
 202 400 202 400 192 355 c 0,27,28
 187 330 187 330 184.5 305.5 c 128,-1,29
 182 281 182 281 181 258 c 1,30,-1
 279 258 l 1,31,-1
 273 226 l 1,32,-1
 179 226 l 1,33,-1
 173 190 l 2,34,35
 166 157 166 157 155.5 131.5 c 128,-1,36
 145 106 145 106 125 76 c 1,37,38
 145 61 145 61 174 47.5 c 128,-1,39
 203 34 203 34 232 34 c 0,40,41
 252 34 252 34 267 37.5 c 128,-1,42
 282 41 282 41 294.5 50.5 c 128,-1,43
 307 60 307 60 318.5 77 c 128,-1,44
 330 94 330 94 342 120 c 1,45,-1
 383 112 l 1,46,47
 360 55 360 55 323 24 c 128,-1,48
 286 -7 286 -7 230 -7 c 0,49,50
 206 -7 206 -7 188 -2.5 c 128,-1,51
 170 2 170 2 155 9.5 c 128,-1,52
 140 17 140 17 127 26 c 128,-1,53
 114 35 114 35 100 45 c 1,54,55
 82 26 82 26 57.5 12 c 128,-1,56
 33 -2 33 -2 9 -7 c 1,57,-1
 20 45 l 1,0,1
EndSplineSet
EndChar
StartChar: currency
Encoding: 164 164 103
Width: 423
Flags: W
Fore
485 404 m 1,0,-1
 436 363 l 1,1,2
 452 337 452 337 455.5 307 c 128,-1,3
 459 277 459 277 452 245 c 0,4,5
 444 213 444 213 428 182 c 128,-1,6
 412 151 412 151 385 126 c 1,7,-1
 418 85 l 1,8,-1
 382 56 l 1,9,-1
 349 97 l 1,10,11
 288 56 288 56 222 56 c 0,12,13
 190 56 190 56 162 66.5 c 128,-1,14
 134 77 134 77 114 97 c 1,15,-1
 62 56 l 1,16,-1
 41 85 l 1,17,-1
 90 126 l 1,18,19
 73 151 73 151 70 182 c 128,-1,20
 67 213 67 213 75 245 c 0,21,22
 82 277 82 277 97.5 307 c 128,-1,23
 113 337 113 337 141 363 c 1,24,-1
 108 404 l 1,25,-1
 143 433 l 1,26,-1
 177 391 l 1,27,28
 206 412 206 412 238.5 422.5 c 128,-1,29
 271 433 271 433 303 433 c 0,30,31
 370 433 370 433 412 391 c 1,32,-1
 463 433 l 1,33,-1
 485 404 l 1,0,-1
230 93 m 0,34,35
 261 93 261 93 290.5 105 c 128,-1,36
 320 117 320 117 344.5 138 c 128,-1,37
 369 159 369 159 386.5 186.5 c 128,-1,38
 404 214 404 214 411 245 c 0,39,40
 417 275 417 275 411.5 302.5 c 128,-1,41
 406 330 406 330 390 351 c 128,-1,42
 374 372 374 372 350 384.5 c 128,-1,43
 326 397 326 397 295 397 c 0,44,45
 265 397 265 397 235.5 384.5 c 128,-1,46
 206 372 206 372 181.5 351 c 128,-1,47
 157 330 157 330 139.5 302.5 c 128,-1,48
 122 275 122 275 116 245 c 0,49,50
 109 214 109 214 114.5 186.5 c 128,-1,51
 120 159 120 159 135.5 138 c 128,-1,52
 151 117 151 117 175.5 105 c 128,-1,53
 200 93 200 93 230 93 c 0,34,35
EndSplineSet
EndChar
StartChar: yen
Encoding: 165 165 104
Width: 423
Flags: W
Fore
391 264 m 1,0,-1
 298 264 l 1,1,-1
 250 206 l 1,2,-1
 248 197 l 1,3,-1
 366 197 l 1,4,-1
 360 165 l 1,5,-1
 242 165 l 1,6,-1
 207 0 l 1,7,-1
 162 0 l 1,8,-1
 197 165 l 1,9,-1
 78 165 l 1,10,-1
 84 197 l 1,11,-1
 203 197 l 1,12,-1
 205 206 l 1,13,-1
 184 264 l 1,14,-1
 89 264 l 1,15,-1
 95 296 l 1,16,-1
 173 296 l 1,17,-1
 102 486 l 1,18,-1
 149 486 l 1,19,-1
 235 245 l 1,20,-1
 432 486 l 1,21,-1
 478 486 l 1,22,-1
 321 296 l 1,23,-1
 397 296 l 1,24,-1
 391 264 l 1,0,-1
EndSplineSet
EndChar
StartChar: brokenbar
Encoding: 166 166 105
Width: 169
Flags: W
Fore
107 205 m 1,0,-1
 148 205 l 1,1,-1
 103 -8 l 1,2,-1
 62 -8 l 1,3,-1
 107 205 l 1,0,-1
182 557 m 1,4,-1
 223 557 l 1,5,-1
 178 344 l 1,6,-1
 137 344 l 1,7,-1
 182 557 l 1,4,-1
EndSplineSet
EndChar
StartChar: section
Encoding: 167 167 106
Width: 366
Flags: W
Fore
359 398 m 1,0,1
 351 426 351 426 334 442 c 128,-1,2
 317 458 317 458 285 458 c 0,3,4
 259 458 259 458 240.5 448.5 c 128,-1,5
 222 439 222 439 215 407 c 0,6,7
 211 391 211 391 222 375.5 c 128,-1,8
 233 360 233 360 250 344 c 128,-1,9
 267 328 267 328 287.5 310.5 c 128,-1,10
 308 293 308 293 325 273 c 128,-1,11
 342 253 342 253 351 230 c 128,-1,12
 360 207 360 207 354 180 c 0,13,14
 346 141 346 141 318 122 c 128,-1,15
 290 103 290 103 254 100 c 1,16,17
 267 80 267 80 275.5 63 c 128,-1,18
 284 46 284 46 279 19 c 0,19,20
 274 -4 274 -4 261.5 -19 c 128,-1,21
 249 -34 249 -34 232.5 -43.5 c 128,-1,22
 216 -53 216 -53 196 -57 c 128,-1,23
 176 -61 176 -61 156 -61 c 0,24,25
 121 -61 121 -61 94 -41.5 c 128,-1,26
 67 -22 67 -22 60 10 c 1,27,-1
 95 30 l 1,28,29
 100 6 100 6 118 -11 c 128,-1,30
 136 -28 136 -28 163 -28 c 0,31,32
 195 -28 195 -28 215 -16.5 c 128,-1,33
 235 -5 235 -5 242 24 c 0,34,35
 245 38 245 38 234.5 53.5 c 128,-1,36
 224 69 224 69 207 87 c 128,-1,37
 190 105 190 105 170 124.5 c 128,-1,38
 150 144 150 144 133.5 165.5 c 128,-1,39
 117 187 117 187 108 209.5 c 128,-1,40
 99 232 99 232 104 256 c 0,41,42
 112 293 112 293 141 310.5 c 128,-1,43
 170 328 170 328 207 328 c 1,44,-1
 210 330 l 1,45,46
 193 344 193 344 182.5 363.5 c 128,-1,47
 172 383 172 383 178 413 c 0,48,49
 186 452 186 452 218.5 472 c 128,-1,50
 251 492 251 492 296 492 c 0,51,52
 335 492 335 492 359.5 472 c 128,-1,53
 384 452 384 452 393 417 c 1,54,-1
 359 398 l 1,0,1
201 304 m 256,55,56
 184 304 184 304 165.5 291.5 c 128,-1,57
 147 279 147 279 143 259 c 0,58,59
 139 240 139 240 150.5 216.5 c 128,-1,60
 162 193 162 193 180.5 172.5 c 128,-1,61
 199 152 199 152 219 138 c 128,-1,62
 239 124 239 124 252 124 c 0,63,64
 276 124 276 124 293 139.5 c 128,-1,65
 310 155 310 155 315 178 c 0,66,67
 319 195 319 195 308 216.5 c 128,-1,68
 297 238 297 238 279 257.5 c 128,-1,69
 261 277 261 277 239.5 290.5 c 128,-1,70
 218 304 218 304 201 304 c 256,55,56
EndSplineSet
EndChar
StartChar: dieresis
Encoding: 168 168 107
Width: 169
Flags: W
Fore
160 519 m 1,0,-1
 145 447 l 1,1,-1
 95 447 l 1,2,-1
 110 519 l 1,3,-1
 160 519 l 1,0,-1
279 519 m 1,4,-1
 264 447 l 1,5,-1
 214 447 l 1,6,-1
 229 519 l 1,7,-1
 279 519 l 1,4,-1
EndSplineSet
EndChar
StartChar: copyright
Encoding: 169 169 108
Width: 608
Flags: W
Fore
373 493 m 256,0,1
 425 493 425 493 466 473 c 128,-1,2
 507 453 507 453 534 419 c 128,-1,3
 561 385 561 385 571 339.5 c 128,-1,4
 581 294 581 294 570 243 c 256,5,6
 559 192 559 192 530 146.5 c 128,-1,7
 501 101 501 101 459.5 67 c 128,-1,8
 418 33 418 33 368.5 13 c 128,-1,9
 319 -7 319 -7 267 -7 c 256,10,11
 215 -7 215 -7 174 13 c 128,-1,12
 133 33 133 33 106 67 c 128,-1,13
 79 101 79 101 69 146.5 c 128,-1,14
 59 192 59 192 70 243 c 256,15,16
 81 294 81 294 110 339.5 c 128,-1,17
 139 385 139 385 180.5 419 c 128,-1,18
 222 453 222 453 271.5 473 c 128,-1,19
 321 493 321 493 373 493 c 256,0,1
274 27 m 256,20,21
 319 27 319 27 361 44 c 128,-1,22
 403 61 403 61 437.5 90 c 128,-1,23
 472 119 472 119 496.5 158.5 c 128,-1,24
 521 198 521 198 530 243 c 0,25,26
 540 288 540 288 532.5 327.5 c 128,-1,27
 525 367 525 367 503 396 c 128,-1,28
 481 425 481 425 446 442 c 128,-1,29
 411 459 411 459 366 459 c 256,30,31
 321 459 321 459 279.5 442 c 128,-1,32
 238 425 238 425 203.5 396 c 128,-1,33
 169 367 169 367 144.5 327.5 c 128,-1,34
 120 288 120 288 110 243 c 0,35,36
 101 198 101 198 108.5 158.5 c 128,-1,37
 116 119 116 119 138 90 c 128,-1,38
 160 61 160 61 194.5 44 c 128,-1,39
 229 27 229 27 274 27 c 256,20,21
442 192 m 1,40,41
 422 144 422 144 382.5 114.5 c 128,-1,42
 343 85 343 85 295 85 c 0,43,44
 260 85 260 85 234.5 97 c 128,-1,45
 209 109 209 109 194 130.5 c 128,-1,46
 179 152 179 152 174.5 181 c 128,-1,47
 170 210 170 210 177 244 c 256,48,49
 184 278 184 278 200.5 306.5 c 128,-1,50
 217 335 217 335 240.5 356 c 128,-1,51
 264 377 264 377 294 389 c 128,-1,52
 324 401 324 401 359 401 c 0,53,54
 409 401 409 401 439 374 c 128,-1,55
 469 347 469 347 464 296 c 1,56,-1
 428 296 l 1,57,58
 429 325 429 325 410 346 c 128,-1,59
 391 367 391 367 353 367 c 0,60,61
 327 367 327 367 304.5 357.5 c 128,-1,62
 282 348 282 348 264 331 c 128,-1,63
 246 314 246 314 234 292 c 128,-1,64
 222 270 222 270 216 244 c 0,65,66
 211 220 211 220 214.5 197 c 128,-1,67
 218 174 218 174 229 157 c 128,-1,68
 240 140 240 140 258.5 129.5 c 128,-1,69
 277 119 277 119 302 119 c 0,70,71
 338 119 338 119 366 140 c 128,-1,72
 394 161 394 161 406 192 c 1,73,-1
 442 192 l 1,40,41
EndSplineSet
EndChar
StartChar: ordfeminine
Encoding: 170 170 109
Width: 228
Flags: W
Fore
128 504 m 1,0,1
 151 533 151 533 176.5 545 c 128,-1,2
 202 557 202 557 238 557 c 0,3,4
 281 557 281 557 296.5 539.5 c 128,-1,5
 312 522 312 522 304 484 c 2,6,-1
 279 365 l 2,7,8
 275 348 275 348 274 338.5 c 128,-1,9
 273 329 273 329 274 316 c 1,10,-1
 240 316 l 1,11,-1
 242 345 l 1,12,13
 219 328 219 328 197.5 320 c 128,-1,14
 176 312 176 312 147 312 c 0,15,16
 116 312 116 312 99 328 c 128,-1,17
 82 344 82 344 89 373 c 0,18,19
 95 403 95 403 116 420.5 c 128,-1,20
 137 438 137 438 163.5 448 c 128,-1,21
 190 458 190 458 217.5 463 c 128,-1,22
 245 468 245 468 264 473 c 1,23,-1
 268 492 l 2,24,25
 271 507 271 507 263 516.5 c 128,-1,26
 255 526 255 526 227 526 c 0,27,28
 202 526 202 526 184 517 c 128,-1,29
 166 508 166 508 148 488 c 1,30,-1
 128 504 l 1,0,1
257 441 m 1,31,32
 244 437 244 437 223.5 432.5 c 128,-1,33
 203 428 203 428 182.5 420.5 c 128,-1,34
 162 413 162 413 146.5 402 c 128,-1,35
 131 391 131 391 127 374 c 0,36,37
 124 360 124 360 132 351 c 128,-1,38
 140 342 140 342 158 342 c 0,39,40
 178 342 178 342 202.5 351.5 c 128,-1,41
 227 361 227 361 244 377 c 1,42,-1
 257 441 l 1,31,32
EndSplineSet
EndChar
StartChar: guillemotleft
Encoding: 171 171 110
Width: 380
Flags: W
Fore
264 200 m 1,0,-1
 334 81 l 1,1,-1
 285 81 l 1,2,-1
 217 200 l 1,3,-1
 334 314 l 1,4,-1
 383 314 l 1,5,-1
 264 200 l 1,0,-1
152 200 m 1,6,-1
 221 81 l 1,7,-1
 171 81 l 1,8,-1
 105 200 l 1,9,-1
 220 314 l 1,10,-1
 270 314 l 1,11,-1
 152 200 l 1,6,-1
EndSplineSet
EndChar
StartChar: logicalnot
Encoding: 172 172 111
Width: 456
Flags: W
Fore
430 213 m 1,0,-1
 75 213 l 1,1,-1
 84 255 l 1,2,-1
 480 255 l 1,3,-1
 443 81 l 1,4,-1
 402 81 l 1,5,-1
 430 213 l 1,0,-1
EndSplineSet
EndChar
StartChar: registered
Encoding: 174 174 112
Width: 608
Flags: W
Fore
236 94 m 1,0,-1
 196 94 l 1,1,-1
 260 391 l 1,2,-1
 373 391 l 2,3,4
 424 391 424 391 441.5 370 c 128,-1,5
 459 349 459 349 451 309 c 0,6,7
 447 290 447 290 438 275.5 c 128,-1,8
 429 261 429 261 417 251 c 128,-1,9
 405 241 405 241 392 235.5 c 128,-1,10
 379 230 379 230 366 227 c 1,11,-1
 419 94 l 1,12,-1
 374 94 l 1,13,-1
 322 227 l 1,14,-1
 265 227 l 1,15,-1
 236 94 l 1,0,-1
318 260 m 2,16,17
 333 260 333 260 347.5 260.5 c 128,-1,18
 362 261 362 261 374.5 265.5 c 128,-1,19
 387 270 387 270 396.5 280.5 c 128,-1,20
 406 291 406 291 410 310 c 0,21,22
 413 325 413 325 409.5 334.5 c 128,-1,23
 406 344 406 344 398.5 349.5 c 128,-1,24
 391 355 391 355 380 356.5 c 128,-1,25
 369 358 369 358 357 358 c 2,26,-1
 293 358 l 1,27,-1
 272 260 l 1,28,-1
 318 260 l 2,16,17
373 493 m 256,29,30
 425 493 425 493 466 473 c 128,-1,31
 507 453 507 453 534 419 c 128,-1,32
 561 385 561 385 571 339.5 c 128,-1,33
 581 294 581 294 570 243 c 256,34,35
 559 192 559 192 530 146.5 c 128,-1,36
 501 101 501 101 459.5 67 c 128,-1,37
 418 33 418 33 368.5 13 c 128,-1,38
 319 -7 319 -7 267 -7 c 256,39,40
 215 -7 215 -7 174 13 c 128,-1,41
 133 33 133 33 106 67 c 128,-1,42
 79 101 79 101 69 146.5 c 128,-1,43
 59 192 59 192 70 243 c 256,44,45
 81 294 81 294 110 339.5 c 128,-1,46
 139 385 139 385 180.5 419 c 128,-1,47
 222 453 222 453 271.5 473 c 128,-1,48
 321 493 321 493 373 493 c 256,29,30
274 27 m 256,49,50
 319 27 319 27 361 44 c 128,-1,51
 403 61 403 61 437.5 90 c 128,-1,52
 472 119 472 119 496.5 158.5 c 128,-1,53
 521 198 521 198 530 243 c 0,54,55
 540 288 540 288 532.5 327.5 c 128,-1,56
 525 367 525 367 503 396 c 128,-1,57
 481 425 481 425 446 442 c 128,-1,58
 411 459 411 459 366 459 c 256,59,60
 321 459 321 459 279.5 442 c 128,-1,61
 238 425 238 425 203.5 396 c 128,-1,62
 169 367 169 367 144.5 327.5 c 128,-1,63
 120 288 120 288 110 243 c 0,64,65
 101 198 101 198 108.5 158.5 c 128,-1,66
 116 119 116 119 138 90 c 128,-1,67
 160 61 160 61 194.5 44 c 128,-1,68
 229 27 229 27 274 27 c 256,49,50
EndSplineSet
EndChar
StartChar: macron
Encoding: 175 175 113
Width: 169
Flags: W
Fore
77 503 m 1,0,-1
 303 503 l 1,1,-1
 296 469 l 1,2,-1
 70 469 l 1,3,-1
 77 503 l 1,0,-1
EndSplineSet
EndChar
StartChar: degree
Encoding: 176 176 114
Width: 304
Flags: W
Fore
263 524 m 256,0,1
 229 524 229 524 203.5 501.5 c 128,-1,2
 178 479 178 479 170 446 c 0,3,4
 163 412 163 412 179.5 389.5 c 128,-1,5
 196 367 196 367 230 367 c 256,6,7
 264 367 264 367 289.5 389.5 c 128,-1,8
 315 412 315 412 322 446 c 0,9,10
 330 479 330 479 313.5 501.5 c 128,-1,11
 297 524 297 524 263 524 c 256,0,1
270 557 m 256,12,13
 294 557 294 557 312 548 c 128,-1,14
 330 539 330 539 342 524 c 128,-1,15
 354 509 354 509 358 489 c 128,-1,16
 362 469 362 469 357 446 c 256,17,18
 352 423 352 423 339 402.5 c 128,-1,19
 326 382 326 382 308 367 c 128,-1,20
 290 352 290 352 268 343 c 128,-1,21
 246 334 246 334 222 334 c 0,22,23
 174 334 174 334 149.5 366.5 c 128,-1,24
 125 399 125 399 135 446 c 0,25,26
 140 469 140 469 153 489 c 128,-1,27
 166 509 166 509 184 524 c 128,-1,28
 202 539 202 539 224 548 c 128,-1,29
 246 557 246 557 270 557 c 256,12,13
EndSplineSet
EndChar
StartChar: plusminus
Encoding: 177 177 115
Width: 456
Flags: W
Fore
290 395 m 1,0,-1
 332 395 l 1,1,-1
 303 255 l 1,2,-1
 480 255 l 1,3,-1
 471 214 l 1,4,-1
 294 214 l 1,5,-1
 264 73 l 1,6,-1
 222 73 l 1,7,-1
 252 214 l 1,8,-1
 75 214 l 1,9,-1
 84 255 l 1,10,-1
 261 255 l 1,11,-1
 290 395 l 1,0,-1
38 41 m 1,12,-1
 434 41 l 1,13,-1
 426 0 l 1,14,-1
 30 0 l 1,15,-1
 38 41 l 1,12,-1
EndSplineSet
EndChar
StartChar: twosuperior
Encoding: 178 178 116
Width: 231
Flags: W
Fore
105 409 m 1,0,1
 122 449 122 449 154 471 c 128,-1,2
 186 493 186 493 228 493 c 256,3,4
 270 493 270 493 290 470 c 128,-1,5
 310 447 310 447 302 405 c 0,6,7
 298 384 298 384 286 369 c 128,-1,8
 274 354 274 354 258 341.5 c 128,-1,9
 242 329 242 329 223 318 c 128,-1,10
 204 307 204 307 185 295 c 0,11,12
 142 267 142 267 121.5 252.5 c 128,-1,13
 101 238 101 238 97 227 c 1,14,-1
 263 227 l 1,15,-1
 256 196 l 1,16,-1
 56 196 l 1,17,-1
 61 219 l 2,18,19
 63 228 63 228 67 236.5 c 128,-1,20
 71 245 71 245 82 256 c 128,-1,21
 93 267 93 267 112 281 c 128,-1,22
 131 295 131 295 163 314 c 0,23,24
 193 332 193 332 212.5 345 c 128,-1,25
 232 358 232 358 243 368.5 c 128,-1,26
 254 379 254 379 259.5 388.5 c 128,-1,27
 265 398 265 398 267 408 c 0,28,29
 272 433 272 433 261 448 c 128,-1,30
 250 463 250 463 224 463 c 0,31,32
 194 463 194 463 171.5 449 c 128,-1,33
 149 435 149 435 135 404 c 1,34,-1
 105 409 l 1,0,1
EndSplineSet
EndChar
StartChar: threesuperior
Encoding: 179 179 117
Width: 244
Flags: W
Fore
97 266 m 1,0,1
 107 240 107 240 122.5 231 c 128,-1,2
 138 222 138 222 170 222 c 0,3,4
 205 222 205 222 226 237 c 128,-1,5
 247 252 247 252 253 278 c 0,6,7
 259 309 259 309 240 322.5 c 128,-1,8
 221 336 221 336 180 336 c 2,9,-1
 151 336 l 1,10,-1
 157 366 l 1,11,-1
 181 366 l 2,12,13
 219 366 219 366 242.5 378 c 128,-1,14
 266 390 266 390 273 419 c 0,15,16
 277 439 277 439 262 451 c 128,-1,17
 247 463 247 463 224 463 c 0,18,19
 198 463 198 463 182 457 c 128,-1,20
 166 451 166 451 146 429 c 1,21,-1
 124 445 l 1,22,23
 149 471 149 471 174 482 c 128,-1,24
 199 493 199 493 228 493 c 0,25,26
 246 493 246 493 262 488.5 c 128,-1,27
 278 484 278 484 289.5 475 c 128,-1,28
 301 466 301 466 306.5 452.5 c 128,-1,29
 312 439 312 439 308 421 c 0,30,31
 303 396 303 396 291 379.5 c 128,-1,32
 279 363 279 363 248 352 c 1,33,34
 273 344 273 344 283.5 326.5 c 128,-1,35
 294 309 294 309 288 278 c 0,36,37
 278 232 278 232 243.5 212.5 c 128,-1,38
 209 193 209 193 162 193 c 0,39,40
 124 193 124 193 99 207 c 128,-1,41
 74 221 74 221 68 250 c 1,42,-1
 97 266 l 1,0,1
EndSplineSet
EndChar
StartChar: acute
Encoding: 180 180 118
Width: 169
Flags: W
Fore
295 544 m 1,0,-1
 168 439 l 1,1,-1
 129 439 l 1,2,-1
 236 544 l 1,3,-1
 295 544 l 1,0,-1
EndSplineSet
EndChar
StartChar: mu
Encoding: 181 181 119
Width: 423
Flags: W
Fore
443 395 m 1,0,-1
 360 0 l 1,1,-1
 314 0 l 1,2,-1
 327 63 l 1,3,4
 288 29 288 29 255 10.5 c 128,-1,5
 222 -8 222 -8 178 -8 c 0,6,7
 131 -8 131 -8 110 10 c 1,8,-1
 78 -140 l 1,9,-1
 33 -140 l 1,10,-1
 146 395 l 1,11,-1
 191 395 l 1,12,-1
 135 130 l 2,13,14
 124 81 124 81 136 55 c 128,-1,15
 148 29 148 29 194 29 c 0,16,17
 213 29 213 29 229 34.5 c 128,-1,18
 245 40 245 40 261.5 50 c 128,-1,19
 278 60 278 60 296 74 c 128,-1,20
 314 88 314 88 336 105 c 1,21,-1
 397 395 l 1,22,-1
 443 395 l 1,0,-1
EndSplineSet
EndChar
StartChar: paragraph
Encoding: 182 182 120
Width: 380
Flags: W
Fore
223 256 m 1,0,1
 190 256 190 256 164 267.5 c 128,-1,2
 138 279 138 279 121 298.5 c 128,-1,3
 104 318 104 318 97.5 344 c 128,-1,4
 91 370 91 370 97 400 c 0,5,6
 112 472 112 472 164.5 510.5 c 128,-1,7
 217 549 217 549 297 549 c 2,8,-1
 498 549 l 1,9,-1
 491 515 l 1,10,-1
 434 515 l 1,11,-1
 312 -61 l 1,12,-1
 274 -61 l 1,13,-1
 396 515 l 1,14,-1
 316 515 l 1,15,-1
 194 -61 l 1,16,-1
 156 -61 l 1,17,-1
 223 256 l 1,0,1
EndSplineSet
EndChar
StartChar: periodcentered
Encoding: 183 183 121
Width: 211
Flags: W
Fore
155 236 m 0,0,1
 170 236 170 236 179 225 c 128,-1,2
 188 214 188 214 185 198 c 0,3,4
 181 182 181 182 167.5 171 c 128,-1,5
 154 160 154 160 139 160 c 0,6,7
 125 160 125 160 115 171 c 128,-1,8
 105 182 105 182 109 198 c 0,9,10
 112 214 112 214 126.5 225 c 128,-1,11
 141 236 141 236 155 236 c 0,0,1
EndSplineSet
EndChar
StartChar: cedilla
Encoding: 184 184 122
Width: 169
Flags: W
Fore
-14 -116 m 1,0,1
 -5 -119 -5 -119 7 -123 c 128,-1,2
 19 -127 19 -127 28 -127 c 0,3,4
 54 -127 54 -127 67 -120.5 c 128,-1,5
 80 -114 80 -114 84 -97 c 256,6,7
 88 -80 88 -80 78.5 -73 c 128,-1,8
 69 -66 69 -66 56 -66 c 0,9,10
 37 -66 37 -66 22 -72 c 1,11,-1
 13 -63 l 1,12,-1
 72 0 l 1,13,-1
 101 0 l 1,14,-1
 59 -38 l 1,15,-1
 61 -40 l 1,16,17
 69 -35 69 -35 85 -35 c 0,18,19
 113 -35 113 -35 125.5 -52 c 128,-1,20
 138 -69 138 -69 131 -99 c 0,21,22
 128 -114 128 -114 118 -125 c 128,-1,23
 108 -136 108 -136 94.5 -143.5 c 128,-1,24
 81 -151 81 -151 66 -154.5 c 128,-1,25
 51 -158 51 -158 39 -158 c 0,26,27
 20 -158 20 -158 2.5 -154.5 c 128,-1,28
 -15 -151 -15 -151 -30 -143 c 1,29,-1
 -14 -116 l 1,0,1
EndSplineSet
EndChar
StartChar: onesuperior
Encoding: 185 185 123
Width: 263
Flags: W
Fore
108 196 m 1,0,-1
 115 227 l 1,1,-1
 164 227 l 1,2,-1
 213 459 l 1,3,-1
 154 446 l 1,4,-1
 159 470 l 1,5,-1
 228 493 l 1,6,-1
 255 493 l 1,7,-1
 199 227 l 1,8,-1
 251 227 l 1,9,-1
 244 196 l 1,10,-1
 108 196 l 1,0,-1
EndSplineSet
EndChar
StartChar: ordmasculine
Encoding: 186 186 124
Width: 207
Flags: W
Fore
128 384 m 256,0,1
 120 346 120 346 128.5 326.5 c 128,-1,2
 137 307 137 307 169 307 c 256,3,4
 201 307 201 307 217 326.5 c 128,-1,5
 233 346 233 346 241 384 c 256,6,7
 249 422 249 422 241.5 442 c 128,-1,8
 234 462 234 462 202 462 c 256,9,10
 170 462 170 462 153 442 c 128,-1,11
 136 422 136 422 128 384 c 256,0,1
208 493 m 256,12,13
 235 493 235 493 251 484 c 128,-1,14
 267 475 267 475 274.5 460 c 128,-1,15
 282 445 282 445 282.5 425 c 128,-1,16
 283 405 283 405 278 384 c 0,17,18
 274 363 274 363 265 343.5 c 128,-1,19
 256 324 256 324 242 309 c 128,-1,20
 228 294 228 294 208.5 285 c 128,-1,21
 189 276 189 276 162 276 c 256,22,23
 135 276 135 276 119 285 c 128,-1,24
 103 294 103 294 95 309 c 128,-1,25
 87 324 87 324 87 343.5 c 128,-1,26
 87 363 87 363 91 384 c 0,27,28
 96 405 96 405 104.5 425 c 128,-1,29
 113 445 113 445 127 460 c 128,-1,30
 141 475 141 475 161 484 c 128,-1,31
 181 493 181 493 208 493 c 256,12,13
EndSplineSet
EndChar
StartChar: guillemotright
Encoding: 187 187 125
Width: 380
Flags: W
Fore
199 196 m 1,0,-1
 129 314 l 1,1,-1
 178 314 l 1,2,-1
 246 196 l 1,3,-1
 129 81 l 1,4,-1
 80 81 l 1,5,-1
 199 196 l 1,0,-1
311 196 m 1,6,-1
 242 314 l 1,7,-1
 292 314 l 1,8,-1
 358 196 l 1,9,-1
 243 81 l 1,10,-1
 193 81 l 1,11,-1
 311 196 l 1,6,-1
EndSplineSet
EndChar
StartChar: onequarter
Encoding: 188 188 126
Width: 596
Flags: W
Fore
370 99 m 1,0,-1
 474 99 l 1,1,-1
 506 251 l 1,2,-1
 504 251 l 1,3,-1
 370 99 l 1,0,-1
334 103 m 1,4,-1
 506 292 l 1,5,-1
 551 292 l 1,6,-1
 510 99 l 1,7,-1
 557 99 l 1,8,-1
 550 70 l 1,9,-1
 503 70 l 1,10,-1
 489 0 l 1,11,-1
 453 0 l 1,12,-1
 467 70 l 1,13,-1
 327 70 l 1,14,-1
 334 103 l 1,4,-1
107 196 m 1,15,-1
 114 227 l 1,16,-1
 163 227 l 1,17,-1
 212 459 l 1,18,-1
 154 446 l 1,19,-1
 159 470 l 1,20,-1
 227 493 l 1,21,-1
 255 493 l 1,22,-1
 199 227 l 1,23,-1
 250 227 l 1,24,-1
 243 196 l 1,25,-1
 107 196 l 1,15,-1
525 493 m 1,26,-1
 564 493 l 1,27,-1
 160 -7 l 1,28,-1
 121 -7 l 1,29,-1
 525 493 l 1,26,-1
EndSplineSet
Ligature: 0 0 'frac' one fraction four
Ligature: 0 0 'frac' one slash four
EndChar
StartChar: onehalf
Encoding: 189 189 127
Width: 593
Flags: W
Fore
107 196 m 1,0,-1
 114 227 l 1,1,-1
 163 227 l 1,2,-1
 212 459 l 1,3,-1
 154 446 l 1,4,-1
 159 470 l 1,5,-1
 227 493 l 1,6,-1
 255 493 l 1,7,-1
 199 227 l 1,8,-1
 250 227 l 1,9,-1
 243 196 l 1,10,-1
 107 196 l 1,0,-1
381 212 m 1,11,12
 397 252 397 252 429.5 274 c 128,-1,13
 462 296 462 296 504 296 c 256,14,15
 546 296 546 296 566 273.5 c 128,-1,16
 586 251 586 251 577 209 c 0,17,18
 573 188 573 188 561 172.5 c 128,-1,19
 549 157 549 157 533 144.5 c 128,-1,20
 517 132 517 132 498 121 c 128,-1,21
 479 110 479 110 460 98 c 0,22,23
 418 71 418 71 397 56 c 128,-1,24
 376 41 376 41 373 29 c 1,25,-1
 538 29 l 1,26,-1
 532 0 l 1,27,-1
 332 0 l 1,28,-1
 336 22 l 2,29,30
 338 31 338 31 342.5 39.5 c 128,-1,31
 347 48 347 48 357.5 59 c 128,-1,32
 368 70 368 70 387.5 84.5 c 128,-1,33
 407 99 407 99 439 119 c 0,34,35
 469 136 469 136 488 149 c 128,-1,36
 507 162 507 162 518.5 172.5 c 128,-1,37
 530 183 530 183 534.5 192 c 128,-1,38
 539 201 539 201 541 211 c 0,39,40
 546 236 546 236 535.5 251 c 128,-1,41
 525 266 525 266 500 266 c 0,42,43
 437 266 437 266 411 208 c 1,44,-1
 381 212 l 1,11,12
517 493 m 1,45,-1
 555 493 l 1,46,-1
 152 -7 l 1,47,-1
 112 -7 l 1,48,-1
 517 493 l 1,45,-1
EndSplineSet
Ligature: 0 0 'frac' one fraction two
Ligature: 0 0 'frac' one slash two
EndChar
StartChar: threequarters
Encoding: 190 190 128
Width: 595
Flags: W
Fore
369 99 m 1,0,-1
 473 99 l 1,1,-1
 505 251 l 1,2,-1
 503 251 l 1,3,-1
 369 99 l 1,0,-1
333 103 m 1,4,-1
 505 292 l 1,5,-1
 550 292 l 1,6,-1
 509 99 l 1,7,-1
 556 99 l 1,8,-1
 549 70 l 1,9,-1
 502 70 l 1,10,-1
 488 0 l 1,11,-1
 452 0 l 1,12,-1
 466 70 l 1,13,-1
 326 70 l 1,14,-1
 333 103 l 1,4,-1
104 266 m 1,15,16
 112 240 112 240 128 231 c 128,-1,17
 144 222 144 222 174 222 c 0,18,19
 210 222 210 222 231.5 237 c 128,-1,20
 253 252 253 252 259 278 c 0,21,22
 265 309 265 309 245.5 322.5 c 128,-1,23
 226 336 226 336 186 336 c 2,24,-1
 157 336 l 1,25,-1
 163 366 l 1,26,-1
 187 366 l 2,27,28
 225 366 225 366 248.5 378 c 128,-1,29
 272 390 272 390 279 419 c 0,30,31
 283 439 283 439 268.5 451 c 128,-1,32
 254 463 254 463 231 463 c 0,33,34
 204 463 204 463 187.5 457 c 128,-1,35
 171 451 171 451 150 429 c 1,36,-1
 129 445 l 1,37,38
 155 471 155 471 179.5 482 c 128,-1,39
 204 493 204 493 233 493 c 0,40,41
 251 493 251 493 267.5 488.5 c 128,-1,42
 284 484 284 484 295.5 475 c 128,-1,43
 307 466 307 466 312.5 452.5 c 128,-1,44
 318 439 318 439 314 421 c 0,45,46
 309 396 309 396 297 379.5 c 128,-1,47
 285 363 285 363 254 352 c 1,48,49
 279 344 279 344 289.5 326.5 c 128,-1,50
 300 309 300 309 294 278 c 0,51,52
 284 232 284 232 249.5 212.5 c 128,-1,53
 215 193 215 193 168 193 c 0,54,55
 130 193 130 193 105.5 207 c 128,-1,56
 81 221 81 221 73 250 c 1,57,-1
 104 266 l 1,15,16
535 493 m 1,58,-1
 573 493 l 1,59,-1
 171 -7 l 1,60,-1
 131 -7 l 1,61,-1
 535 493 l 1,58,-1
EndSplineSet
Ligature: 0 0 'frac' three fraction four
Ligature: 0 0 'frac' three slash four
EndChar
StartChar: questiondown
Encoding: 191 191 129
Width: 295
Flags: W
Fore
259 -67 m 1,0,1
 234 -110 234 -110 198 -136 c 128,-1,2
 162 -162 162 -162 113 -162 c 0,3,4
 89 -162 89 -162 68 -154 c 128,-1,5
 47 -146 47 -146 33 -130.5 c 128,-1,6
 19 -115 19 -115 14 -91.5 c 128,-1,7
 9 -68 9 -68 15 -37 c 0,8,9
 20 -12 20 -12 34 8.5 c 128,-1,10
 48 29 48 29 66 46.5 c 128,-1,11
 84 64 84 64 104 80 c 128,-1,12
 124 96 124 96 142 113 c 128,-1,13
 160 130 160 130 173.5 149 c 128,-1,14
 187 168 187 168 192 192 c 2,15,-1
 200 228 l 1,16,-1
 241 228 l 1,17,-1
 229 173 l 2,18,19
 223 144 223 144 199 119 c 128,-1,20
 175 94 175 94 147.5 69 c 128,-1,21
 120 44 120 44 95 16 c 128,-1,22
 70 -12 70 -12 62 -48 c 0,23,24
 55 -83 55 -83 73 -101.5 c 128,-1,25
 91 -120 91 -120 123 -120 c 0,26,27
 142 -120 142 -120 157.5 -113.5 c 128,-1,28
 173 -107 173 -107 185.5 -96.5 c 128,-1,29
 198 -86 198 -86 208 -73 c 128,-1,30
 218 -60 218 -60 225 -48 c 1,31,-1
 259 -67 l 1,0,1
290 395 m 1,32,-1
 276 327 l 1,33,-1
 212 327 l 1,34,-1
 226 395 l 1,35,-1
 290 395 l 1,32,-1
EndSplineSet
EndChar
StartChar: AE
Encoding: 198 198 136
Width: 649
Flags: W
Fore
401 42 m 1,0,-1
 634 42 l 1,1,-1
 626 0 l 1,2,-1
 348 0 l 1,3,-1
 377 141 l 1,4,-1
 180 141 l 1,5,-1
 74 0 l 1,6,-1
 20 0 l 1,7,-1
 392 486 l 1,8,-1
 732 486 l 1,9,-1
 723 444 l 1,10,-1
 487 444 l 1,11,-1
 452 280 l 1,12,-1
 658 280 l 1,13,-1
 649 238 l 1,14,-1
 443 238 l 1,15,-1
 401 42 l 1,0,-1
387 185 m 1,16,-1
 442 445 l 1,17,-1
 409 445 l 1,18,-1
 210 185 l 1,19,-1
 387 185 l 1,16,-1
EndSplineSet
EndChar
StartChar: Eth
Encoding: 208 208 146
Width: 467
Flags: W
Fore
28 227 m 1,0,-1
 36 267 l 1,1,-1
 116 267 l 1,2,-1
 163 486 l 1,3,-1
 344 486 l 2,4,5
 397 486 397 486 429.5 470.5 c 128,-1,6
 462 455 462 455 477 423.5 c 128,-1,7
 492 392 492 392 491 345 c 128,-1,8
 490 298 490 298 477 236 c 0,9,10
 465 178 465 178 446.5 133.5 c 128,-1,11
 428 89 428 89 400 59.5 c 128,-1,12
 372 30 372 30 333 15 c 128,-1,13
 294 0 294 0 241 0 c 2,14,-1
 60 0 l 1,15,-1
 108 227 l 1,16,-1
 28 227 l 1,0,-1
317 267 m 1,17,-1
 309 227 l 1,18,-1
 158 227 l 1,19,-1
 118 42 l 1,20,-1
 249 42 l 2,21,22
 291 42 291 42 320 53.5 c 128,-1,23
 349 65 349 65 369.5 88.5 c 128,-1,24
 390 112 390 112 403 148.5 c 128,-1,25
 416 185 416 185 427 236 c 0,26,27
 439 292 439 292 442 331 c 128,-1,28
 445 370 445 370 435 395.5 c 128,-1,29
 425 421 425 421 401 432.5 c 128,-1,30
 377 444 377 444 335 444 c 2,31,-1
 204 444 l 1,32,-1
 166 267 l 1,33,-1
 317 267 l 1,17,-1
EndSplineSet
EndChar
StartChar: multiply
Encoding: 215 215 153
Width: 389
Flags: W
Fore
270 228 m 1,0,-1
 382 86 l 1,1,-1
 348 58 l 1,2,-1
 236 200 l 1,3,-1
 65 58 l 1,4,-1
 43 86 l 1,5,-1
 215 228 l 1,6,-1
 103 369 l 1,7,-1
 137 397 l 1,8,-1
 247 254 l 1,9,-1
 420 397 l 1,10,-1
 442 369 l 1,11,-1
 270 228 l 1,0,-1
EndSplineSet
EndChar
StartChar: Oslash
Encoding: 216 216 154
Width: 472
Flags: W
Fore
33 -60 m 1,0,-1
 -10 -60 l 1,1,-1
 93 63 l 1,2,3
 79 94 79 94 78.5 137 c 128,-1,4
 78 180 78 180 90 237 c 0,5,6
 116 362 116 362 174 425.5 c 128,-1,7
 232 489 232 489 339 489 c 0,8,9
 400 489 400 489 436 468 c 1,10,-1
 513 556 l 1,11,-1
 563 556 l 1,12,-1
 465 444 l 1,13,14
 491 412 491 412 494 360.5 c 128,-1,15
 497 309 497 309 482 237 c 0,16,17
 457 120 457 120 399 57 c 128,-1,18
 341 -6 341 -6 234 -6 c 0,19,20
 151 -6 151 -6 113 34 c 1,21,-1
 33 -60 l 1,0,-1
244 41 m 0,22,23
 286 41 286 41 316.5 52.5 c 128,-1,24
 347 64 347 64 368.5 88 c 128,-1,25
 390 112 390 112 404.5 149 c 128,-1,26
 419 186 419 186 430 237 c 0,27,28
 443 297 443 297 443.5 337.5 c 128,-1,29
 444 378 444 378 430 403 c 1,30,-1
 147 74 l 1,31,32
 174 41 174 41 244 41 c 0,22,23
330 444 m 0,33,34
 287 444 287 444 257 432.5 c 128,-1,35
 227 421 227 421 205 396 c 128,-1,36
 183 371 183 371 168.5 332 c 128,-1,37
 154 293 154 293 142 237 c 0,38,39
 133 196 133 196 130.5 164 c 128,-1,40
 128 132 128 132 133 109 c 1,41,-1
 404 429 l 1,42,43
 377 444 377 444 330 444 c 0,33,34
EndSplineSet
EndChar
StartChar: Thorn
Encoding: 222 222 160
Width: 445
Flags: W
Fore
126 0 m 1,0,-1
 76 0 l 1,1,-1
 179 486 l 1,2,-1
 229 486 l 1,3,-1
 214 415 l 1,4,-1
 329 415 l 2,5,6
 378 415 378 415 407.5 402.5 c 128,-1,7
 437 390 437 390 451.5 368 c 128,-1,8
 466 346 466 346 467.5 316.5 c 128,-1,9
 469 287 469 287 461 252 c 0,10,11
 454 218 454 218 440 188 c 128,-1,12
 426 158 426 158 402 136 c 128,-1,13
 378 114 378 114 343 101.5 c 128,-1,14
 308 89 308 89 259 89 c 2,15,-1
 144 89 l 1,16,-1
 126 0 l 1,0,-1
153 130 m 1,17,-1
 268 130 l 2,18,19
 304 130 304 130 328.5 139 c 128,-1,20
 353 148 353 148 369 164 c 128,-1,21
 385 180 385 180 394.5 202.5 c 128,-1,22
 404 225 404 225 410 252 c 256,23,24
 416 279 416 279 416 301.5 c 128,-1,25
 416 324 416 324 406.5 339.5 c 128,-1,26
 397 355 397 355 376.5 364 c 128,-1,27
 356 373 356 373 320 373 c 2,28,-1
 205 373 l 1,29,-1
 153 130 l 1,17,-1
EndSplineSet
EndChar
StartChar: germandbls
Encoding: 223 223 161
Width: 380
Flags: W
Fore
58 0 m 1,0,-1
 144 405 l 2,1,2
 158 470 158 470 199 509.5 c 128,-1,3
 240 549 240 549 308 549 c 0,4,5
 337 549 337 549 358.5 538.5 c 128,-1,6
 380 528 380 528 393.5 510 c 128,-1,7
 407 492 407 492 411 467 c 128,-1,8
 415 442 415 442 409 413 c 0,9,10
 401 375 401 375 377.5 345.5 c 128,-1,11
 354 316 354 316 316 299 c 1,12,13
 364 283 364 283 381.5 245 c 128,-1,14
 399 207 399 207 388 153 c 0,15,16
 372 79 372 79 329.5 35.5 c 128,-1,17
 287 -8 287 -8 224 -8 c 0,18,19
 208 -8 208 -8 189 -3 c 128,-1,20
 170 2 170 2 159 10 c 1,21,-1
 182 44 l 1,22,23
 192 38 192 38 206.5 33.5 c 128,-1,24
 221 29 221 29 235 29 c 0,25,26
 274 29 274 29 302 60.5 c 128,-1,27
 330 92 330 92 342 147 c 0,28,29
 356 216 356 216 327.5 245 c 128,-1,30
 299 274 299 274 231 274 c 1,31,-1
 238 310 l 1,32,33
 288 312 288 312 320 335 c 128,-1,34
 352 358 352 358 364 415 c 0,35,36
 374 461 374 461 356.5 486.5 c 128,-1,37
 339 512 339 512 292 512 c 0,38,39
 268 512 268 512 251 503 c 128,-1,40
 234 494 234 494 221.5 479 c 128,-1,41
 209 464 209 464 201.5 445.5 c 128,-1,42
 194 427 194 427 190 408 c 2,43,-1
 104 0 l 1,44,-1
 58 0 l 1,0,-1
EndSplineSet
EndChar
StartChar: ae
Encoding: 230 230 168
Width: 623
Flags: W
Fore
357 196 m 1,0,1
 350 162 350 162 349 132 c 128,-1,2
 348 102 348 102 357 79 c 128,-1,3
 366 56 366 56 385.5 42.5 c 128,-1,4
 405 29 405 29 439 29 c 0,5,6
 477 29 477 29 507.5 45.5 c 128,-1,7
 538 62 538 62 570 108 c 1,8,-1
 603 89 l 1,9,10
 568 36 568 36 526 14 c 128,-1,11
 484 -8 484 -8 427 -8 c 0,12,13
 381 -8 381 -8 355 11.5 c 128,-1,14
 329 31 329 31 315 67 c 1,15,16
 293 48 293 48 271.5 34 c 128,-1,17
 250 20 250 20 227.5 10.5 c 128,-1,18
 205 1 205 1 180 -3.5 c 128,-1,19
 155 -8 155 -8 126 -8 c 0,20,21
 80 -8 80 -8 55.5 24 c 128,-1,22
 31 56 31 56 42 106 c 0,23,24
 51 146 51 146 72 171 c 128,-1,25
 93 196 93 196 127.5 210 c 128,-1,26
 162 224 162 224 210.5 229.5 c 128,-1,27
 259 235 259 235 322 235 c 1,28,-1
 334 287 l 2,29,30
 342 327 342 327 326.5 347 c 128,-1,31
 311 367 311 367 260 367 c 0,32,33
 225 367 225 367 192 348 c 128,-1,34
 159 329 159 329 129 295 c 1,35,-1
 98 314 l 1,36,37
 139 362 139 362 183.5 382.5 c 128,-1,38
 228 403 228 403 269 403 c 0,39,40
 319 403 319 403 344.5 384 c 128,-1,41
 370 365 370 365 376 332 c 1,42,43
 402 362 402 362 435 382.5 c 128,-1,44
 468 403 468 403 513 403 c 0,45,46
 553 403 553 403 579 388 c 128,-1,47
 605 373 605 373 617.5 345.5 c 128,-1,48
 630 318 630 318 631 280 c 128,-1,49
 632 242 632 242 622 196 c 1,50,-1
 357 196 l 1,0,1
313 198 m 1,51,52
 247 198 247 198 204.5 190.5 c 128,-1,53
 162 183 162 183 136.5 170.5 c 128,-1,54
 111 158 111 158 99.5 141.5 c 128,-1,55
 88 125 88 125 84 107 c 0,56,57
 77 74 77 74 94 51.5 c 128,-1,58
 111 29 111 29 142 29 c 0,59,60
 188 29 188 29 223 46.5 c 128,-1,61
 258 64 258 64 290 94 c 1,62,-1
 313 198 l 1,51,52
584 233 m 1,63,64
 587 263 587 263 586 288 c 128,-1,65
 585 313 585 313 577 330.5 c 128,-1,66
 569 348 569 348 551.5 357.5 c 128,-1,67
 534 367 534 367 504 367 c 256,68,69
 474 367 474 367 450.5 355 c 128,-1,70
 427 343 427 343 410 323.5 c 128,-1,71
 393 304 393 304 381.5 280 c 128,-1,72
 370 256 370 256 365 233 c 1,73,-1
 584 233 l 1,63,64
EndSplineSet
EndChar
StartChar: eth
Encoding: 240 240 178
Width: 380
Flags: W
Fore
268 367 m 256,0,1
 206 367 206 367 169 323 c 128,-1,2
 132 279 132 279 115 198 c 256,3,4
 98 117 98 117 116 73 c 128,-1,5
 134 29 134 29 196 29 c 256,6,7
 258 29 258 29 295 73 c 128,-1,8
 332 117 332 117 349 198 c 256,9,10
 366 279 366 279 348 323 c 128,-1,11
 330 367 330 367 268 367 c 256,0,1
289 549 m 1,12,13
 301 539 301 539 312.5 529 c 128,-1,14
 324 519 324 519 333 508 c 1,15,-1
 419 549 l 1,16,-1
 435 519 l 1,17,-1
 356 481 l 1,18,19
 379 450 379 450 390.5 415 c 128,-1,20
 402 380 402 380 405.5 344 c 128,-1,21
 409 308 409 308 405.5 271 c 128,-1,22
 402 234 402 234 394 198 c 0,23,24
 385 158 385 158 369.5 120.5 c 128,-1,25
 354 83 354 83 329 54.5 c 128,-1,26
 304 26 304 26 269.5 9 c 128,-1,27
 235 -8 235 -8 188 -8 c 0,28,29
 142 -8 142 -8 114.5 9 c 128,-1,30
 87 26 87 26 74.5 54.5 c 128,-1,31
 62 83 62 83 61.5 120.5 c 128,-1,32
 61 158 61 158 70 198 c 0,33,34
 78 238 78 238 94 275 c 128,-1,35
 110 312 110 312 134.5 340.5 c 128,-1,36
 159 369 159 369 194 386 c 128,-1,37
 229 403 229 403 275 403 c 0,38,39
 319 403 319 403 347 386 c 1,40,-1
 349 388 l 1,41,42
 342 407 342 407 333.5 426 c 128,-1,43
 325 445 325 445 313 462 c 1,44,-1
 227 421 l 1,45,-1
 211 451 l 1,46,-1
 290 488 l 1,47,48
 281 500 281 500 269.5 510 c 128,-1,49
 258 520 258 520 244 529 c 1,50,-1
 289 549 l 1,12,13
EndSplineSet
EndChar
StartChar: divide
Encoding: 247 247 185
Width: 402
Flags: W
Fore
78 206 m 1,0,-1
 87 248 l 1,1,-1
 419 248 l 1,2,-1
 410 206 l 1,3,-1
 78 206 l 1,0,-1
286 402 m 256,4,5
 301 402 301 402 309.5 391 c 128,-1,6
 318 380 318 380 315 366 c 0,7,8
 312 351 312 351 298.5 340 c 128,-1,9
 285 329 285 329 270 329 c 256,10,11
 255 329 255 329 246.5 340 c 128,-1,12
 238 351 238 351 241 366 c 0,13,14
 244 380 244 380 257.5 391 c 128,-1,15
 271 402 271 402 286 402 c 256,4,5
227 124 m 256,16,17
 242 124 242 124 250.5 113 c 128,-1,18
 259 102 259 102 256 87 c 0,19,20
 253 73 253 73 239.5 62 c 128,-1,21
 226 51 226 51 211 51 c 256,22,23
 196 51 196 51 187.5 62 c 128,-1,24
 179 73 179 73 182 87 c 0,25,26
 185 102 185 102 198.5 113 c 128,-1,27
 212 124 212 124 227 124 c 256,16,17
EndSplineSet
EndChar
StartChar: oslash
Encoding: 248 248 186
Width: 380
Flags: W
Fore
335 346 m 1,0,1
 314 367 314 367 268 367 c 0,2,3
 234 367 234 367 208.5 355.5 c 128,-1,4
 183 344 183 344 165 322.5 c 128,-1,5
 147 301 147 301 135 269.5 c 128,-1,6
 123 238 123 238 115 198 c 0,7,8
 98 122 98 122 109 81 c 1,9,-1
 335 346 l 1,0,1
125 52 m 1,10,11
 146 29 146 29 196 29 c 0,12,13
 265 29 265 29 298.5 73 c 128,-1,14
 332 117 332 117 349 198 c 0,15,16
 357 236 357 236 358.5 266.5 c 128,-1,17
 360 297 360 297 352 318 c 1,18,-1
 125 52 l 1,10,11
30 -60 m 1,19,-1
 -10 -60 l 1,20,-1
 75 42 l 1,21,22
 60 68 60 68 59.5 107.5 c 128,-1,23
 59 147 59 147 70 198 c 0,24,25
 80 246 80 246 96 284 c 128,-1,26
 112 322 112 322 136.5 348.5 c 128,-1,27
 161 375 161 375 195 389 c 128,-1,28
 229 403 229 403 275 403 c 0,29,30
 332 403 332 403 364 380 c 1,31,-1
 438 466 l 1,32,-1
 479 466 l 1,33,-1
 385 357 l 1,34,35
 403 331 403 331 404 290.5 c 128,-1,36
 405 250 405 250 394 198 c 0,37,38
 384 150 384 150 367.5 112 c 128,-1,39
 351 74 351 74 327 47 c 128,-1,40
 303 20 303 20 269 6 c 128,-1,41
 235 -8 235 -8 188 -8 c 0,42,43
 156 -8 156 -8 133.5 -1.5 c 128,-1,44
 111 5 111 5 95 17 c 1,45,-1
 30 -60 l 1,19,-1
EndSplineSet
EndChar
StartChar: thorn
Encoding: 254 254 192
Width: 423
Flags: W
Fore
186 549 m 1,0,-1
 232 549 l 1,1,-1
 186 334 l 1,2,-1
 187 334 l 1,3,4
 218 369 218 369 250.5 386 c 128,-1,5
 283 403 283 403 322 403 c 0,6,7
 360 403 360 403 386 386 c 128,-1,8
 412 369 412 369 426 340 c 128,-1,9
 440 311 440 311 442.5 274 c 128,-1,10
 445 237 445 237 436 196 c 0,11,12
 414 92 414 92 360.5 42 c 128,-1,13
 307 -8 307 -8 237 -8 c 0,14,15
 197 -8 197 -8 173 6 c 128,-1,16
 149 20 149 20 126 51 c 1,17,-1
 86 -140 l 1,18,-1
 40 -140 l 1,19,-1
 186 549 l 1,0,-1
137 100 m 1,20,21
 140 90 140 90 149.5 77.5 c 128,-1,22
 159 65 159 65 171.5 54.5 c 128,-1,23
 184 44 184 44 200 36.5 c 128,-1,24
 216 29 216 29 233 29 c 0,25,26
 296 29 296 29 335.5 75 c 128,-1,27
 375 121 375 121 393 203 c 0,28,29
 399 234 399 234 398.5 263.5 c 128,-1,30
 398 293 398 293 389 316 c 128,-1,31
 380 339 380 339 361 353 c 128,-1,32
 342 367 342 367 312 367 c 0,33,34
 274 367 274 367 243.5 346 c 128,-1,35
 213 325 213 325 178 295 c 1,36,-1
 137 100 l 1,20,21
EndSplineSet
EndChar
StartChar: dotlessi
Encoding: 305 305 194
Width: 169
Flags: W
Fore
107 0 m 1,0,-1
 62 0 l 1,1,-1
 145 395 l 1,2,-1
 190 395 l 1,3,-1
 107 0 l 1,0,-1
EndSplineSet
EndChar
StartChar: Lslash
Encoding: 321 321 195
Width: 380
Flags: W
Fore
182 267 m 1,0,-1
 134 41 l 1,1,-1
 379 41 l 1,2,-1
 371 0 l 1,3,-1
 76 0 l 1,4,-1
 128 246 l 1,5,-1
 58 220 l 1,6,-1
 68 268 l 1,7,-1
 138 294 l 1,8,-1
 192 549 l 1,9,-1
 242 549 l 1,10,-1
 192 314 l 1,11,-1
 333 366 l 1,12,-1
 323 318 l 1,13,-1
 182 267 l 1,0,-1
EndSplineSet
EndChar
StartChar: lslash
Encoding: 322 322 196
Width: 169
Flags: W
Fore
107 0 m 1,0,-1
 62 0 l 1,1,-1
 115 254 l 1,2,-1
 48 222 l 1,3,-1
 58 271 l 1,4,-1
 126 302 l 1,5,-1
 178 549 l 1,6,-1
 223 549 l 1,7,-1
 176 326 l 1,8,-1
 243 357 l 1,9,-1
 233 309 l 1,10,-1
 165 277 l 1,11,-1
 107 0 l 1,0,-1
EndSplineSet
EndChar
StartChar: OE
Encoding: 338 338 197
Width: 658
Flags: W
Fore
444 434 m 1,0,1
 426 438 426 438 394 441.5 c 128,-1,2
 362 445 362 445 330 445 c 0,3,4
 287 445 287 445 256.5 433.5 c 128,-1,5
 226 422 226 422 204 396.5 c 128,-1,6
 182 371 182 371 167 332 c 128,-1,7
 152 293 152 293 140 237 c 0,8,9
 129 186 129 186 128 149 c 128,-1,10
 127 112 127 112 138.5 88 c 128,-1,11
 150 64 150 64 175.5 52 c 128,-1,12
 201 40 201 40 244 40 c 0,13,14
 276 40 276 40 310.5 44 c 128,-1,15
 345 48 345 48 363 55 c 1,16,-1
 444 434 l 1,0,1
732 444 m 1,17,-1
 496 444 l 1,18,-1
 461 280 l 1,19,-1
 667 280 l 1,20,-1
 658 238 l 1,21,-1
 452 238 l 1,22,-1
 410 42 l 1,23,-1
 643 42 l 1,24,-1
 635 0 l 1,25,-1
 352 0 l 2,26,27
 339 0 339 0 305.5 -3 c 128,-1,28
 272 -6 272 -6 234 -6 c 0,29,30
 128 -6 128 -6 96.5 57 c 128,-1,31
 65 120 65 120 90 237 c 0,32,33
 116 362 116 362 174 425.5 c 128,-1,34
 232 489 232 489 339 489 c 0,35,36
 368 489 368 489 401.5 487.5 c 128,-1,37
 435 486 435 486 455 486 c 2,38,-1
 741 486 l 1,39,-1
 732 444 l 1,17,-1
EndSplineSet
EndChar
StartChar: oe
Encoding: 339 339 198
Width: 633
Flags: W
Fore
115 198 m 256,0,1
 98 117 98 117 115.5 73 c 128,-1,2
 133 29 133 29 193 29 c 0,3,4
 248 29 248 29 284.5 73 c 128,-1,5
 321 117 321 117 338 198 c 256,6,7
 355 279 355 279 337.5 323 c 128,-1,8
 320 367 320 367 265 367 c 0,9,10
 205 367 205 367 168.5 323 c 128,-1,11
 132 279 132 279 115 198 c 256,0,1
383 196 m 1,12,13
 376 162 376 162 375.5 132 c 128,-1,14
 375 102 375 102 383 79 c 128,-1,15
 391 56 391 56 409.5 42.5 c 128,-1,16
 428 29 428 29 459 29 c 0,17,18
 478 29 478 29 493.5 33 c 128,-1,19
 509 37 509 37 524 46 c 128,-1,20
 539 55 539 55 555 70 c 128,-1,21
 571 85 571 85 590 108 c 1,22,-1
 624 89 l 1,23,24
 603 63 603 63 583 44.5 c 128,-1,25
 563 26 563 26 542 14.5 c 128,-1,26
 521 3 521 3 498 -2.5 c 128,-1,27
 475 -8 475 -8 447 -8 c 0,28,29
 399 -8 399 -8 371.5 14 c 128,-1,30
 344 36 344 36 332 79 c 1,31,32
 309 42 309 42 273.5 17 c 128,-1,33
 238 -8 238 -8 185 -8 c 0,34,35
 140 -8 140 -8 113 9 c 128,-1,36
 86 26 86 26 73.5 54.5 c 128,-1,37
 61 83 61 83 61 120.5 c 128,-1,38
 61 158 61 158 70 198 c 0,39,40
 78 238 78 238 94 275 c 128,-1,41
 110 312 110 312 134.5 340.5 c 128,-1,42
 159 369 159 369 193 386 c 128,-1,43
 227 403 227 403 272 403 c 0,44,45
 324 403 324 403 350 378.5 c 128,-1,46
 376 354 376 354 384 317 c 1,47,48
 394 332 394 332 408 347.5 c 128,-1,49
 422 363 422 363 440.5 375.5 c 128,-1,50
 459 388 459 388 482 395.5 c 128,-1,51
 505 403 505 403 533 403 c 0,52,53
 572 403 572 403 598 388 c 128,-1,54
 624 373 624 373 637 345.5 c 128,-1,55
 650 318 650 318 651 280 c 128,-1,56
 652 242 652 242 642 196 c 1,57,-1
 383 196 l 1,12,13
605 233 m 1,58,59
 610 294 610 294 593 330.5 c 128,-1,60
 576 367 576 367 525 367 c 0,61,62
 498 367 498 367 476.5 356.5 c 128,-1,63
 455 346 455 346 438.5 327.5 c 128,-1,64
 422 309 422 309 410.5 284.5 c 128,-1,65
 399 260 399 260 391 233 c 1,66,-1
 605 233 l 1,58,59
EndSplineSet
EndChar
StartChar: florin
Encoding: 402 402 204
Width: 383
Flags: W
Fore
452 499 m 1,0,1
 446 500 446 500 440 500.5 c 128,-1,2
 434 501 434 501 429 501 c 0,3,4
 398 501 398 501 377 483.5 c 128,-1,5
 356 466 356 466 341.5 440 c 128,-1,6
 327 414 327 414 317 382.5 c 128,-1,7
 307 351 307 351 296 322 c 1,8,-1
 384 322 l 1,9,-1
 377 287 l 1,10,-1
 284 287 l 1,11,-1
 179 -9 l 2,12,13
 170 -35 170 -35 154.5 -58 c 128,-1,14
 139 -81 139 -81 119 -98.5 c 128,-1,15
 99 -116 99 -116 74 -126 c 128,-1,16
 49 -136 49 -136 20 -136 c 0,17,18
 12 -136 12 -136 5.5 -135.5 c 128,-1,19
 -1 -135 -1 -135 -8 -134 c 1,20,-1
 6 -90 l 1,21,22
 18 -94 l 128,-1,23
 24 -96 24 -96 30 -96 c 0,24,25
 72 -96 72 -96 96.5 -63.5 c 128,-1,26
 121 -31 121 -31 144 29 c 2,27,-1
 235 287 l 1,28,-1
 136 287 l 1,29,-1
 143 322 l 1,30,-1
 247 322 l 1,31,32
 257 352 257 352 271 390 c 128,-1,33
 285 428 285 428 306 462 c 128,-1,34
 327 496 327 496 356 519 c 128,-1,35
 385 542 385 542 425 542 c 0,36,37
 448 542 448 542 467 538 c 1,38,-1
 452 499 l 1,0,1
EndSplineSet
EndChar
StartChar: circumflex
Encoding: 710 710 205
Width: 169
Flags: W
Fore
290 439 m 1,0,-1
 239 439 l 1,1,-1
 194 516 l 1,2,-1
 115 439 l 1,3,-1
 64 439 l 1,4,-1
 174 544 l 1,5,-1
 225 544 l 1,6,-1
 290 439 l 1,0,-1
EndSplineSet
EndChar
StartChar: caron
Encoding: 711 711 206
Width: 169
Flags: W
Fore
88 552 m 1,0,-1
 139 552 l 1,1,-1
 185 475 l 1,2,-1
 263 552 l 1,3,-1
 314 552 l 1,4,-1
 205 447 l 1,5,-1
 154 447 l 1,6,-1
 88 552 l 1,0,-1
EndSplineSet
EndChar
StartChar: breve
Encoding: 728 728 207
Width: 169
Flags: W
Fore
188 486 m 0,0,1
 217 486 217 486 239.5 500 c 128,-1,2
 262 514 262 514 276 548 c 1,3,-1
 310 548 l 1,4,5
 297 503 297 503 263 477.5 c 128,-1,6
 229 452 229 452 181 452 c 256,7,8
 133 452 133 452 108.5 477.5 c 128,-1,9
 84 503 84 503 91 548 c 1,10,-1
 125 548 l 1,11,12
 124 514 124 514 140.5 500 c 128,-1,13
 157 486 157 486 188 486 c 0,0,1
EndSplineSet
EndChar
StartChar: dotaccent
Encoding: 729 729 208
Width: 169
Flags: W
Fore
219 519 m 1,0,-1
 204 447 l 1,1,-1
 154 447 l 1,2,-1
 169 519 l 1,3,-1
 219 519 l 1,0,-1
EndSplineSet
EndChar
StartChar: ring
Encoding: 730 730 209
Width: 169
Flags: W
Fore
209 588 m 0,0,1
 239 588 239 588 257.5 566 c 128,-1,2
 276 544 276 544 269 512 c 256,3,4
 262 480 262 480 234.5 458 c 128,-1,5
 207 436 207 436 177 436 c 0,6,7
 146 436 146 436 128 458 c 128,-1,8
 110 480 110 480 117 512 c 256,9,10
 124 544 124 544 151 566 c 128,-1,11
 178 588 178 588 209 588 c 0,0,1
204 562 m 0,12,13
 183 562 183 562 165 548 c 128,-1,14
 147 534 147 534 142 512 c 0,15,16
 138 492 138 492 150 477 c 128,-1,17
 162 462 162 462 183 462 c 0,18,19
 203 462 203 462 221 477 c 128,-1,20
 239 492 239 492 243 512 c 0,21,22
 248 534 248 534 236 548 c 128,-1,23
 224 562 224 562 204 562 c 0,12,13
EndSplineSet
EndChar
StartChar: ogonek
Encoding: 731 731 210
Width: 169
Flags: W
Fore
164 8 m 1,0,1
 146 1 146 1 124.5 -7.5 c 128,-1,2
 103 -16 103 -16 83 -27.5 c 128,-1,3
 63 -39 63 -39 48 -54 c 128,-1,4
 33 -69 33 -69 29 -89 c 0,5,6
 26 -102 26 -102 33 -111 c 128,-1,7
 40 -120 40 -120 63 -120 c 0,8,9
 81 -120 81 -120 106 -109.5 c 128,-1,10
 131 -99 131 -99 148 -91 c 1,11,-1
 156 -117 l 1,12,13
 144 -124 144 -124 129 -131 c 128,-1,14
 114 -138 114 -138 98.5 -144 c 128,-1,15
 83 -150 83 -150 67.5 -153.5 c 128,-1,16
 52 -157 52 -157 39 -157 c 0,17,18
 10 -157 10 -157 -7.5 -143.5 c 128,-1,19
 -25 -130 -25 -130 -18 -96 c 0,20,21
 -12 -68 -12 -68 9.5 -49 c 128,-1,22
 31 -30 31 -30 58.5 -17.5 c 128,-1,23
 86 -5 86 -5 115 2.5 c 128,-1,24
 144 10 144 10 165 14 c 1,25,-1
 164 8 l 1,0,1
EndSplineSet
EndChar
StartChar: tilde
Encoding: 732 732 211
Width: 169
Flags: W
Fore
60 447 m 1,0,1
 64 461 64 461 71.5 474 c 128,-1,2
 79 487 79 487 90 498 c 128,-1,3
 101 509 101 509 114 515.5 c 128,-1,4
 127 522 127 522 142 522 c 0,5,6
 156 522 156 522 169.5 516.5 c 128,-1,7
 183 511 183 511 195 504 c 0,8,9
 208 498 208 498 219.5 493 c 128,-1,10
 231 488 231 488 244 488 c 0,11,12
 260 488 260 488 270.5 499.5 c 128,-1,13
 281 511 281 511 286 525 c 1,14,-1
 314 525 l 1,15,16
 303 496 303 496 284 473.5 c 128,-1,17
 265 451 265 451 231 451 c 0,18,19
 219 451 219 451 206.5 457 c 128,-1,20
 194 463 194 463 181 469 c 256,21,22
 168 475 168 475 155.5 480 c 128,-1,23
 143 485 143 485 132 485 c 0,24,25
 116 485 116 485 105 473 c 128,-1,26
 94 461 94 461 89 447 c 1,27,-1
 60 447 l 1,0,1
EndSplineSet
EndChar
StartChar: hungarumlaut
Encoding: 733 733 212
Width: 169
Flags: W
Fore
239 544 m 1,0,-1
 124 439 l 1,1,-1
 87 439 l 1,2,-1
 180 544 l 1,3,-1
 239 544 l 1,0,-1
344 544 m 1,4,-1
 217 439 l 1,5,-1
 179 439 l 1,6,-1
 285 544 l 1,7,-1
 344 544 l 1,4,-1
EndSplineSet
EndChar
StartChar: uni0E01
Encoding: 3585 3585 214
Width: 420
Flags: W
Fore
297 406 m 0,0,1
 331 406 331 406 358 399 c 128,-1,2
 385 392 385 392 401.5 374 c 128,-1,3
 418 356 418 356 422.5 325.5 c 128,-1,4
 427 295 427 295 417 249 c 2,5,-1
 365 0 l 1,6,-1
 325 0 l 1,7,-1
 377 249 l 2,8,9
 385 288 385 288 383 311.5 c 128,-1,10
 381 335 381 335 369 348.5 c 128,-1,11
 357 362 357 362 337 366.5 c 128,-1,12
 317 371 317 371 289 371 c 0,13,14
 264 371 264 371 240 365 c 128,-1,15
 216 359 216 359 196.5 350.5 c 128,-1,16
 177 342 177 342 165 334 c 128,-1,17
 153 326 153 326 152 321 c 0,18,19
 151 318 151 318 154.5 312 c 128,-1,20
 158 306 158 306 162.5 300 c 128,-1,21
 167 294 167 294 172 289.5 c 128,-1,22
 177 285 177 285 180 285 c 0,23,24
 188 285 188 285 198.5 291.5 c 128,-1,25
 209 298 209 298 218 298 c 0,26,27
 221 298 221 298 224 293 c 128,-1,28
 227 288 227 288 228.5 282 c 128,-1,29
 230 276 230 276 229.5 271 c 128,-1,30
 229 266 229 266 225 266 c 0,31,32
 210 266 210 266 198 263 c 128,-1,33
 186 260 186 260 175.5 250.5 c 128,-1,34
 165 241 165 241 157 223.5 c 128,-1,35
 149 206 149 206 143 178 c 2,36,-1
 106 0 l 1,37,-1
 66 0 l 1,38,-1
 103 178 l 2,39,40
 111 216 111 216 122.5 233.5 c 128,-1,41
 134 251 134 251 154 268 c 1,42,43
 151 270 151 270 143.5 276 c 128,-1,44
 136 282 136 282 128.5 289.5 c 128,-1,45
 121 297 121 297 116 305 c 128,-1,46
 111 313 111 313 112 319 c 0,47,48
 114 328 114 328 130 343 c 128,-1,49
 146 358 146 358 171 372 c 128,-1,50
 196 386 196 386 228.5 396 c 128,-1,51
 261 406 261 406 297 406 c 0,0,1
EndSplineSet
EndChar
StartChar: uni0E02
Encoding: 3586 3586 215
Width: 399
Flags: W
Fore
217 369 m 0,0,1
 210 369 210 369 200.5 368 c 128,-1,2
 191 367 191 367 182 362.5 c 128,-1,3
 173 358 173 358 165.5 349.5 c 128,-1,4
 158 341 158 341 155 327 c 0,5,6
 152 314 152 314 156 304.5 c 128,-1,7
 160 295 160 295 174 295 c 0,8,9
 185 295 185 295 196 302.5 c 128,-1,10
 207 310 207 310 211 326 c 2,11,-1
 217 355 l 1,12,-1
 234 355 l 1,13,-1
 246 326 l 1,14,15
 239 296 239 296 218 277.5 c 128,-1,16
 197 259 197 259 167 259 c 256,17,18
 137 259 137 259 125 278.5 c 128,-1,19
 113 298 113 298 119 327 c 0,20,21
 126 359 126 359 157.5 380.5 c 128,-1,22
 189 402 189 402 228 402 c 0,23,24
 268 402 268 402 290 379 c 128,-1,25
 312 356 312 356 303 314 c 0,26,27
 294 271 294 271 273 248.5 c 128,-1,28
 252 226 252 226 229 211.5 c 128,-1,29
 206 197 206 197 187 184 c 128,-1,30
 168 171 168 171 162 145 c 2,31,-1
 151 93 l 2,32,33
 143 55 143 55 164 42 c 128,-1,34
 185 29 185 29 223 29 c 0,35,36
 246 29 246 29 263 31.5 c 128,-1,37
 280 34 280 34 292.5 41.5 c 128,-1,38
 305 49 305 49 313 62.5 c 128,-1,39
 321 76 321 76 325 98 c 0,40,41
 329 115 329 115 334 143.5 c 128,-1,42
 339 172 339 172 344 197 c 2,43,-1
 388 400 l 1,44,-1
 429 400 l 1,45,-1
 368 113 l 2,46,47
 354 47 354 47 315.5 20.5 c 128,-1,48
 277 -6 277 -6 214 -6 c 0,49,50
 160 -6 160 -6 130 17 c 128,-1,51
 100 40 100 40 112 96 c 2,52,-1
 122 145 l 2,53,54
 129 177 129 177 150 194.5 c 128,-1,55
 171 212 171 212 194.5 227 c 128,-1,56
 218 242 218 242 239 260 c 128,-1,57
 260 278 260 278 267 311 c 0,58,59
 279 369 279 369 217 369 c 0,0,1
EndSplineSet
EndChar
StartChar: uni0E03
Encoding: 3587 3587 216
Width: 413
Flags: W
Fore
222 318 m 1,0,1
 212 330 212 330 206.5 339.5 c 128,-1,2
 201 349 201 349 196.5 355.5 c 128,-1,3
 192 362 192 362 187.5 365 c 128,-1,4
 183 368 183 368 175 368 c 0,5,6
 162 368 162 368 152.5 358.5 c 128,-1,7
 143 349 143 349 140 335 c 0,8,9
 136 320 136 320 141 310 c 128,-1,10
 146 300 146 300 161 300 c 0,11,12
 167 300 167 300 176 304.5 c 128,-1,13
 185 309 185 309 199 321 c 1,14,-1
 206 309 l 1,15,-1
 195 286 l 1,16,17
 173 265 173 265 153 265 c 0,18,19
 124 265 124 265 111.5 285 c 128,-1,20
 99 305 99 305 105 334 c 0,21,22
 113 369 113 369 136 386 c 128,-1,23
 159 403 159 403 182 403 c 0,24,25
 195 403 195 403 204.5 396 c 128,-1,26
 214 389 214 389 220 380 c 0,27,28
 227 369 227 369 232 357 c 1,29,-1
 283 407 l 1,30,31
 300 398 300 398 309.5 372 c 128,-1,32
 319 346 319 346 313 318 c 0,33,34
 304 275 304 275 282.5 253.5 c 128,-1,35
 261 232 261 232 237.5 217.5 c 128,-1,36
 214 203 214 203 193.5 188.5 c 128,-1,37
 173 174 173 174 167 145 c 2,38,-1
 155 88 l 2,39,40
 151 69 151 69 155 57.5 c 128,-1,41
 159 46 159 46 169.5 39.5 c 128,-1,42
 180 33 180 33 196 31 c 128,-1,43
 212 29 212 29 231 29 c 0,44,45
 277 29 277 29 304 44 c 128,-1,46
 331 59 331 59 340 103 c 0,47,48
 344 120 344 120 348.5 146 c 128,-1,49
 353 172 353 172 358 197 c 2,50,-1
 402 400 l 1,51,-1
 443 400 l 1,52,-1
 383 118 l 2,53,54
 369 52 369 52 327 23 c 128,-1,55
 285 -6 285 -6 222 -6 c 0,56,57
 195 -6 195 -6 173 -1.5 c 128,-1,58
 151 3 151 3 136 14.5 c 128,-1,59
 121 26 121 26 115.5 44.5 c 128,-1,60
 110 63 110 63 116 91 c 2,61,-1
 127 145 l 2,62,63
 132 169 132 169 144.5 185 c 128,-1,64
 157 201 157 201 172.5 212.5 c 128,-1,65
 188 224 188 224 205 233 c 128,-1,66
 222 242 222 242 237.5 253 c 128,-1,67
 253 264 253 264 264.5 279 c 128,-1,68
 276 294 276 294 281 316 c 0,69,70
 285 335 285 335 281 348 c 128,-1,71
 277 361 277 361 273 366 c 1,72,-1
 222 318 l 1,0,1
EndSplineSet
EndChar
StartChar: uni0E04
Encoding: 3588 3588 217
Width: 425
Flags: W
Fore
378 226 m 2,0,1
 386 265 386 265 388.5 293 c 128,-1,2
 391 321 391 321 382 338 c 128,-1,3
 373 355 373 355 351 363 c 128,-1,4
 329 371 329 371 288 371 c 0,5,6
 235 371 235 371 195 339.5 c 128,-1,7
 155 308 155 308 141 242 c 0,8,9
 136 221 136 221 135.5 194.5 c 128,-1,10
 135 168 135 168 138 153 c 1,11,12
 152 175 152 175 167 197 c 128,-1,13
 182 219 182 219 200 236.5 c 128,-1,14
 218 254 218 254 239 265 c 128,-1,15
 260 276 260 276 285 276 c 0,16,17
 308 276 308 276 326 259 c 128,-1,18
 344 242 344 242 337 207 c 0,19,20
 331 178 331 178 306.5 157.5 c 128,-1,21
 282 137 282 137 253 137 c 0,22,23
 225 137 225 137 209 157 c 1,24,-1
 211 188 l 1,25,-1
 224 200 l 1,26,-1
 239 182 l 2,27,28
 246 172 246 172 259 172 c 0,29,30
 274 172 274 172 286.5 182.5 c 128,-1,31
 299 193 299 193 303 208 c 0,32,33
 306 222 306 222 298 231.5 c 128,-1,34
 290 241 290 241 273 241 c 0,35,36
 254 241 254 241 231.5 223 c 128,-1,37
 209 205 209 205 187 173 c 128,-1,38
 165 141 165 141 145.5 97 c 128,-1,39
 126 53 126 53 114 0 c 1,40,-1
 75 0 l 2,41,42
 71 0 71 0 69.5 2 c 128,-1,43
 68 4 68 4 70 14 c 0,44,45
 75 32 75 32 86.5 60 c 128,-1,46
 98 88 98 88 109 106 c 0,47,48
 119 122 119 122 114 129 c 0,49,50
 103 148 103 148 98 175.5 c 128,-1,51
 93 203 93 203 101 242 c 0,52,53
 118 320 118 320 171.5 363 c 128,-1,54
 225 406 225 406 296 406 c 0,55,56
 344 406 344 406 373 396 c 128,-1,57
 402 386 402 386 415.5 365 c 128,-1,58
 429 344 429 344 429 312 c 128,-1,59
 429 280 429 280 420 236 c 2,60,-1
 370 0 l 1,61,-1
 330 0 l 1,62,-1
 378 226 l 2,0,1
EndSplineSet
EndChar
StartChar: uni0E05
Encoding: 3589 3589 218
Width: 435
Flags: W
Fore
141 242 m 0,0,1
 136 221 136 221 135.5 194.5 c 128,-1,2
 135 168 135 168 138 153 c 1,3,4
 152 175 152 175 167 197 c 128,-1,5
 182 219 182 219 200 236.5 c 128,-1,6
 218 254 218 254 239 265 c 128,-1,7
 260 276 260 276 285 276 c 0,8,9
 308 276 308 276 326 259 c 128,-1,10
 344 242 344 242 337 207 c 0,11,12
 331 178 331 178 306.5 157.5 c 128,-1,13
 282 137 282 137 253 137 c 0,14,15
 225 137 225 137 209 157 c 1,16,-1
 211 188 l 1,17,-1
 224 200 l 1,18,-1
 239 182 l 2,19,20
 246 172 246 172 259 172 c 0,21,22
 274 172 274 172 286.5 182.5 c 128,-1,23
 299 193 299 193 303 208 c 0,24,25
 306 222 306 222 298 231.5 c 128,-1,26
 290 241 290 241 273 241 c 0,27,28
 254 241 254 241 231.5 223 c 128,-1,29
 209 205 209 205 187 173 c 128,-1,30
 165 141 165 141 145.5 97 c 128,-1,31
 126 53 126 53 114 0 c 1,32,-1
 75 0 l 2,33,34
 71 0 71 0 69.5 2 c 128,-1,35
 68 4 68 4 70 14 c 0,36,37
 75 32 75 32 86.5 60 c 128,-1,38
 98 88 98 88 109 106 c 0,39,40
 119 122 119 122 114 129 c 0,41,42
 103 148 103 148 98 175.5 c 128,-1,43
 93 203 93 203 101 242 c 0,44,45
 115 306 115 306 146.5 346 c 128,-1,46
 178 386 178 386 236 406 c 1,47,-1
 297 364 l 1,48,-1
 370 408 l 1,49,50
 400 403 400 403 416 389 c 128,-1,51
 432 375 432 375 437.5 353.5 c 128,-1,52
 443 332 443 332 440.5 302.5 c 128,-1,53
 438 273 438 273 430 236 c 2,54,-1
 380 0 l 1,55,-1
 340 0 l 1,56,-1
 392 248 l 2,57,58
 398 274 398 274 401 295 c 128,-1,59
 404 316 404 316 402 331 c 128,-1,60
 400 346 400 346 390 356 c 128,-1,61
 380 366 380 366 360 371 c 1,62,-1
 289 329 l 1,63,-1
 232 370 l 1,64,65
 196 359 196 359 174 326 c 128,-1,66
 152 293 152 293 141 242 c 0,0,1
EndSplineSet
EndChar
StartChar: uni0E06
Encoding: 3590 3590 219
Width: 470
Flags: W
Fore
323 318 m 0,0,1
 318 294 318 294 304.5 277 c 128,-1,2
 291 260 291 260 276 245 c 128,-1,3
 261 230 261 230 247 214.5 c 128,-1,4
 233 199 233 199 226 178 c 1,5,6
 251 177 251 177 277 168.5 c 128,-1,7
 303 160 303 160 325.5 146 c 128,-1,8
 348 132 348 132 364.5 113 c 128,-1,9
 381 94 381 94 387 71 c 1,10,11
 388 83 388 83 391.5 102 c 128,-1,12
 395 121 395 121 399 141 c 128,-1,13
 403 161 403 161 407 180 c 128,-1,14
 411 199 411 199 413 211 c 2,15,-1
 454 400 l 1,16,-1
 494 400 l 1,17,-1
 456 222 l 2,18,19
 449 189 449 189 442 155 c 128,-1,20
 435 121 435 121 429.5 92.5 c 128,-1,21
 424 64 424 64 420 43 c 128,-1,22
 416 22 416 22 416 14 c 0,23,24
 416 4 416 4 413.5 2 c 128,-1,25
 411 0 411 0 407 0 c 2,26,-1
 368 0 l 1,27,28
 367 33 367 33 355 59.5 c 128,-1,29
 343 86 343 86 323 105.5 c 128,-1,30
 303 125 303 125 276.5 136 c 128,-1,31
 250 147 250 147 220 149 c 1,32,-1
 211 95 l 2,33,34
 207 75 207 75 203 57 c 128,-1,35
 199 39 199 39 191 25 c 128,-1,36
 183 11 183 11 170 2.5 c 128,-1,37
 157 -6 157 -6 134 -6 c 0,38,39
 104 -6 104 -6 91.5 14 c 128,-1,40
 79 34 79 34 87 75 c 0,41,42
 97 120 97 120 128 145.5 c 128,-1,43
 159 171 159 171 192 177 c 1,44,45
 198 205 198 205 212 221 c 128,-1,46
 226 237 226 237 241 250 c 128,-1,47
 256 263 256 263 269 277.5 c 128,-1,48
 282 292 282 292 287 316 c 0,49,50
 290 333 290 333 287 346.5 c 128,-1,51
 284 360 284 360 282 365 c 1,52,-1
 232 318 l 1,53,54
 212 343 212 343 201.5 355.5 c 128,-1,55
 191 368 191 368 175 368 c 0,56,57
 162 368 162 368 152.5 358.5 c 128,-1,58
 143 349 143 349 140 335 c 0,59,60
 136 320 136 320 141 310 c 128,-1,61
 146 300 146 300 161 300 c 0,62,63
 167 300 167 300 173.5 302 c 128,-1,64
 180 304 180 304 186 309 c 2,65,-1
 208 328 l 1,66,-1
 216 316 l 1,67,-1
 205 287 l 1,68,69
 178 265 178 265 153 265 c 0,70,71
 124 265 124 265 111.5 285 c 128,-1,72
 99 305 99 305 105 334 c 0,73,74
 113 369 113 369 136 386 c 128,-1,75
 159 403 159 403 182 403 c 0,76,77
 195 403 195 403 206 396 c 128,-1,78
 217 389 217 389 225 380 c 0,79,80
 235 369 235 369 242 357 c 1,81,-1
 293 407 l 1,82,83
 310 398 310 398 319.5 372 c 128,-1,84
 329 346 329 346 323 318 c 0,0,1
175 92 m 0,85,86
 177 103 177 103 179.5 117 c 128,-1,87
 182 131 182 131 186 147 c 1,88,89
 167 142 167 142 149 125 c 128,-1,90
 131 108 131 108 124 77 c 0,91,92
 119 55 119 55 125 42.5 c 128,-1,93
 131 30 131 30 142 30 c 0,94,95
 151 30 151 30 156.5 35 c 128,-1,96
 162 40 162 40 165 48.5 c 128,-1,97
 168 57 168 57 170 68.5 c 128,-1,98
 172 80 172 80 175 92 c 0,85,86
EndSplineSet
EndChar
StartChar: uni0E07
Encoding: 3591 3591 220
Width: 374
Flags: W
Fore
123 277 m 1,0,1
 146 249 146 249 159 189 c 128,-1,2
 172 129 172 129 170 37 c 1,3,4
 171 34 171 34 185.5 31.5 c 128,-1,5
 200 29 200 29 216 29 c 256,6,7
 232 29 232 29 247.5 31.5 c 128,-1,8
 263 34 263 34 264 38 c 0,9,10
 273 70 273 70 284 104 c 128,-1,11
 295 138 295 138 305.5 170.5 c 128,-1,12
 316 203 316 203 325 231 c 128,-1,13
 334 259 334 259 338 279 c 0,14,15
 348 325 348 325 344 346.5 c 128,-1,16
 340 368 340 368 316 368 c 0,17,18
 302 368 302 368 290.5 359 c 128,-1,19
 279 350 279 350 276 337 c 0,20,21
 274 325 274 325 280 315.5 c 128,-1,22
 286 306 286 306 301 306 c 2,23,-1
 331 306 l 1,24,-1
 327 289 l 1,25,-1
 293 271 l 1,26,27
 263 271 263 271 248.5 289 c 128,-1,28
 234 307 234 307 240 337 c 0,29,30
 246 366 246 366 269.5 385 c 128,-1,31
 293 404 293 404 323 404 c 0,32,33
 346 404 346 404 360 395 c 128,-1,34
 374 386 374 386 380 370.5 c 128,-1,35
 386 355 386 355 385.5 333.5 c 128,-1,36
 385 312 385 312 379 286 c 0,37,38
 376 270 376 270 368.5 246 c 128,-1,39
 361 222 361 222 353 196.5 c 128,-1,40
 345 171 345 171 336.5 147 c 128,-1,41
 328 123 328 123 323 107 c 0,42,43
 315 84 315 84 307.5 58 c 128,-1,44
 300 32 300 32 295 13 c 0,45,46
 293 5 293 5 267.5 1 c 128,-1,47
 242 -3 242 -3 214 -3 c 0,48,49
 199 -3 199 -3 184.5 -2 c 128,-1,50
 170 -1 170 -1 158.5 1.5 c 128,-1,51
 147 4 147 4 140 7 c 128,-1,52
 133 10 133 10 133 14 c 0,53,54
 135 62 135 62 134 94 c 128,-1,55
 133 126 133 126 127.5 151 c 128,-1,56
 122 176 122 176 111.5 197.5 c 128,-1,57
 101 219 101 219 84 245 c 0,58,59
 80 251 80 251 94 260.5 c 128,-1,60
 108 270 108 270 123 277 c 1,0,1
EndSplineSet
EndChar
StartChar: uni0E08
Encoding: 3592 3592 221
Width: 408
Flags: W
Fore
199 10 m 0,0,1
 211 58 211 58 219.5 99 c 128,-1,2
 228 140 228 140 230.5 169.5 c 128,-1,3
 233 199 233 199 226.5 216 c 128,-1,4
 220 233 220 233 202 233 c 0,5,6
 188 233 188 233 176.5 224 c 128,-1,7
 165 215 165 215 162 202 c 0,8,9
 160 191 160 191 166 181 c 128,-1,10
 172 171 172 171 187 171 c 2,11,-1
 217 171 l 1,12,-1
 213 154 l 1,13,-1
 179 136 l 1,14,15
 149 136 149 136 134.5 154 c 128,-1,16
 120 172 120 172 126 202 c 0,17,18
 133 232 133 232 156.5 250.5 c 128,-1,19
 180 269 180 269 210 269 c 0,20,21
 238 269 238 269 251 252.5 c 128,-1,22
 264 236 264 236 265.5 205 c 128,-1,23
 267 174 267 174 259.5 130.5 c 128,-1,24
 252 87 252 87 239 33 c 0,25,26
 238 30 238 30 247.5 28 c 128,-1,27
 257 26 257 26 269 26 c 0,28,29
 282 26 282 26 293.5 28 c 128,-1,30
 305 30 305 30 306 34 c 0,31,32
 313 67 313 67 322.5 102.5 c 128,-1,33
 332 138 332 138 341.5 171 c 128,-1,34
 351 204 351 204 359 231.5 c 128,-1,35
 367 259 367 259 371 277 c 0,36,37
 378 310 378 310 368.5 328.5 c 128,-1,38
 359 347 359 347 344 356 c 128,-1,39
 329 365 329 365 313.5 367.5 c 128,-1,40
 298 370 298 370 292 370 c 0,41,42
 246 370 246 370 210.5 352 c 128,-1,43
 175 334 175 334 143 304 c 0,44,45
 137 298 137 298 127 305 c 128,-1,46
 117 312 117 312 109 325 c 1,47,48
 121 338 121 338 142.5 352 c 128,-1,49
 164 366 164 366 189.5 378 c 128,-1,50
 215 390 215 390 242.5 397.5 c 128,-1,51
 270 405 270 405 294 405 c 0,52,53
 322 405 322 405 346.5 398 c 128,-1,54
 371 391 371 391 388 376 c 128,-1,55
 405 361 405 361 412 336.5 c 128,-1,56
 419 312 419 312 411 277 c 0,57,58
 408 261 408 261 401.5 238.5 c 128,-1,59
 395 216 395 216 387.5 193 c 128,-1,60
 380 170 380 170 373 148 c 128,-1,61
 366 126 366 126 361 110 c 0,62,63
 358 98 358 98 354 83 c 128,-1,64
 350 68 350 68 346.5 53.5 c 128,-1,65
 343 39 343 39 340.5 27 c 128,-1,66
 338 15 338 15 336 9 c 0,67,68
 334 1 334 1 313 -2.5 c 128,-1,69
 292 -6 292 -6 266 -6 c 256,70,71
 240 -6 240 -6 219 -1.5 c 128,-1,72
 198 3 198 3 199 10 c 0,0,1
EndSplineSet
EndChar
StartChar: uni0E09
Encoding: 3593 3593 222
Width: 436
Flags: W
Fore
403 277 m 2,0,1
 410 310 410 310 400 328.5 c 128,-1,2
 390 347 390 347 373.5 356 c 128,-1,3
 357 365 357 365 340 367.5 c 128,-1,4
 323 370 323 370 317 370 c 0,5,6
 272 370 272 370 236.5 352 c 128,-1,7
 201 334 201 334 169 304 c 0,8,9
 162 298 162 298 152.5 305 c 128,-1,10
 143 312 143 312 135 325 c 1,11,12
 147 338 147 338 168.5 352 c 128,-1,13
 190 366 190 366 215.5 378 c 128,-1,14
 241 390 241 390 268.5 397.5 c 128,-1,15
 296 405 296 405 320 405 c 0,16,17
 348 405 348 405 373.5 398 c 128,-1,18
 399 391 399 391 417 376 c 128,-1,19
 435 361 435 361 443 336.5 c 128,-1,20
 451 312 451 312 443 277 c 2,21,-1
 424 185 l 2,22,23
 422 176 422 176 414.5 161.5 c 128,-1,24
 407 147 407 147 398 139 c 1,25,26
 415 128 415 128 422.5 111 c 128,-1,27
 430 94 430 94 425 68 c 0,28,29
 416 27 416 27 392.5 12 c 128,-1,30
 369 -3 369 -3 339 -3 c 256,31,32
 309 -3 309 -3 293.5 13 c 128,-1,33
 278 29 278 29 286 65 c 0,34,35
 291 88 291 88 303.5 100.5 c 128,-1,36
 316 113 316 113 330 123 c 1,37,38
 326 124 326 124 320 124 c 0,39,40
 303 124 303 124 282 113 c 128,-1,41
 261 102 261 102 241.5 84 c 128,-1,42
 222 66 222 66 207 44 c 128,-1,43
 192 22 192 22 187 0 c 1,44,-1
 150 0 l 2,45,46
 146 0 146 0 144 2 c 128,-1,47
 142 4 142 4 145 14 c 0,48,49
 152 30 152 30 162.5 56.5 c 128,-1,50
 173 83 173 83 184 132 c 2,51,-1
 191 166 l 2,52,53
 196 189 196 189 190 203 c 128,-1,54
 184 217 184 217 169 217 c 0,55,56
 152 217 152 217 141 208 c 128,-1,57
 130 199 130 199 127 184 c 0,58,59
 123 169 123 169 129 159 c 128,-1,60
 135 149 135 149 151 149 c 2,61,-1
 178 149 l 1,62,-1
 175 133 l 1,63,-1
 144 114 l 1,64,65
 114 114 114 114 99.5 134 c 128,-1,66
 85 154 85 154 92 184 c 0,67,68
 98 214 98 214 122 232.5 c 128,-1,69
 146 251 146 251 176 251 c 0,70,71
 212 251 212 251 224 227 c 128,-1,72
 236 203 236 203 229 174 c 2,73,74
 229 171 229 171 227.5 164 c 128,-1,75
 226 157 226 157 220 132 c 1,76,77
 218 127 218 127 214.5 115 c 128,-1,78
 211 103 211 103 206 90 c 0,79,80
 201 75 201 75 194 58 c 1,81,82
 221 108 221 108 261.5 132 c 128,-1,83
 302 156 302 156 335 156 c 0,84,85
 349 156 349 156 358.5 154 c 128,-1,86
 368 152 368 152 373 150 c 1,87,88
 376 155 376 155 379 165.5 c 128,-1,89
 382 176 382 176 384 185 c 2,90,-1
 403 277 l 2,0,1
389 70 m 0,91,92
 396 100 396 100 360 115 c 1,93,94
 341 104 341 104 332.5 92.5 c 128,-1,95
 324 81 324 81 322 70 c 0,96,97
 317 49 317 49 323.5 41 c 128,-1,98
 330 33 330 33 347 33 c 256,99,100
 364 33 364 33 374 40.5 c 128,-1,101
 384 48 384 48 389 70 c 0,91,92
EndSplineSet
EndChar
StartChar: uni0E0A
Encoding: 3594 3594 223
Width: 399
Flags: W
Fore
430 424 m 1,0,1
 436 422 436 422 441 418 c 0,2,3
 446 415 446 415 451 411.5 c 128,-1,4
 456 408 456 408 459 403 c 1,5,6
 461 401 461 401 461 397 c 1,7,8
 459 393 459 393 456 390 c 0,9,10
 437 368 437 368 416.5 348.5 c 128,-1,11
 396 329 396 329 375 316 c 1,12,13
 380 312 380 312 386.5 306.5 c 128,-1,14
 393 301 393 301 398.5 292.5 c 128,-1,15
 404 284 404 284 406.5 271 c 128,-1,16
 409 258 409 258 405 240 c 2,17,-1
 378 113 l 2,18,19
 364 47 364 47 323 20.5 c 128,-1,20
 282 -6 282 -6 219 -6 c 0,21,22
 192 -6 192 -6 169.5 -0.5 c 128,-1,23
 147 5 147 5 132.5 17 c 128,-1,24
 118 29 118 29 112 48.5 c 128,-1,25
 106 68 106 68 112 96 c 2,26,-1
 122 145 l 2,27,28
 129 177 129 177 148.5 194.5 c 128,-1,29
 168 212 168 212 189.5 227 c 128,-1,30
 211 242 211 242 230.5 260 c 128,-1,31
 250 278 250 278 257 311 c 0,32,33
 263 340 263 340 252.5 354.5 c 128,-1,34
 242 369 242 369 204 369 c 0,35,36
 182 369 182 369 163 362.5 c 128,-1,37
 144 356 144 356 138 327 c 0,38,39
 135 314 135 314 140.5 303.5 c 128,-1,40
 146 293 146 293 160 293 c 0,41,42
 171 293 171 293 180.5 300.5 c 128,-1,43
 190 308 190 308 193 324 c 2,44,-1
 200 353 l 1,45,-1
 217 353 l 1,46,-1
 228 324 l 1,47,48
 222 294 222 294 202 275.5 c 128,-1,49
 182 257 182 257 152 257 c 256,50,51
 122 257 122 257 109 277.5 c 128,-1,52
 96 298 96 298 102 327 c 0,53,54
 109 359 109 359 139 380.5 c 128,-1,55
 169 402 169 402 215 402 c 0,56,57
 263 402 263 402 282 377 c 128,-1,58
 301 352 301 352 293 314 c 0,59,60
 284 271 284 271 264.5 248.5 c 128,-1,61
 245 226 245 226 224 211.5 c 128,-1,62
 203 197 203 197 185.5 184 c 128,-1,63
 168 171 168 171 162 145 c 2,64,-1
 151 93 l 2,65,66
 147 74 147 74 151.5 61.5 c 128,-1,67
 156 49 156 49 166.5 42 c 128,-1,68
 177 35 177 35 193 32 c 128,-1,69
 209 29 209 29 228 29 c 0,70,71
 274 29 274 29 300 41.5 c 128,-1,72
 326 54 326 54 335 98 c 0,73,74
 337 107 337 107 339 118 c 128,-1,75
 341 129 341 129 344.5 145 c 128,-1,76
 348 161 348 161 352.5 183.5 c 128,-1,77
 357 206 357 206 364 238 c 256,78,79
 371 270 371 270 361 285.5 c 128,-1,80
 351 301 351 301 342 301 c 0,81,82
 336 301 336 301 333 298.5 c 128,-1,83
 330 296 330 296 323 296 c 0,84,85
 320 296 320 296 317 300 c 128,-1,86
 314 304 314 304 312 308.5 c 128,-1,87
 310 313 310 313 310 317 c 128,-1,88
 310 321 310 321 313 322 c 0,89,90
 330 326 330 326 342 330.5 c 128,-1,91
 354 335 354 335 366 344 c 0,92,93
 381 355 381 355 393 369 c 128,-1,94
 405 383 405 383 413 395 c 0,95,96
 423 409 423 409 430 424 c 1,0,1
EndSplineSet
EndChar
StartChar: uni0E0B
Encoding: 3595 3595 224
Width: 413
Flags: W
Fore
201 309 m 1,0,-1
 190 286 l 1,1,2
 168 265 168 265 148 265 c 0,3,4
 119 265 119 265 106.5 285 c 128,-1,5
 94 305 94 305 100 334 c 0,6,7
 108 369 108 369 131 386 c 128,-1,8
 154 403 154 403 177 403 c 0,9,10
 190 403 190 403 199.5 396 c 128,-1,11
 209 389 209 389 215 380 c 0,12,13
 222 369 222 369 227 357 c 1,14,-1
 281 407 l 1,15,16
 298 398 298 398 306 372 c 128,-1,17
 314 346 314 346 308 318 c 0,18,19
 299 275 299 275 278 253.5 c 128,-1,20
 257 232 257 232 234.5 217.5 c 128,-1,21
 212 203 212 203 192.5 188.5 c 128,-1,22
 173 174 173 174 167 145 c 2,23,-1
 155 88 l 2,24,25
 151 69 151 69 156 57.5 c 128,-1,26
 161 46 161 46 172.5 39.5 c 128,-1,27
 184 33 184 33 200.5 31 c 128,-1,28
 217 29 217 29 236 29 c 0,29,30
 282 29 282 29 311 41.5 c 128,-1,31
 340 54 340 54 349 98 c 0,32,33
 351 107 351 107 353 118 c 128,-1,34
 355 129 355 129 358.5 145 c 128,-1,35
 362 161 362 161 366.5 183.5 c 128,-1,36
 371 206 371 206 378 238 c 256,37,38
 385 270 385 270 375 285.5 c 128,-1,39
 365 301 365 301 356 301 c 0,40,41
 350 301 350 301 347 298.5 c 128,-1,42
 344 296 344 296 337 296 c 0,43,44
 334 296 334 296 331 300 c 128,-1,45
 328 304 328 304 326 308.5 c 128,-1,46
 324 313 324 313 324 317 c 128,-1,47
 324 321 324 321 327 322 c 0,48,49
 344 326 344 326 356 330.5 c 128,-1,50
 368 335 368 335 380 344 c 0,51,52
 395 355 395 355 407 369 c 128,-1,53
 419 383 419 383 427 395 c 0,54,55
 437 409 437 409 444 424 c 1,56,57
 450 422 450 422 455 418 c 0,58,59
 460 415 460 415 465 411.5 c 128,-1,60
 470 408 470 408 473 403 c 1,61,62
 475 401 475 401 475 397 c 1,63,64
 473 393 473 393 470 390 c 0,65,66
 451 368 451 368 430.5 348.5 c 128,-1,67
 410 329 410 329 389 316 c 1,68,69
 394 312 394 312 400.5 306.5 c 128,-1,70
 407 301 407 301 412.5 292.5 c 128,-1,71
 418 284 418 284 420.5 271 c 128,-1,72
 423 258 423 258 419 240 c 2,73,-1
 392 113 l 2,74,75
 378 47 378 47 334 20.5 c 128,-1,76
 290 -6 290 -6 227 -6 c 0,77,78
 200 -6 200 -6 177 -1.5 c 128,-1,79
 154 3 154 3 138.5 14.5 c 128,-1,80
 123 26 123 26 116.5 44.5 c 128,-1,81
 110 63 110 63 116 91 c 2,82,-1
 127 145 l 2,83,84
 132 169 132 169 144 185 c 128,-1,85
 156 201 156 201 171 212.5 c 128,-1,86
 186 224 186 224 202.5 233 c 128,-1,87
 219 242 219 242 233.5 253 c 128,-1,88
 248 264 248 264 259.5 279 c 128,-1,89
 271 294 271 294 276 316 c 0,90,91
 280 335 280 335 277.5 348 c 128,-1,92
 275 361 275 361 271 366 c 1,93,-1
 217 318 l 1,94,95
 207 330 207 330 201.5 339.5 c 128,-1,96
 196 349 196 349 191.5 355.5 c 128,-1,97
 187 362 187 362 182.5 365 c 128,-1,98
 178 368 178 368 170 368 c 0,99,100
 157 368 157 368 147.5 358.5 c 128,-1,101
 138 349 138 349 135 335 c 0,102,103
 131 320 131 320 136 310 c 128,-1,104
 141 300 141 300 156 300 c 0,105,106
 162 300 162 300 171 304.5 c 128,-1,107
 180 309 180 309 194 321 c 1,108,-1
 201 309 l 1,0,-1
EndSplineSet
EndChar
StartChar: uni0E0C
Encoding: 3596 3596 225
Width: 634
Flags: W
Fore
375 176 m 1,0,1
 376 182 376 182 378 192.5 c 128,-1,2
 380 203 380 203 381.5 214 c 128,-1,3
 383 225 383 225 384.5 235 c 128,-1,4
 386 245 386 245 387 249 c 0,5,6
 395 288 395 288 393 311.5 c 128,-1,7
 391 335 391 335 379 348.5 c 128,-1,8
 367 362 367 362 347 366.5 c 128,-1,9
 327 371 327 371 299 371 c 0,10,11
 274 371 274 371 248.5 365 c 128,-1,12
 223 359 223 359 201.5 350.5 c 128,-1,13
 180 342 180 342 166.5 334 c 128,-1,14
 153 326 153 326 152 321 c 0,15,16
 151 318 151 318 154.5 312 c 128,-1,17
 158 306 158 306 162.5 300 c 128,-1,18
 167 294 167 294 172 289.5 c 128,-1,19
 177 285 177 285 180 285 c 0,20,21
 188 285 188 285 198.5 291.5 c 128,-1,22
 209 298 209 298 218 298 c 0,23,24
 221 298 221 298 224 293 c 128,-1,25
 227 288 227 288 228.5 282 c 128,-1,26
 230 276 230 276 229.5 271 c 128,-1,27
 229 266 229 266 225 266 c 0,28,29
 210 266 210 266 198 263 c 128,-1,30
 186 260 186 260 175.5 250.5 c 128,-1,31
 165 241 165 241 157 223.5 c 128,-1,32
 149 206 149 206 143 178 c 2,33,-1
 122 77 l 2,34,35
 117 54 117 54 123.5 41.5 c 128,-1,36
 130 29 130 29 145 29 c 0,37,38
 162 29 162 29 173 40 c 128,-1,39
 184 51 184 51 188 66 c 0,40,41
 191 81 191 81 184.5 91.5 c 128,-1,42
 178 102 178 102 163 102 c 2,43,-1
 135 102 l 1,44,-1
 139 118 l 1,45,-1
 171 137 l 1,46,47
 200 137 200 137 215 116.5 c 128,-1,48
 230 96 230 96 224 66 c 0,49,50
 217 36 217 36 192 15 c 128,-1,51
 167 -6 167 -6 137 -6 c 0,52,53
 103 -6 103 -6 88.5 17.5 c 128,-1,54
 74 41 74 41 85 90 c 2,55,-1
 103 178 l 2,56,57
 111 216 111 216 122.5 233.5 c 128,-1,58
 134 251 134 251 154 268 c 1,59,60
 151 270 151 270 143.5 276 c 128,-1,61
 136 282 136 282 128.5 289.5 c 128,-1,62
 121 297 121 297 116 305 c 128,-1,63
 111 313 111 313 112 319 c 0,64,65
 114 328 114 328 131.5 343 c 128,-1,66
 149 358 149 358 176 372 c 128,-1,67
 203 386 203 386 237 396 c 128,-1,68
 271 406 271 406 307 406 c 0,69,70
 341 406 341 406 368 399 c 128,-1,71
 395 392 395 392 411.5 374 c 128,-1,72
 428 356 428 356 432.5 325.5 c 128,-1,73
 437 295 437 295 427 249 c 2,74,-1
 412 178 l 1,75,76
 462 175 462 175 501 148.5 c 128,-1,77
 540 122 540 122 551 71 c 1,78,79
 552 83 552 83 555.5 102 c 128,-1,80
 559 121 559 121 563 141 c 128,-1,81
 567 161 567 161 571 180 c 128,-1,82
 575 199 575 199 577 211 c 2,83,-1
 618 400 l 1,84,-1
 658 400 l 1,85,-1
 620 222 l 2,86,87
 613 189 613 189 606 155 c 128,-1,88
 599 121 599 121 593.5 92.5 c 128,-1,89
 588 64 588 64 584 43 c 128,-1,90
 580 22 580 22 580 14 c 0,91,92
 580 4 580 4 577.5 2 c 128,-1,93
 575 0 575 0 571 0 c 2,94,-1
 532 0 l 1,95,96
 530 66 530 66 499 105 c 128,-1,97
 468 144 468 144 407 149 c 1,98,-1
 397 95 l 2,99,100
 393 75 393 75 389 57 c 128,-1,101
 385 39 385 39 377 25 c 128,-1,102
 369 11 369 11 356 2.5 c 128,-1,103
 343 -6 343 -6 320 -6 c 0,104,105
 290 -6 290 -6 277.5 14 c 128,-1,106
 265 34 265 34 273 75 c 0,107,108
 283 120 283 120 313 145 c 128,-1,109
 343 170 343 170 375 176 c 1,0,1
370 147 m 1,110,111
 351 142 351 142 333.5 124.5 c 128,-1,112
 316 107 316 107 310 77 c 0,113,114
 305 55 305 55 311 42.5 c 128,-1,115
 317 30 317 30 328 30 c 0,116,117
 347 30 347 30 351.5 48.5 c 128,-1,118
 356 67 356 67 361 92 c 0,119,120
 363 99 363 99 365 114.5 c 128,-1,121
 367 130 367 130 370 147 c 1,110,111
EndSplineSet
EndChar
StartChar: uni0E0D
Encoding: 3597 3597 226
Width: 650
Flags: W
Fore
135 102 m 1,0,-1
 139 118 l 1,1,-1
 171 137 l 1,2,3
 200 137 200 137 215 116.5 c 128,-1,4
 230 96 230 96 224 66 c 0,5,6
 217 36 217 36 192 15 c 128,-1,7
 167 -6 167 -6 137 -6 c 0,8,9
 103 -6 103 -6 88.5 17.5 c 128,-1,10
 74 41 74 41 85 90 c 2,11,-1
 103 178 l 2,12,13
 111 216 111 216 122.5 233.5 c 128,-1,14
 134 251 134 251 154 268 c 1,15,16
 151 270 151 270 143.5 276 c 128,-1,17
 136 282 136 282 128.5 289.5 c 128,-1,18
 121 297 121 297 116 305 c 128,-1,19
 111 313 111 313 112 319 c 0,20,21
 114 328 114 328 130 343 c 128,-1,22
 146 358 146 358 171 372 c 128,-1,23
 196 386 196 386 228.5 396 c 128,-1,24
 261 406 261 406 297 406 c 0,25,26
 331 406 331 406 358 399 c 128,-1,27
 385 392 385 392 401.5 374 c 128,-1,28
 418 356 418 356 422.5 325.5 c 128,-1,29
 427 295 427 295 417 249 c 0,30,31
 414 237 414 237 410 220 c 128,-1,32
 402 186 l 128,-1,33
 398 169 398 169 394 153 c 128,-1,34
 390 137 390 137 388 127 c 0,35,36
 383 103 383 103 381.5 84.5 c 128,-1,37
 380 66 380 66 386 56 c 0,38,39
 404 29 404 29 465 29 c 0,40,41
 524 29 524 29 554 56 c 0,42,43
 565 66 565 66 570.5 80.5 c 128,-1,44
 576 95 576 95 581 115 c 0,45,46
 585 132 585 132 590.5 162 c 128,-1,47
 596 192 596 192 601 217 c 2,48,-1
 640 400 l 1,49,-1
 680 400 l 1,50,-1
 623 132 l 2,51,52
 615 94 615 94 606 72.5 c 128,-1,53
 597 51 597 51 580 35 c 0,54,55
 550 8 550 8 517 1 c 128,-1,56
 484 -6 484 -6 457 -6 c 256,57,58
 430 -6 430 -6 400 1 c 128,-1,59
 370 8 370 8 352 35 c 0,60,61
 342 50 342 50 344 75 c 128,-1,62
 346 100 346 100 353 132 c 2,63,-1
 377 249 l 2,64,65
 385 288 385 288 383 311.5 c 128,-1,66
 381 335 381 335 369 348.5 c 128,-1,67
 357 362 357 362 337 366.5 c 128,-1,68
 317 371 317 371 289 371 c 0,69,70
 264 371 264 371 240 365 c 128,-1,71
 216 359 216 359 196.5 350.5 c 128,-1,72
 177 342 177 342 165 334 c 128,-1,73
 153 326 153 326 152 321 c 0,74,75
 151 318 151 318 154.5 312 c 128,-1,76
 158 306 158 306 162.5 300 c 128,-1,77
 167 294 167 294 172 289.5 c 128,-1,78
 177 285 177 285 180 285 c 0,79,80
 188 285 188 285 198.5 291.5 c 128,-1,81
 209 298 209 298 218 298 c 0,82,83
 221 298 221 298 224 293 c 128,-1,84
 227 288 227 288 228.5 282 c 128,-1,85
 230 276 230 276 229.5 271 c 128,-1,86
 229 266 229 266 225 266 c 0,87,88
 210 266 210 266 198 263 c 128,-1,89
 186 260 186 260 175.5 250.5 c 128,-1,90
 165 241 165 241 157 223.5 c 128,-1,91
 149 206 149 206 143 178 c 2,92,-1
 122 77 l 2,93,94
 117 54 117 54 123.5 41.5 c 128,-1,95
 130 29 130 29 145 29 c 0,96,97
 162 29 162 29 173 40 c 128,-1,98
 184 51 184 51 188 66 c 0,99,100
 191 81 191 81 184.5 91.5 c 128,-1,101
 178 102 178 102 163 102 c 2,102,-1
 135 102 l 1,0,-1
577 -48 m 1,103,104
 571 -77 571 -77 560 -101 c 128,-1,105
 549 -125 549 -125 530.5 -142 c 128,-1,106
 512 -159 512 -159 484 -168.5 c 128,-1,107
 456 -178 456 -178 416 -178 c 0,108,109
 360 -178 360 -178 335.5 -157 c 128,-1,110
 311 -136 311 -136 319 -101 c 0,111,112
 326 -71 326 -71 346.5 -56 c 128,-1,113
 367 -41 367 -41 389 -41 c 0,114,115
 412 -41 412 -41 424 -55.5 c 128,-1,116
 436 -70 436 -70 429 -99 c 1,117,-1
 407 -128 l 1,118,-1
 391 -128 l 1,119,-1
 397 -99 l 2,120,121
 400 -85 400 -85 395 -79.5 c 128,-1,122
 390 -74 390 -74 382 -74 c 0,123,124
 358 -74 358 -74 352 -101 c 0,125,126
 347 -126 347 -126 362 -137 c 128,-1,127
 377 -148 377 -148 419 -148 c 0,128,129
 445 -148 445 -148 465 -143.5 c 128,-1,130
 485 -139 485 -139 499 -127.5 c 128,-1,131
 513 -116 513 -116 522.5 -96.5 c 128,-1,132
 532 -77 532 -77 538 -48 c 1,133,-1
 577 -48 l 1,103,104
EndSplineSet
Substitution: 0 65534 'L030' uni0E0D.alt1
Substitution: 0 65534 'L030' uni0E0D.alt1
EndChar
StartChar: uni0E0E
Encoding: 3598 3598 227
Width: 457
Flags: W
Fore
109 100 m 2,0,1
 94 100 94 100 85 89.5 c 128,-1,2
 76 79 76 79 73 64 c 256,3,4
 70 49 70 49 77 39 c 128,-1,5
 84 29 84 29 101 29 c 0,6,7
 116 29 116 29 128 39 c 128,-1,8
 140 49 140 49 145 72 c 0,9,10
 149 90 149 90 149 107 c 128,-1,11
 149 124 149 124 148.5 140.5 c 128,-1,12
 148 157 148 157 148 173 c 128,-1,13
 148 189 148 189 151 204 c 0,14,15
 156 228 156 228 165.5 241 c 128,-1,16
 175 254 175 254 188 267 c 1,17,18
 185 269 185 269 177.5 275.5 c 128,-1,19
 170 282 170 282 162 289.5 c 128,-1,20
 154 297 154 297 148.5 305 c 128,-1,21
 143 313 143 313 144 319 c 0,22,23
 146 328 146 328 162 343 c 128,-1,24
 178 358 178 358 203 372 c 128,-1,25
 228 386 228 386 260.5 396 c 128,-1,26
 293 406 293 406 329 406 c 0,27,28
 363 406 363 406 390 399 c 128,-1,29
 417 392 417 392 433.5 374 c 128,-1,30
 450 356 450 356 454.5 325.5 c 128,-1,31
 459 295 459 295 449 249 c 2,32,-1
 360 -170 l 1,33,-1
 319 -170 l 1,34,35
 314 -157 314 -157 299.5 -140 c 128,-1,36
 285 -123 285 -123 263 -109 c 1,37,38
 243 -132 243 -132 214 -152 c 128,-1,39
 185 -172 185 -172 147 -172 c 0,40,41
 118 -172 118 -172 106 -155 c 128,-1,42
 94 -138 94 -138 99 -115 c 0,43,44
 104 -89 104 -89 130 -72.5 c 128,-1,45
 156 -56 156 -56 189 -56 c 0,46,47
 208 -56 208 -56 225 -60 c 128,-1,48
 242 -64 242 -64 256 -70 c 1,49,50
 260 -63 260 -63 263 -57.5 c 128,-1,51
 266 -52 266 -52 268 -47 c 2,52,53
 271 -42 271 -42 272 -37 c 1,54,55
 278 -39 278 -39 283 -41 c 0,56,57
 294 -45 294 -45 299 -50 c 0,58,59
 301 -52 301 -52 300 -55.5 c 128,-1,60
 299 -59 299 -59 297 -62 c 0,61,62
 295 -66 295 -66 292 -71.5 c 128,-1,63
 289 -77 289 -77 284 -84 c 1,64,65
 300 -95 300 -95 311.5 -107.5 c 128,-1,66
 323 -120 323 -120 330 -131 c 1,67,68
 332 -119 332 -119 336.5 -96.5 c 128,-1,69
 341 -74 341 -74 350 -31.5 c 128,-1,70
 359 11 359 11 373 78.5 c 128,-1,71
 387 146 387 146 409 249 c 0,72,73
 417 288 417 288 415 311.5 c 128,-1,74
 413 335 413 335 401 348.5 c 128,-1,75
 389 362 389 362 369 366.5 c 128,-1,76
 349 371 349 371 321 371 c 0,77,78
 296 371 296 371 272 365 c 128,-1,79
 248 359 248 359 228.5 350.5 c 128,-1,80
 209 342 209 342 197 334 c 128,-1,81
 185 326 185 326 184 321 c 0,82,83
 183 318 183 318 186.5 312 c 128,-1,84
 190 306 190 306 194.5 300 c 128,-1,85
 199 294 199 294 204 289.5 c 128,-1,86
 209 285 209 285 212 285 c 0,87,88
 220 285 220 285 230.5 291.5 c 128,-1,89
 241 298 241 298 250 298 c 0,90,91
 253 298 253 298 256 293 c 128,-1,92
 259 288 259 288 260.5 282 c 128,-1,93
 262 276 262 276 261.5 271 c 128,-1,94
 261 266 261 266 257 266 c 0,95,96
 242 266 242 266 231.5 263 c 128,-1,97
 221 260 221 260 213 253 c 128,-1,98
 205 246 205 246 200 234 c 128,-1,99
 195 222 195 222 191 203 c 0,100,101
 187 186 187 186 186.5 167.5 c 128,-1,102
 186 149 186 149 186 131.5 c 128,-1,103
 186 114 186 114 186 98.5 c 128,-1,104
 186 83 186 83 184 72 c 0,105,106
 176 34 176 34 152 14 c 128,-1,107
 128 -6 128 -6 93 -6 c 0,108,109
 63 -6 63 -6 47.5 14 c 128,-1,110
 32 34 32 34 38 64 c 0,111,112
 45 94 45 94 66.5 113.5 c 128,-1,113
 88 133 88 133 116 133 c 1,114,-1
 135 116 l 1,115,-1
 132 100 l 1,116,-1
 109 100 l 2,0,1
153 -141 m 0,117,118
 180 -141 180 -141 201 -127.5 c 128,-1,119
 222 -114 222 -114 237 -96 c 1,120,121
 225 -91 225 -91 212.5 -88.5 c 128,-1,122
 200 -86 200 -86 186 -86 c 0,123,124
 136 -86 136 -86 130 -117 c 0,125,126
 127 -130 127 -130 133.5 -135.5 c 128,-1,127
 140 -141 140 -141 153 -141 c 0,117,118
EndSplineSet
Substitution: 0 65534 'L030' uni0E0E.alt1
Substitution: 0 65534 'L030' uni0E0E.alt1
EndChar
StartChar: uni0E0F
Encoding: 3599 3599 228
Width: 457
Flags: W
Fore
132 100 m 1,0,-1
 109 100 l 2,1,2
 94 100 94 100 85 89.5 c 128,-1,3
 76 79 76 79 73 64 c 256,4,5
 70 49 70 49 77 39 c 128,-1,6
 84 29 84 29 101 29 c 0,7,8
 116 29 116 29 128 39 c 128,-1,9
 140 49 140 49 145 72 c 0,10,11
 149 90 149 90 149 107 c 128,-1,12
 149 124 149 124 148.5 140.5 c 128,-1,13
 148 157 148 157 148 173 c 128,-1,14
 148 189 148 189 151 204 c 0,15,16
 156 228 156 228 165.5 241 c 128,-1,17
 175 254 175 254 188 267 c 1,18,19
 185 269 185 269 177.5 275.5 c 128,-1,20
 170 282 170 282 162 289.5 c 128,-1,21
 154 297 154 297 148.5 305 c 128,-1,22
 143 313 143 313 144 319 c 0,23,24
 146 328 146 328 162 343 c 128,-1,25
 178 358 178 358 203 372 c 128,-1,26
 228 386 228 386 260.5 396 c 128,-1,27
 293 406 293 406 329 406 c 0,28,29
 363 406 363 406 390 399 c 128,-1,30
 417 392 417 392 433.5 374 c 128,-1,31
 450 356 450 356 454.5 325.5 c 128,-1,32
 459 295 459 295 449 249 c 2,33,-1
 357 -180 l 1,34,-1
 314 -180 l 1,35,-1
 274 -140 l 1,36,-1
 219 -178 l 1,37,-1
 191 -140 l 1,38,39
 171 -160 171 -160 153 -168 c 128,-1,40
 135 -176 135 -176 115 -176 c 0,41,42
 89 -176 89 -176 78 -158 c 128,-1,43
 67 -140 67 -140 72 -120 c 0,44,45
 78 -91 78 -91 97.5 -74.5 c 128,-1,46
 117 -58 117 -58 140 -58 c 0,47,48
 160 -58 160 -58 173 -68.5 c 128,-1,49
 186 -79 186 -79 194 -88 c 1,50,51
 199 -79 199 -79 204 -65 c 128,-1,52
 209 -51 209 -51 211 -43 c 1,53,54
 216 -43 216 -43 220 -44 c 0,55,56
 229 -46 229 -46 236 -50 c 0,57,58
 239 -52 239 -52 238.5 -55.5 c 128,-1,59
 238 -59 238 -59 236 -64 c 0,60,61
 234 -71 234 -71 229.5 -78.5 c 128,-1,62
 225 -86 225 -86 220 -93 c 0,63,64
 210 -109 l 1,65,-1
 231 -137 l 1,66,-1
 280 -104 l 1,67,-1
 327 -144 l 1,68,69
 330 -132 330 -132 335 -107.5 c 128,-1,70
 340 -83 340 -83 349 -38 c 128,-1,71
 358 7 358 7 372.5 76.5 c 128,-1,72
 387 146 387 146 409 249 c 0,73,74
 417 288 417 288 415 311.5 c 128,-1,75
 413 335 413 335 401 348.5 c 128,-1,76
 389 362 389 362 369 366.5 c 128,-1,77
 349 371 349 371 321 371 c 0,78,79
 296 371 296 371 272 365 c 128,-1,80
 248 359 248 359 228.5 350.5 c 128,-1,81
 209 342 209 342 197 334 c 128,-1,82
 185 326 185 326 184 321 c 0,83,84
 183 318 183 318 186.5 312 c 128,-1,85
 190 306 190 306 194.5 300 c 128,-1,86
 199 294 199 294 204 289.5 c 128,-1,87
 209 285 209 285 212 285 c 0,88,89
 220 285 220 285 230.5 291.5 c 128,-1,90
 241 298 241 298 250 298 c 0,91,92
 253 298 253 298 256 293 c 128,-1,93
 259 288 259 288 260.5 282 c 128,-1,94
 262 276 262 276 261.5 271 c 128,-1,95
 261 266 261 266 257 266 c 0,96,97
 242 266 242 266 231.5 263 c 128,-1,98
 221 260 221 260 213 253 c 128,-1,99
 205 246 205 246 200 234 c 128,-1,100
 195 222 195 222 191 203 c 0,101,102
 187 186 187 186 186.5 167.5 c 128,-1,103
 186 149 186 149 186 131.5 c 128,-1,104
 186 114 186 114 186 98.5 c 128,-1,105
 186 83 186 83 184 72 c 0,106,107
 176 34 176 34 152 14 c 128,-1,108
 128 -6 128 -6 93 -6 c 0,109,110
 63 -6 63 -6 47.5 14 c 128,-1,111
 32 34 32 34 38 64 c 0,112,113
 45 94 45 94 66.5 113.5 c 128,-1,114
 88 133 88 133 116 133 c 1,115,-1
 135 116 l 1,116,-1
 132 100 l 1,0,-1
176 -118 m 1,117,118
 166 -104 166 -104 157 -96.5 c 128,-1,119
 148 -89 148 -89 136 -89 c 256,120,121
 124 -89 124 -89 115 -96.5 c 128,-1,122
 106 -104 106 -104 103 -119 c 0,123,124
 98 -145 98 -145 125 -145 c 0,125,126
 137 -145 137 -145 149.5 -140.5 c 128,-1,127
 162 -136 162 -136 176 -118 c 1,117,118
EndSplineSet
Substitution: 0 65534 'L030' uni0E0F.alt1
Substitution: 0 65534 'L030' uni0E0F.alt1
EndChar
StartChar: uni0E10
Encoding: 3600 3600 229
Width: 409
Flags: W
Fore
121 -143 m 1,0,1
 104 -118 104 -118 83 -118 c 0,2,3
 61 -118 61 -118 55 -144 c 0,4,5
 49 -169 49 -169 74 -169 c 0,6,7
 85 -169 85 -169 96.5 -164.5 c 128,-1,8
 108 -160 108 -160 121 -143 c 1,0,1
198 94 m 1,9,-1
 165 76 l 1,10,11
 135 76 135 76 120 94 c 128,-1,12
 105 112 105 112 112 142 c 0,13,14
 118 172 118 172 141.5 190.5 c 128,-1,15
 165 209 165 209 195 209 c 0,16,17
 223 209 223 209 236.5 196 c 128,-1,18
 250 183 250 183 253 160 c 128,-1,19
 256 137 256 137 250 104.5 c 128,-1,20
 244 72 244 72 234 33 c 0,21,22
 233 30 233 30 243.5 28 c 128,-1,23
 254 26 254 26 265 26 c 256,24,25
 276 26 276 26 286.5 28 c 128,-1,26
 297 30 297 30 299 34 c 0,27,28
 312 79 312 79 326 124 c 128,-1,29
 340 169 340 169 348 204 c 0,30,31
 350 214 350 214 349.5 224 c 128,-1,32
 349 234 349 234 341 242 c 128,-1,33
 333 250 333 250 314.5 255 c 128,-1,34
 296 260 296 260 263 260 c 0,35,36
 232 260 232 260 204 256 c 128,-1,37
 176 252 176 252 156 252 c 0,38,39
 127 252 127 252 120.5 270.5 c 128,-1,40
 114 289 114 289 120 316 c 0,41,42
 128 357 128 357 155.5 378.5 c 128,-1,43
 183 400 183 400 220 400 c 0,44,45
 227 400 227 400 241 399 c 128,-1,46
 255 398 255 398 272 396.5 c 128,-1,47
 289 395 289 395 306.5 394 c 128,-1,48
 324 393 324 393 338 393 c 0,49,50
 356 393 356 393 374 395.5 c 128,-1,51
 392 398 392 398 407 401 c 0,52,53
 425 405 425 405 440 409 c 1,54,55
 442 395 l 0,56,57
 443 389 443 389 443.5 383 c 128,-1,58
 444 377 444 377 443 372 c 0,59,60
 442 366 442 366 431 362 c 0,61,62
 420 359 420 359 390 356 c 128,-1,63
 360 353 360 353 331 353 c 0,64,65
 318 353 318 353 300.5 355 c 128,-1,66
 283 357 283 357 266 359 c 128,-1,67
 249 361 249 361 234.5 363 c 128,-1,68
 220 365 220 365 214 365 c 0,69,70
 185 365 185 365 173 352.5 c 128,-1,71
 161 340 161 340 156 317 c 0,72,73
 152 298 152 298 156 293 c 128,-1,74
 160 288 160 288 180 288 c 256,75,76
 200 288 200 288 231.5 292 c 128,-1,77
 263 296 263 296 298 296 c 0,78,79
 351 296 351 296 374 272 c 128,-1,80
 397 248 397 248 389 210 c 0,81,82
 386 196 386 196 379 173.5 c 128,-1,83
 372 151 372 151 363 124 c 128,-1,84
 354 97 354 97 344.5 68 c 128,-1,85
 335 39 335 39 327 12 c 0,86,87
 325 4 325 4 305 0.5 c 128,-1,88
 285 -3 285 -3 262 -3 c 0,89,90
 237 -3 237 -3 214.5 1 c 128,-1,91
 192 5 192 5 194 13 c 0,92,93
 204 54 204 54 211 84 c 128,-1,94
 218 114 218 114 219 133.5 c 128,-1,95
 220 153 220 153 212.5 163 c 128,-1,96
 205 173 205 173 187 173 c 0,97,98
 173 173 173 173 161.5 164 c 128,-1,99
 150 155 150 155 148 142 c 0,100,101
 145 131 145 131 151 121 c 128,-1,102
 157 111 157 111 172 111 c 2,103,-1
 202 111 l 1,104,-1
 198 94 l 1,9,-1
137 -118 m 1,105,106
 143 -109 143 -109 147.5 -94.5 c 128,-1,107
 152 -80 152 -80 154 -72 c 1,108,109
 159 -72 159 -72 163 -73 c 0,110,111
 172 -75 172 -75 179 -79 c 0,112,113
 182 -81 182 -81 181.5 -84.5 c 128,-1,114
 181 -88 181 -88 179 -93 c 0,115,116
 177 -100 177 -100 172.5 -107.5 c 128,-1,117
 168 -115 168 -115 163 -122 c 0,118,119
 158 -130 158 -130 152 -138 c 1,120,-1
 171 -162 l 1,121,-1
 214 -141 l 1,122,-1
 258 -167 l 1,123,124
 263 -146 263 -146 277 -132 c 128,-1,125
 291 -118 291 -118 296 -97 c 0,126,127
 298 -86 298 -86 294.5 -77 c 128,-1,128
 291 -68 291 -68 279 -68 c 0,129,130
 257 -68 257 -68 252 -91 c 0,131,132
 250 -99 250 -99 253 -103.5 c 128,-1,133
 256 -108 256 -108 259 -111 c 2,134,-1
 270 -121 l 1,135,-1
 259 -132 l 1,136,-1
 237 -128 l 1,137,138
 230 -121 230 -121 226.5 -112 c 128,-1,139
 223 -103 223 -103 225 -93 c 0,140,141
 230 -68 230 -68 247.5 -54 c 128,-1,142
 265 -40 265 -40 287 -40 c 0,143,144
 316 -40 316 -40 325 -58 c 128,-1,145
 334 -76 334 -76 329 -96 c 0,146,147
 325 -114 325 -114 309 -138.5 c 128,-1,148
 293 -163 293 -163 286 -196 c 1,149,-1
 241 -196 l 1,150,-1
 208 -173 l 1,151,-1
 159 -198 l 1,152,-1
 134 -164 l 1,153,154
 116 -182 116 -182 100 -189.5 c 128,-1,155
 84 -197 84 -197 66 -197 c 0,156,157
 42 -197 42 -197 32 -180.5 c 128,-1,158
 22 -164 22 -164 27 -145 c 0,159,160
 32 -119 32 -119 50 -104 c 128,-1,161
 68 -89 68 -89 89 -89 c 0,162,163
 107 -89 107 -89 119 -99.5 c 128,-1,164
 131 -110 131 -110 137 -118 c 1,105,106
EndSplineSet
Substitution: 0 65534 'L030' uni0E10.alt1
Substitution: 0 65534 'L030' uni0E10.alt1
EndChar
StartChar: uni0E11
Encoding: 3601 3601 230
Width: 461
Flags: W
Fore
182 313 m 1,0,-1
 172 292 l 1,1,2
 151 272 151 272 129 272 c 0,3,4
 104 272 104 272 92 289.5 c 128,-1,5
 80 307 80 307 85 334 c 0,6,7
 93 369 93 369 114.5 386 c 128,-1,8
 136 403 136 403 155 403 c 0,9,10
 168 403 168 403 177 397.5 c 128,-1,11
 186 392 186 392 191 385 c 0,12,13
 197 377 197 377 201 367 c 1,14,-1
 246 407 l 1,15,16
 260 396 260 396 269 381 c 128,-1,17
 278 366 278 366 273 340 c 0,18,19
 267 312 267 312 254 295.5 c 128,-1,20
 241 279 241 279 227 265 c 128,-1,21
 213 251 213 251 199.5 233.5 c 128,-1,22
 186 216 186 216 180 184 c 2,23,-1
 162 114 l 1,24,25
 176 139 176 139 196 170 c 128,-1,26
 216 201 216 201 238 233 c 128,-1,27
 260 265 260 265 284.5 296 c 128,-1,28
 309 327 309 327 333 350.5 c 128,-1,29
 357 374 357 374 379.5 388.5 c 128,-1,30
 402 403 402 403 421 403 c 0,31,32
 463 403 463 403 473 382.5 c 128,-1,33
 483 362 483 362 473 317 c 2,34,-1
 406 0 l 1,35,-1
 366 0 l 1,36,-1
 433 317 l 2,37,38
 437 335 437 335 436 344 c 128,-1,39
 435 353 435 353 431 357 c 128,-1,40
 427 361 427 361 422 361.5 c 128,-1,41
 417 362 417 362 412 362 c 0,42,43
 397 362 397 362 376 346 c 128,-1,44
 355 330 355 330 331 304 c 128,-1,45
 307 278 307 278 282 244 c 128,-1,46
 257 210 257 210 233.5 175 c 128,-1,47
 210 140 210 140 188.5 105.5 c 128,-1,48
 167 71 167 71 151 44 c 1,49,-1
 141 0 l 1,50,-1
 107 0 l 2,51,52
 103 0 103 0 101 2 c 128,-1,53
 99 4 99 4 102 14 c 0,54,55
 109 30 109 30 119 72.5 c 128,-1,56
 129 115 129 115 143 182 c 0,57,58
 150 215 150 215 164.5 235.5 c 128,-1,59
 179 256 179 256 195 271.5 c 128,-1,60
 211 287 211 287 224.5 301 c 128,-1,61
 238 315 238 315 242 336 c 0,62,63
 244 344 244 344 243.5 350.5 c 128,-1,64
 243 357 243 357 241 362 c 256,65,66
 239 367 239 367 237 371 c 1,67,-1
 191 330 l 1,68,69
 178 354 178 354 171 362 c 128,-1,70
 164 370 164 370 152 370 c 0,71,72
 139 370 139 370 130 359.5 c 128,-1,73
 121 349 121 349 118 335 c 0,74,75
 115 322 115 322 120.5 313.5 c 128,-1,76
 126 305 126 305 139 305 c 0,77,78
 145 305 145 305 153 309 c 128,-1,79
 161 313 161 313 175 325 c 1,80,-1
 182 313 l 1,0,-1
EndSplineSet
EndChar
StartChar: uni0E12
Encoding: 3602 3602 231
Width: 649
Flags: W
Fore
223 168 m 1,0,-1
 193 172 l 1,1,2
 185 183 185 183 183 195 c 128,-1,3
 181 207 181 207 183 220 c 0,4,5
 190 249 190 249 214.5 269.5 c 128,-1,6
 239 290 239 290 268 290 c 0,7,8
 285 290 285 290 296.5 283.5 c 128,-1,9
 308 277 308 277 315 267.5 c 128,-1,10
 322 258 322 258 323.5 246.5 c 128,-1,11
 325 235 325 235 323 223 c 0,12,13
 317 196 317 196 304.5 181 c 128,-1,14
 292 166 292 166 266 150 c 0,15,16
 241 134 241 134 218 118.5 c 128,-1,17
 195 103 195 103 175.5 85.5 c 128,-1,18
 156 68 156 68 142.5 47 c 128,-1,19
 129 26 129 26 124 0 c 1,20,-1
 85 0 l 2,21,22
 81 0 81 0 79 2 c 128,-1,23
 77 4 77 4 80 14 c 0,24,25
 87 30 87 30 98 47 c 128,-1,26
 109 64 109 64 122 78 c 0,27,28
 130 87 130 87 127 92 c 0,29,30
 121 100 121 100 112.5 109.5 c 128,-1,31
 104 119 104 119 99 135 c 128,-1,32
 94 151 94 151 93 176.5 c 128,-1,33
 92 202 92 202 101 242 c 0,34,35
 115 306 115 306 146.5 346 c 128,-1,36
 178 386 178 386 236 406 c 1,37,-1
 300 364 l 1,38,-1
 380 408 l 1,39,40
 410 403 410 403 425 389 c 128,-1,41
 440 375 440 375 445 353.5 c 128,-1,42
 450 332 450 332 446.5 302.5 c 128,-1,43
 443 273 443 273 435 236 c 2,44,-1
 423 181 l 1,45,46
 473 178 473 178 514 150.5 c 128,-1,47
 555 123 555 123 566 72 c 1,48,49
 568 84 568 84 571 102.5 c 128,-1,50
 574 121 574 121 578 141.5 c 128,-1,51
 582 162 582 162 586 180.5 c 128,-1,52
 590 199 590 199 592 211 c 2,53,-1
 633 400 l 1,54,-1
 673 400 l 1,55,-1
 635 222 l 2,56,57
 628 189 628 189 621 155 c 128,-1,58
 614 121 614 121 608.5 92.5 c 128,-1,59
 603 64 603 64 599 43 c 128,-1,60
 595 22 595 22 595 14 c 0,61,62
 595 4 595 4 592.5 2 c 128,-1,63
 590 0 590 0 586 0 c 2,64,-1
 547 0 l 1,65,66
 545 66 545 66 511.5 105 c 128,-1,67
 478 144 478 144 417 149 c 1,68,-1
 407 95 l 2,69,70
 403 75 403 75 399 57 c 128,-1,71
 395 39 395 39 387 25 c 128,-1,72
 379 11 379 11 366 2.5 c 128,-1,73
 353 -6 353 -6 330 -6 c 0,74,75
 300 -6 300 -6 287.5 14 c 128,-1,76
 275 34 275 34 283 75 c 0,77,78
 288 97 288 97 298.5 115 c 128,-1,79
 309 133 309 133 323 146 c 128,-1,80
 337 159 337 159 353.5 167.5 c 128,-1,81
 370 176 370 176 386 179 c 1,82,83
 388 192 388 192 390 208.5 c 128,-1,84
 392 225 392 225 396 248 c 0,85,86
 401 274 401 274 405 295 c 128,-1,87
 409 316 409 316 408 331 c 128,-1,88
 407 346 407 346 398.5 356 c 128,-1,89
 390 366 390 366 370 371 c 1,90,-1
 292 329 l 1,91,-1
 232 370 l 1,92,93
 196 359 196 359 174 326 c 128,-1,94
 152 293 152 293 141 242 c 0,95,96
 133 205 133 205 133 182 c 128,-1,97
 133 159 133 159 137 144.5 c 128,-1,98
 141 130 141 130 147 121 c 128,-1,99
 153 112 153 112 156 103 c 1,100,101
 162 109 162 109 175 119.5 c 128,-1,102
 188 130 188 130 203 141 c 128,-1,103
 218 152 218 152 232 161.5 c 128,-1,104
 246 171 246 171 253 175 c 0,105,106
 270 186 270 186 277.5 197 c 128,-1,107
 285 208 285 208 287 218 c 0,108,109
 291 235 291 235 283.5 245 c 128,-1,110
 276 255 276 255 262 255 c 0,111,112
 247 255 247 255 234 244.5 c 128,-1,113
 221 234 221 234 218 219 c 0,114,115
 215 207 215 207 223 197 c 2,116,-1
 237 178 l 1,117,-1
 223 168 l 1,0,-1
380 147 m 1,118,119
 361 142 361 142 343.5 124.5 c 128,-1,120
 326 107 326 107 320 77 c 0,121,122
 315 55 315 55 321 42.5 c 128,-1,123
 327 30 327 30 338 30 c 0,124,125
 347 30 347 30 352.5 35 c 128,-1,126
 358 40 358 40 361 48.5 c 128,-1,127
 364 57 364 57 366 68.5 c 128,-1,128
 368 80 368 80 371 92 c 0,129,130
 373 99 373 99 375 114.5 c 128,-1,131
 377 130 377 130 380 147 c 1,118,119
EndSplineSet
EndChar
StartChar: uni0E13
Encoding: 3603 3603 232
Width: 638
Flags: W
Fore
139 119 m 1,0,-1
 171 138 l 1,1,2
 200 138 200 138 215 117 c 128,-1,3
 230 96 230 96 224 66 c 0,4,5
 217 36 217 36 191.5 15 c 128,-1,6
 166 -6 166 -6 136 -6 c 0,7,8
 98 -6 98 -6 86 16 c 128,-1,9
 74 38 74 38 83 80 c 2,10,-1
 103 178 l 2,11,12
 111 216 111 216 122.5 233.5 c 128,-1,13
 134 251 134 251 154 268 c 1,14,15
 151 270 151 270 143.5 276 c 128,-1,16
 136 282 136 282 128.5 289.5 c 128,-1,17
 121 297 121 297 116 305 c 128,-1,18
 111 313 111 313 112 319 c 0,19,20
 114 328 114 328 130 343 c 128,-1,21
 146 358 146 358 171 372 c 128,-1,22
 196 386 196 386 228.5 396 c 128,-1,23
 261 406 261 406 297 406 c 0,24,25
 331 406 331 406 356.5 399 c 128,-1,26
 382 392 382 392 396.5 374 c 128,-1,27
 411 356 411 356 414 325.5 c 128,-1,28
 417 295 417 295 407 249 c 2,29,-1
 392 177 l 1,30,-1
 372 91 l 1,31,32
 404 129 404 129 446 149 c 128,-1,33
 488 169 488 169 521 169 c 0,34,35
 550 169 550 169 575 160 c 1,36,37
 579 167 579 167 583 185 c 2,38,-1
 629 400 l 1,39,-1
 669 400 l 1,40,-1
 623 185 l 2,41,42
 618 165 618 165 599 149 c 1,43,44
 616 138 616 138 624.5 118.5 c 128,-1,45
 633 99 633 99 628 73 c 0,46,47
 620 32 620 32 594 14.5 c 128,-1,48
 568 -3 568 -3 538 -3 c 256,49,50
 508 -3 508 -3 491.5 15.5 c 128,-1,51
 475 34 475 34 483 70 c 0,52,53
 488 93 488 93 504 109 c 128,-1,54
 520 125 520 125 534 135 c 1,55,56
 526 137 526 137 512 137 c 0,57,58
 488 137 488 137 462 125 c 128,-1,59
 436 113 436 113 414 94 c 128,-1,60
 392 75 392 75 375.5 50.5 c 128,-1,61
 359 26 359 26 354 0 c 1,62,-1
 320 0 l 2,63,64
 316 0 316 0 314 2 c 128,-1,65
 312 4 312 4 315 14 c 0,66,67
 318 22 318 22 324 47 c 128,-1,68
 330 72 330 72 337.5 106 c 128,-1,69
 345 140 345 140 352.5 178 c 128,-1,70
 360 216 360 216 367 249 c 0,71,72
 375 288 375 288 374.5 311.5 c 128,-1,73
 374 335 374 335 364 348.5 c 128,-1,74
 354 362 354 362 335.5 366.5 c 128,-1,75
 317 371 317 371 289 371 c 0,76,77
 264 371 264 371 240 365 c 128,-1,78
 216 359 216 359 196.5 350.5 c 128,-1,79
 177 342 177 342 165 334 c 128,-1,80
 153 326 153 326 152 321 c 0,81,82
 151 318 151 318 154.5 312 c 128,-1,83
 158 306 158 306 162.5 300 c 128,-1,84
 167 294 167 294 172 289.5 c 128,-1,85
 177 285 177 285 180 285 c 0,86,87
 188 285 188 285 198.5 291.5 c 128,-1,88
 209 298 209 298 218 298 c 0,89,90
 221 298 221 298 224 293 c 128,-1,91
 227 288 227 288 228.5 282 c 128,-1,92
 230 276 230 276 229.5 271 c 128,-1,93
 229 266 229 266 225 266 c 0,94,95
 210 266 210 266 198 263 c 128,-1,96
 186 260 186 260 175.5 250.5 c 128,-1,97
 165 241 165 241 157 223.5 c 128,-1,98
 149 206 149 206 143 178 c 2,99,-1
 123 80 l 2,100,101
 118 57 118 57 123.5 43 c 128,-1,102
 129 29 129 29 144 29 c 0,103,104
 161 29 161 29 172.5 40 c 128,-1,105
 184 51 184 51 188 66 c 0,106,107
 191 81 191 81 184.5 92 c 128,-1,108
 178 103 178 103 163 103 c 2,109,-1
 135 103 l 1,110,-1
 139 119 l 1,0,-1
592 75 m 0,111,112
 600 109 600 109 561 125 c 1,113,114
 542 114 542 114 531.5 100 c 128,-1,115
 521 86 521 86 519 75 c 0,116,117
 510 33 510 33 546 33 c 0,118,119
 583 33 583 33 592 75 c 0,111,112
EndSplineSet
EndChar
StartChar: uni0E14
Encoding: 3604 3604 233
Width: 425
Flags: W
Fore
101 242 m 0,0,1
 118 320 118 320 171.5 363 c 128,-1,2
 225 406 225 406 296 406 c 0,3,4
 344 406 344 406 373 396 c 128,-1,5
 402 386 402 386 415.5 365 c 128,-1,6
 429 344 429 344 429 312 c 128,-1,7
 429 280 429 280 420 236 c 2,8,-1
 369 -1 l 1,9,-1
 329 -1 l 1,10,-1
 378 226 l 2,11,12
 386 265 386 265 388.5 293 c 128,-1,13
 391 321 391 321 382 338 c 128,-1,14
 373 355 373 355 351 363 c 128,-1,15
 329 371 329 371 288 371 c 0,16,17
 235 371 235 371 195 339.5 c 128,-1,18
 155 308 155 308 141 242 c 0,19,20
 133 205 133 205 133 182 c 128,-1,21
 133 159 133 159 137 144.5 c 128,-1,22
 141 130 141 130 147 121 c 128,-1,23
 153 112 153 112 156 103 c 1,24,25
 162 109 162 109 177 119.5 c 128,-1,26
 192 130 192 130 209 141.5 c 128,-1,27
 226 153 226 153 241.5 162.5 c 128,-1,28
 257 172 257 172 263 176 c 0,29,30
 280 187 280 187 287.5 197.5 c 128,-1,31
 295 208 295 208 297 218 c 0,32,33
 301 235 301 235 293.5 245 c 128,-1,34
 286 255 286 255 272 255 c 0,35,36
 257 255 257 255 244 244.5 c 128,-1,37
 231 234 231 234 228 219 c 0,38,39
 225 207 225 207 233 197 c 2,40,-1
 247 178 l 1,41,-1
 233 168 l 1,42,-1
 203 172 l 1,43,44
 195 183 195 183 193 195 c 128,-1,45
 191 207 191 207 193 220 c 0,46,47
 200 249 200 249 224.5 269.5 c 128,-1,48
 249 290 249 290 278 290 c 0,49,50
 295 290 295 290 306.5 283.5 c 128,-1,51
 318 277 318 277 325 267.5 c 128,-1,52
 332 258 332 258 333.5 246.5 c 128,-1,53
 335 235 335 235 333 223 c 0,54,55
 327 196 327 196 314.5 181 c 128,-1,56
 302 166 302 166 276 150 c 0,57,58
 251 134 251 134 226.5 118.5 c 128,-1,59
 202 103 202 103 181 85.5 c 128,-1,60
 160 68 160 68 144.5 47 c 128,-1,61
 129 26 129 26 124 0 c 1,62,-1
 85 0 l 2,63,64
 81 0 81 0 79 2 c 128,-1,65
 77 4 77 4 80 14 c 0,66,67
 87 30 87 30 98 47 c 128,-1,68
 109 64 109 64 122 78 c 0,69,70
 130 87 130 87 127 92 c 0,71,72
 121 100 121 100 112.5 109.5 c 128,-1,73
 104 119 104 119 99 135 c 128,-1,74
 94 151 94 151 93 176.5 c 128,-1,75
 92 202 92 202 101 242 c 0,0,1
EndSplineSet
EndChar
StartChar: uni0E15
Encoding: 3605 3605 234
Width: 435
Flags: W
Fore
289 329 m 1,0,-1
 232 370 l 1,1,2
 196 359 196 359 174 326 c 128,-1,3
 152 293 152 293 141 242 c 0,4,5
 133 205 133 205 133 182 c 128,-1,6
 133 159 133 159 137 144.5 c 128,-1,7
 141 130 141 130 147 121 c 128,-1,8
 153 112 153 112 156 103 c 1,9,10
 162 109 162 109 177 119.5 c 128,-1,11
 192 130 192 130 209 141.5 c 128,-1,12
 226 153 226 153 241.5 162.5 c 128,-1,13
 257 172 257 172 263 176 c 0,14,15
 280 187 280 187 287.5 197.5 c 128,-1,16
 295 208 295 208 297 218 c 0,17,18
 301 235 301 235 293.5 245 c 128,-1,19
 286 255 286 255 272 255 c 0,20,21
 257 255 257 255 244 244.5 c 128,-1,22
 231 234 231 234 228 219 c 0,23,24
 225 207 225 207 233 197 c 2,25,-1
 247 178 l 1,26,-1
 233 168 l 1,27,-1
 203 172 l 1,28,29
 195 183 195 183 193 195 c 128,-1,30
 191 207 191 207 193 220 c 0,31,32
 200 249 200 249 224.5 269.5 c 128,-1,33
 249 290 249 290 278 290 c 0,34,35
 295 290 295 290 306.5 283.5 c 128,-1,36
 318 277 318 277 325 267.5 c 128,-1,37
 332 258 332 258 333.5 246.5 c 128,-1,38
 335 235 335 235 333 223 c 0,39,40
 327 196 327 196 314.5 181 c 128,-1,41
 302 166 302 166 276 150 c 0,42,43
 251 134 251 134 226.5 118.5 c 128,-1,44
 202 103 202 103 181 85.5 c 128,-1,45
 160 68 160 68 144.5 47 c 128,-1,46
 129 26 129 26 124 0 c 1,47,-1
 85 0 l 2,48,49
 81 0 81 0 79 2 c 128,-1,50
 77 4 77 4 80 14 c 0,51,52
 87 30 87 30 98 47 c 128,-1,53
 109 64 109 64 122 78 c 0,54,55
 130 87 130 87 127 92 c 0,56,57
 121 100 121 100 112.5 109.5 c 128,-1,58
 104 119 104 119 99 135 c 128,-1,59
 94 151 94 151 93 176.5 c 128,-1,60
 92 202 92 202 101 242 c 0,61,62
 115 306 115 306 146.5 346 c 128,-1,63
 178 386 178 386 236 406 c 1,64,-1
 297 364 l 1,65,-1
 370 408 l 1,66,67
 400 403 400 403 416 389 c 128,-1,68
 432 375 432 375 437.5 353.5 c 128,-1,69
 443 332 443 332 440.5 302.5 c 128,-1,70
 438 273 438 273 430 236 c 2,71,-1
 380 0 l 1,72,-1
 340 0 l 1,73,-1
 392 248 l 2,74,75
 398 274 398 274 401 295 c 128,-1,76
 404 316 404 316 402 331 c 128,-1,77
 400 346 400 346 390 356 c 128,-1,78
 380 366 380 366 360 371 c 1,79,-1
 289 329 l 1,0,-1
EndSplineSet
EndChar
StartChar: uni0E16
Encoding: 3606 3606 235
Width: 420
Flags: W
Fore
135 102 m 1,0,-1
 139 118 l 1,1,-1
 171 137 l 1,2,3
 200 137 200 137 215 116.5 c 128,-1,4
 230 96 230 96 224 66 c 0,5,6
 217 36 217 36 192 15 c 128,-1,7
 167 -6 167 -6 137 -6 c 0,8,9
 103 -6 103 -6 88.5 17.5 c 128,-1,10
 74 41 74 41 85 90 c 2,11,-1
 103 178 l 2,12,13
 111 216 111 216 122.5 233.5 c 128,-1,14
 134 251 134 251 154 268 c 1,15,16
 151 270 151 270 143.5 276 c 128,-1,17
 136 282 136 282 128.5 289.5 c 128,-1,18
 121 297 121 297 116 305 c 128,-1,19
 111 313 111 313 112 319 c 0,20,21
 114 328 114 328 130 343 c 128,-1,22
 146 358 146 358 171 372 c 128,-1,23
 196 386 196 386 228.5 396 c 128,-1,24
 261 406 261 406 297 406 c 0,25,26
 331 406 331 406 358 399 c 128,-1,27
 385 392 385 392 401.5 374 c 128,-1,28
 418 356 418 356 422.5 325.5 c 128,-1,29
 427 295 427 295 417 249 c 2,30,-1
 365 0 l 1,31,-1
 325 0 l 1,32,-1
 377 249 l 2,33,34
 385 288 385 288 383 311.5 c 128,-1,35
 381 335 381 335 369 348.5 c 128,-1,36
 357 362 357 362 337 366.5 c 128,-1,37
 317 371 317 371 289 371 c 0,38,39
 264 371 264 371 240 365 c 128,-1,40
 216 359 216 359 196.5 350.5 c 128,-1,41
 177 342 177 342 165 334 c 128,-1,42
 153 326 153 326 152 321 c 0,43,44
 151 318 151 318 154.5 312 c 128,-1,45
 158 306 158 306 162.5 300 c 128,-1,46
 167 294 167 294 172 289.5 c 128,-1,47
 177 285 177 285 180 285 c 0,48,49
 188 285 188 285 198.5 291.5 c 128,-1,50
 209 298 209 298 218 298 c 0,51,52
 221 298 221 298 224 293 c 128,-1,53
 227 288 227 288 228.5 282 c 128,-1,54
 230 276 230 276 229.5 271 c 128,-1,55
 229 266 229 266 225 266 c 0,56,57
 210 266 210 266 198 263 c 128,-1,58
 186 260 186 260 175.5 250.5 c 128,-1,59
 165 241 165 241 157 223.5 c 128,-1,60
 149 206 149 206 143 178 c 2,61,-1
 122 77 l 2,62,63
 117 54 117 54 123.5 41.5 c 128,-1,64
 130 29 130 29 145 29 c 0,65,66
 162 29 162 29 173 40 c 128,-1,67
 184 51 184 51 188 66 c 0,68,69
 191 81 191 81 184.5 91.5 c 128,-1,70
 178 102 178 102 163 102 c 2,71,-1
 135 102 l 1,0,-1
EndSplineSet
EndChar
StartChar: uni0E17
Encoding: 3607 3607 236
Width: 478
Flags: W
Fore
185 298 m 1,0,-1
 181 282 l 1,1,-1
 154 264 l 1,2,3
 125 264 125 264 112 284.5 c 128,-1,4
 99 305 99 305 106 335 c 0,5,6
 112 365 112 365 138 386 c 128,-1,7
 164 407 164 407 194 407 c 0,8,9
 229 407 229 407 243.5 386.5 c 128,-1,10
 258 366 258 366 250 328 c 0,11,12
 248 317 248 317 243 306.5 c 128,-1,13
 238 296 238 296 231.5 283.5 c 128,-1,14
 225 271 225 271 218.5 255.5 c 128,-1,15
 212 240 212 240 206 219 c 2,16,-1
 181 126 l 1,17,18
 204 177 204 177 233.5 226.5 c 128,-1,19
 263 276 263 276 295.5 315.5 c 128,-1,20
 328 355 328 355 362 379 c 128,-1,21
 396 403 396 403 427 403 c 0,22,23
 462 403 462 403 481.5 385 c 128,-1,24
 501 367 501 367 490 319 c 2,25,-1
 423 0 l 1,26,-1
 383 0 l 1,27,-1
 450 319 l 2,28,29
 455 343 455 343 447.5 355.5 c 128,-1,30
 440 368 440 368 424 368 c 0,31,32
 406 368 406 368 382 351.5 c 128,-1,33
 358 335 358 335 332 307 c 128,-1,34
 306 279 306 279 279.5 242.5 c 128,-1,35
 253 206 253 206 230 167 c 128,-1,36
 207 128 207 128 189 88.5 c 128,-1,37
 171 49 171 49 162 15 c 2,38,-1
 158 0 l 1,39,-1
 124 0 l 2,40,41
 120 0 120 0 118 2 c 128,-1,42
 116 4 116 4 119 14 c 0,43,44
 122 22 122 22 128 43 c 128,-1,45
 134 64 134 64 140.5 92.5 c 128,-1,46
 147 121 147 121 154.5 155 c 128,-1,47
 162 189 162 189 169 222 c 0,48,49
 173 241 173 241 179 255.5 c 128,-1,50
 185 270 185 270 191 282 c 128,-1,51
 197 294 197 294 202.5 304.5 c 128,-1,52
 208 315 208 315 210 326 c 0,53,54
 219 372 219 372 187 372 c 0,55,56
 170 372 170 372 157.5 361 c 128,-1,57
 145 350 145 350 142 335 c 0,58,59
 138 320 138 320 143 309 c 128,-1,60
 148 298 148 298 163 298 c 2,61,-1
 185 298 l 1,0,-1
EndSplineSet
EndChar
StartChar: uni0E18
Encoding: 3608 3608 237
Width: 417
Flags: W
Fore
438 409 m 1,0,1
 440 395 l 0,2,3
 441 389 441 389 441.5 383 c 128,-1,4
 442 377 442 377 441 372 c 0,5,6
 440 366 440 366 429 362 c 0,7,8
 418 359 418 359 387 355 c 128,-1,9
 356 351 356 351 327 351 c 0,10,11
 312 351 312 351 294 353 c 128,-1,12
 276 355 276 355 260 357 c 128,-1,13
 244 359 244 359 231 361 c 128,-1,14
 218 363 218 363 212 363 c 0,15,16
 190 363 190 363 171.5 349 c 128,-1,17
 153 335 153 335 148 312 c 0,18,19
 145 298 145 298 145 291.5 c 128,-1,20
 145 285 145 285 150 280 c 0,21,22
 156 275 156 275 177.5 274.5 c 128,-1,23
 199 274 199 274 227 273 c 128,-1,24
 255 272 255 272 285.5 269 c 128,-1,25
 316 266 316 266 340.5 256 c 128,-1,26
 365 246 365 246 378 226.5 c 128,-1,27
 391 207 391 207 384 175 c 2,28,-1
 375 132 l 2,29,30
 367 94 367 94 358 72.5 c 128,-1,31
 349 51 349 51 332 35 c 0,32,33
 302 8 302 8 265.5 1 c 128,-1,34
 229 -6 229 -6 202 -6 c 0,35,36
 189 -6 189 -6 173 -4.5 c 128,-1,37
 157 -3 157 -3 141.5 1 c 128,-1,38
 126 5 126 5 112.5 13.5 c 128,-1,39
 99 22 99 22 90 35 c 0,40,41
 80 50 80 50 82 75 c 128,-1,42
 84 100 84 100 91 132 c 2,43,-1
 106 207 l 1,44,-1
 144 204 l 1,45,46
 139 179 139 179 135 163 c 128,-1,47
 131 147 131 147 126 127 c 0,48,49
 121 103 121 103 119.5 84.5 c 128,-1,50
 118 66 118 66 124 56 c 0,51,52
 134 42 134 42 156.5 35.5 c 128,-1,53
 179 29 179 29 210 29 c 256,54,55
 241 29 241 29 265.5 35.5 c 128,-1,56
 290 42 290 42 306 56 c 0,57,58
 317 66 317 66 321.5 80.5 c 128,-1,59
 326 95 326 95 331 115 c 2,60,-1
 344 175 l 2,61,62
 349 198 349 198 336 210 c 128,-1,63
 323 222 323 222 300 228 c 128,-1,64
 277 234 277 234 248 235.5 c 128,-1,65
 219 237 219 237 192.5 238 c 128,-1,66
 166 239 166 239 145 241 c 128,-1,67
 124 243 124 243 118 250 c 0,68,69
 107 261 107 261 106 276 c 128,-1,70
 105 291 105 291 110 311 c 0,71,72
 118 352 118 352 148.5 376 c 128,-1,73
 179 400 179 400 218 400 c 0,74,75
 225 400 225 400 239 398.5 c 128,-1,76
 253 397 253 397 270 395.5 c 128,-1,77
 287 394 287 394 304.5 392.5 c 128,-1,78
 322 391 322 391 336 391 c 0,79,80
 354 391 354 391 372 393.5 c 128,-1,81
 390 396 390 396 405 400 c 0,82,83
 423 404 423 404 438 409 c 1,0,1
EndSplineSet
EndChar
StartChar: uni0E19
Encoding: 3609 3609 238
Width: 456
Flags: W
Fore
181 282 m 1,0,-1
 154 264 l 1,1,2
 125 264 125 264 112 284.5 c 128,-1,3
 99 305 99 305 106 335 c 0,4,5
 112 365 112 365 138 386 c 128,-1,6
 164 407 164 407 194 407 c 0,7,8
 229 407 229 407 243.5 386.5 c 128,-1,9
 258 366 258 366 250 328 c 0,10,11
 248 317 248 317 242.5 306.5 c 128,-1,12
 237 296 237 296 230.5 283.5 c 128,-1,13
 224 271 224 271 217.5 255.5 c 128,-1,14
 211 240 211 240 206 219 c 2,15,-1
 179 91 l 1,16,17
 195 110 195 110 215.5 124.5 c 128,-1,18
 236 139 236 139 258 149 c 128,-1,19
 280 159 280 159 301 164 c 128,-1,20
 322 169 322 169 338 169 c 0,21,22
 367 169 367 169 392 160 c 1,23,24
 396 167 396 167 400 185 c 2,25,-1
 446 400 l 1,26,-1
 486 400 l 1,27,-1
 440 185 l 2,28,29
 435 165 435 165 416 149 c 1,30,31
 433 138 433 138 441.5 118.5 c 128,-1,32
 450 99 450 99 445 73 c 0,33,34
 437 32 437 32 411 14.5 c 128,-1,35
 385 -3 385 -3 355 -3 c 256,36,37
 325 -3 325 -3 308.5 15.5 c 128,-1,38
 292 34 292 34 300 70 c 0,39,40
 305 93 305 93 320.5 108.5 c 128,-1,41
 336 124 336 124 351 133 c 1,42,43
 344 136 344 136 329 136 c 0,44,45
 305 136 305 136 277.5 124.5 c 128,-1,46
 250 113 250 113 226 93.5 c 128,-1,47
 202 74 202 74 184 50 c 128,-1,48
 166 26 166 26 161 0 c 1,49,-1
 127 0 l 2,50,51
 123 0 123 0 121 2 c 128,-1,52
 119 4 119 4 122 14 c 0,53,54
 125 22 125 22 130.5 43 c 128,-1,55
 136 64 136 64 142 92.5 c 128,-1,56
 148 121 148 121 155 155 c 128,-1,57
 162 189 162 189 169 222 c 0,58,59
 173 241 173 241 179 255.5 c 128,-1,60
 185 270 185 270 191 282 c 128,-1,61
 197 294 197 294 202.5 304.5 c 128,-1,62
 208 315 208 315 210 326 c 0,63,64
 219 372 219 372 187 372 c 0,65,66
 170 372 170 372 157.5 361 c 128,-1,67
 145 350 145 350 142 335 c 0,68,69
 138 320 138 320 143 309 c 128,-1,70
 148 298 148 298 163 298 c 2,71,-1
 185 298 l 1,72,-1
 181 282 l 1,0,-1
409 75 m 0,73,74
 417 109 417 109 378 125 c 1,75,76
 359 114 359 114 348.5 100 c 128,-1,77
 338 86 338 86 336 75 c 0,78,79
 327 33 327 33 363 33 c 0,80,81
 400 33 400 33 409 75 c 0,73,74
EndSplineSet
EndChar
StartChar: uni0E1A
Encoding: 3610 3610 239
Width: 475
Flags: W
Fore
188 298 m 1,0,-1
 184 282 l 1,1,-1
 157 263 l 1,2,3
 128 263 128 263 113.5 284 c 128,-1,4
 99 305 99 305 106 335 c 0,5,6
 112 365 112 365 138 386 c 128,-1,7
 164 407 164 407 194 407 c 0,8,9
 229 407 229 407 243.5 386.5 c 128,-1,10
 258 366 258 366 250 328 c 0,11,12
 248 317 248 317 242.5 306.5 c 128,-1,13
 237 296 237 296 230.5 283.5 c 128,-1,14
 224 271 224 271 217.5 255.5 c 128,-1,15
 211 240 211 240 206 219 c 0,16,17
 201 194 201 194 195.5 170.5 c 128,-1,18
 190 147 190 147 185 127 c 0,19,20
 180 103 180 103 178.5 84.5 c 128,-1,21
 177 66 177 66 183 56 c 0,22,23
 193 42 193 42 219 35.5 c 128,-1,24
 245 29 245 29 276 29 c 256,25,26
 307 29 307 29 335 35.5 c 128,-1,27
 363 42 363 42 379 56 c 0,28,29
 390 66 390 66 395.5 80.5 c 128,-1,30
 401 95 401 95 406 115 c 0,31,32
 410 132 410 132 413 152 c 128,-1,33
 416 172 416 172 421 197 c 2,34,-1
 465 400 l 1,35,-1
 505 400 l 1,36,-1
 448 132 l 2,37,38
 440 94 440 94 431 72.5 c 128,-1,39
 422 51 422 51 405 35 c 0,40,41
 390 22 390 22 372 13.5 c 128,-1,42
 354 5 354 5 335 1 c 128,-1,43
 316 -3 316 -3 299 -4.5 c 128,-1,44
 282 -6 282 -6 268 -6 c 0,45,46
 255 -6 255 -6 238 -4.5 c 128,-1,47
 221 -3 221 -3 204 1 c 128,-1,48
 187 5 187 5 172.5 13.5 c 128,-1,49
 158 22 158 22 149 35 c 0,50,51
 139 50 139 50 141 75 c 128,-1,52
 143 100 143 100 150 132 c 2,53,-1
 169 222 l 2,54,55
 173 241 173 241 179 255.5 c 128,-1,56
 185 270 185 270 191 282 c 128,-1,57
 197 294 197 294 202.5 304.5 c 128,-1,58
 208 315 208 315 210 326 c 0,59,60
 219 372 219 372 187 372 c 0,61,62
 170 372 170 372 157.5 361 c 128,-1,63
 145 350 145 350 142 335 c 0,64,65
 138 320 138 320 144 309 c 128,-1,66
 150 298 150 298 165 298 c 2,67,-1
 188 298 l 1,0,-1
EndSplineSet
EndChar
StartChar: uni0E1B
Encoding: 3611 3611 240
Width: 475
Flags: W
Fore
188 297 m 1,0,-1
 184 281 l 1,1,-1
 157 262 l 1,2,3
 128 262 128 262 113.5 283 c 128,-1,4
 99 304 99 304 105 334 c 0,5,6
 112 364 112 364 138 385 c 128,-1,7
 164 406 164 406 194 406 c 0,8,9
 229 406 229 406 243.5 385.5 c 128,-1,10
 258 365 258 365 250 327 c 0,11,12
 248 316 248 316 242.5 305.5 c 128,-1,13
 237 295 237 295 230.5 282.5 c 128,-1,14
 224 270 224 270 217.5 255 c 128,-1,15
 211 240 211 240 206 219 c 0,16,17
 201 194 201 194 195.5 170.5 c 128,-1,18
 190 147 190 147 185 127 c 0,19,20
 180 103 180 103 178.5 84.5 c 128,-1,21
 177 66 177 66 183 56 c 0,22,23
 193 42 193 42 219 35.5 c 128,-1,24
 245 29 245 29 276 29 c 256,25,26
 307 29 307 29 335 35.5 c 128,-1,27
 363 42 363 42 379 56 c 0,28,29
 390 66 390 66 395.5 80.5 c 128,-1,30
 401 95 401 95 406 115 c 0,31,32
 410 132 410 132 413 152 c 128,-1,33
 416 172 416 172 421 197 c 2,34,-1
 495 544 l 1,35,-1
 535 544 l 1,36,-1
 448 132 l 2,37,38
 440 94 440 94 431 72.5 c 128,-1,39
 422 51 422 51 405 35 c 0,40,41
 390 22 390 22 372 13.5 c 128,-1,42
 354 5 354 5 335 1 c 128,-1,43
 316 -3 316 -3 299 -4.5 c 128,-1,44
 282 -6 282 -6 268 -6 c 0,45,46
 255 -6 255 -6 238 -4.5 c 128,-1,47
 221 -3 221 -3 204 1 c 128,-1,48
 187 5 187 5 172.5 13.5 c 128,-1,49
 158 22 158 22 149 35 c 0,50,51
 139 50 139 50 141 75 c 128,-1,52
 143 100 143 100 150 132 c 2,53,-1
 169 222 l 2,54,55
 173 241 173 241 179 255.5 c 128,-1,56
 185 270 185 270 191 282 c 128,-1,57
 197 294 197 294 202 304 c 128,-1,58
 207 314 207 314 210 325 c 0,59,60
 215 348 215 348 208 359.5 c 128,-1,61
 201 371 201 371 186 371 c 0,62,63
 169 371 169 371 157 360 c 128,-1,64
 145 349 145 349 141 334 c 0,65,66
 138 319 138 319 144 308 c 128,-1,67
 150 297 150 297 165 297 c 2,68,-1
 188 297 l 1,0,-1
EndSplineSet
EndChar
StartChar: uni0E1C
Encoding: 3612 3612 241
Width: 434
Flags: W
Fore
167 298 m 1,0,-1
 195 298 l 2,1,2
 210 298 210 298 220.5 309 c 128,-1,3
 231 320 231 320 235 335 c 0,4,5
 238 350 238 350 231 361 c 128,-1,6
 224 372 224 372 207 372 c 0,7,8
 192 372 192 372 178 358 c 128,-1,9
 164 344 164 344 159 321 c 0,10,11
 156 310 156 310 155 300 c 128,-1,12
 154 290 154 290 152.5 278.5 c 128,-1,13
 151 267 151 267 148.5 252 c 128,-1,14
 146 237 146 237 141 215 c 0,15,16
 138 203 138 203 133.5 184.5 c 128,-1,17
 129 166 129 166 124.5 147 c 128,-1,18
 120 128 120 128 115.5 110.5 c 128,-1,19
 111 93 111 93 109 83 c 1,20,21
 130 109 130 109 156 130.5 c 128,-1,22
 182 152 182 152 205 169 c 0,23,24
 232 188 232 188 260 205 c 1,25,26
 282 189 282 189 300 169 c 0,27,28
 316 152 316 152 332 128.5 c 128,-1,29
 348 105 348 105 356 78 c 1,30,31
 358 86 358 86 360.5 101 c 128,-1,32
 363 116 363 116 365.5 133.5 c 128,-1,33
 368 151 368 151 370.5 168 c 128,-1,34
 373 185 373 185 376 197 c 2,35,-1
 420 400 l 1,36,-1
 460 400 l 1,37,-1
 403 132 l 2,38,39
 395 98 395 98 388.5 63.5 c 128,-1,40
 382 29 382 29 380 14 c 0,41,42
 380 4 380 4 377.5 2 c 128,-1,43
 375 0 375 0 371 0 c 2,44,-1
 334 0 l 1,45,-1
 336 10 l 2,46,47
 341 35 341 35 328.5 62 c 128,-1,48
 316 89 316 89 299 112 c 0,49,50
 279 139 279 139 252 166 c 1,51,52
 212 139 212 139 179 112 c 0,53,54
 151 89 151 89 126.5 62 c 128,-1,55
 102 35 102 35 97 10 c 2,56,-1
 95 0 l 1,57,-1
 58 0 l 2,58,59
 54 0 54 0 52 2 c 128,-1,60
 50 4 50 4 53 14 c 0,61,62
 56 22 56 22 59 29 c 128,-1,63
 62 36 62 36 65.5 47.5 c 128,-1,64
 69 59 69 59 73.5 79 c 128,-1,65
 78 99 78 99 85 132 c 2,66,-1
 101 215 l 2,67,68
 105 234 105 234 107 247 c 128,-1,69
 109 260 109 260 110.5 271.5 c 128,-1,70
 112 283 112 283 114 294.5 c 128,-1,71
 116 306 116 306 119 321 c 0,72,73
 127 363 127 363 153 385 c 128,-1,74
 179 407 179 407 214 407 c 0,75,76
 244 407 244 407 260.5 386 c 128,-1,77
 277 365 277 365 271 335 c 0,78,79
 264 305 264 305 240 284 c 128,-1,80
 216 263 216 263 187 263 c 1,81,-1
 163 282 l 1,82,-1
 167 298 l 1,0,-1
EndSplineSet
EndChar
StartChar: uni0E1D
Encoding: 3613 3613 242
Width: 434
Flags: W
Fore
167 298 m 1,0,-1
 195 298 l 2,1,2
 210 298 210 298 220.5 309 c 128,-1,3
 231 320 231 320 235 335 c 0,4,5
 238 350 238 350 231 361 c 128,-1,6
 224 372 224 372 207 372 c 0,7,8
 192 372 192 372 178 358 c 128,-1,9
 164 344 164 344 159 321 c 0,10,11
 156 310 156 310 155 300 c 128,-1,12
 154 290 154 290 152.5 278.5 c 128,-1,13
 151 267 151 267 148.5 252 c 128,-1,14
 146 237 146 237 141 215 c 0,15,16
 138 203 138 203 133.5 184.5 c 128,-1,17
 129 166 129 166 124.5 147 c 128,-1,18
 120 128 120 128 115.5 110.5 c 128,-1,19
 111 93 111 93 109 83 c 1,20,21
 130 109 130 109 156 130.5 c 128,-1,22
 182 152 182 152 205 169 c 0,23,24
 232 188 232 188 260 205 c 1,25,26
 282 189 282 189 300 169 c 0,27,28
 316 152 316 152 332 128.5 c 128,-1,29
 348 105 348 105 356 78 c 1,30,31
 358 86 358 86 360.5 101 c 128,-1,32
 363 116 363 116 365.5 133.5 c 128,-1,33
 368 151 368 151 370.5 168 c 128,-1,34
 373 185 373 185 376 197 c 2,35,-1
 450 544 l 1,36,-1
 490 544 l 1,37,-1
 403 132 l 2,38,39
 395 98 395 98 388.5 63.5 c 128,-1,40
 382 29 382 29 380 14 c 0,41,42
 380 4 380 4 377.5 2 c 128,-1,43
 375 0 375 0 371 0 c 2,44,-1
 334 0 l 1,45,-1
 336 10 l 2,46,47
 341 35 341 35 328.5 62 c 128,-1,48
 316 89 316 89 299 112 c 0,49,50
 279 139 279 139 252 166 c 1,51,52
 212 139 212 139 179 112 c 0,53,54
 151 89 151 89 126.5 62 c 128,-1,55
 102 35 102 35 97 10 c 2,56,-1
 95 0 l 1,57,-1
 58 0 l 2,58,59
 54 0 54 0 52 2 c 128,-1,60
 50 4 50 4 53 14 c 0,61,62
 56 22 56 22 59 29 c 128,-1,63
 62 36 62 36 65.5 47.5 c 128,-1,64
 69 59 69 59 73.5 79 c 128,-1,65
 78 99 78 99 85 132 c 2,66,-1
 101 215 l 2,67,68
 105 234 105 234 107 247 c 128,-1,69
 109 260 109 260 110.5 271.5 c 128,-1,70
 112 283 112 283 114 294.5 c 128,-1,71
 116 306 116 306 119 321 c 0,72,73
 127 363 127 363 153 385 c 128,-1,74
 179 407 179 407 214 407 c 0,75,76
 244 407 244 407 260.5 386 c 128,-1,77
 277 365 277 365 271 335 c 0,78,79
 264 305 264 305 240 284 c 128,-1,80
 216 263 216 263 187 263 c 1,81,-1
 163 282 l 1,82,-1
 167 298 l 1,0,-1
EndSplineSet
EndChar
StartChar: uni0E1E
Encoding: 3614 3614 243
Width: 499
Flags: W
Fore
424 93 m 1,0,1
 428 110 428 110 432 141 c 128,-1,2
 436 172 436 172 441 197 c 2,3,-1
 485 400 l 1,4,-1
 525 400 l 1,5,-1
 468 132 l 2,6,7
 460 98 460 98 453.5 63.5 c 128,-1,8
 447 29 447 29 445 14 c 0,9,10
 445 4 445 4 442.5 2 c 128,-1,11
 440 0 440 0 436 0 c 2,12,-1
 399 0 l 1,13,-1
 401 10 l 2,14,15
 404 22 404 22 403 42 c 128,-1,16
 402 62 402 62 399 85.5 c 128,-1,17
 396 109 396 109 391 135.5 c 128,-1,18
 386 162 386 162 380 187 c 0,19,20
 367 247 367 247 349 316 c 1,21,22
 300 247 300 247 260 187 c 0,23,24
 243 162 243 162 226.5 135.5 c 128,-1,25
 210 109 210 109 196.5 85.5 c 128,-1,26
 183 62 183 62 174 42 c 128,-1,27
 165 22 165 22 162 10 c 2,28,-1
 160 0 l 1,29,-1
 123 0 l 2,30,31
 119 0 119 0 117 2 c 128,-1,32
 115 4 115 4 118 14 c 0,33,34
 121 22 121 22 124 29 c 128,-1,35
 127 36 127 36 130.5 47.5 c 128,-1,36
 134 59 134 59 138.5 79 c 128,-1,37
 143 99 143 99 150 132 c 2,38,-1
 167 212 l 2,39,40
 175 250 175 250 190 277 c 128,-1,41
 205 304 205 304 210 326 c 0,42,43
 219 372 219 372 187 372 c 0,44,45
 170 372 170 372 157.5 361 c 128,-1,46
 145 350 145 350 142 335 c 0,47,48
 138 320 138 320 144 309 c 128,-1,49
 150 298 150 298 165 298 c 2,50,-1
 188 298 l 1,51,-1
 184 282 l 1,52,-1
 157 263 l 1,53,54
 128 263 128 263 113.5 284 c 128,-1,55
 99 305 99 305 106 335 c 0,56,57
 112 365 112 365 138 386 c 128,-1,58
 164 407 164 407 194 407 c 0,59,60
 229 407 229 407 243.5 386.5 c 128,-1,61
 258 366 258 366 250 328 c 0,62,63
 248 317 248 317 242 305 c 128,-1,64
 236 293 236 293 229 278.5 c 128,-1,65
 222 264 222 264 215.5 247 c 128,-1,66
 209 230 209 230 204 209 c 0,67,68
 201 197 201 197 197.5 181.5 c 128,-1,69
 194 166 194 166 190 151 c 128,-1,70
 186 136 186 136 182.5 122 c 128,-1,71
 179 108 179 108 177 98 c 1,72,73
 203 150 203 150 235 199.5 c 128,-1,74
 267 249 267 249 295 288 c 0,75,76
 328 334 328 334 361 375 c 1,77,78
 377 334 377 334 390 287 c 0,79,80
 401 247 401 247 411.5 197 c 128,-1,81
 422 147 422 147 424 93 c 1,0,1
EndSplineSet
EndChar
StartChar: uni0E1F
Encoding: 3615 3615 244
Width: 499
Flags: W
Fore
424 93 m 1,0,1
 428 110 428 110 432 141 c 128,-1,2
 436 172 436 172 441 197 c 2,3,-1
 515 544 l 1,4,-1
 555 544 l 1,5,-1
 468 132 l 2,6,7
 460 98 460 98 453.5 63.5 c 128,-1,8
 447 29 447 29 445 14 c 0,9,10
 445 4 445 4 442.5 2 c 128,-1,11
 440 0 440 0 436 0 c 2,12,-1
 399 0 l 1,13,-1
 401 10 l 2,14,15
 404 22 404 22 403 42 c 128,-1,16
 402 62 402 62 399 85.5 c 128,-1,17
 396 109 396 109 391 135.5 c 128,-1,18
 386 162 386 162 380 187 c 0,19,20
 367 247 367 247 349 316 c 1,21,22
 300 247 300 247 260 187 c 0,23,24
 243 162 243 162 226.5 135.5 c 128,-1,25
 210 109 210 109 196.5 85.5 c 128,-1,26
 183 62 183 62 174 42 c 128,-1,27
 165 22 165 22 162 10 c 2,28,-1
 160 0 l 1,29,-1
 123 0 l 2,30,31
 119 0 119 0 117 2 c 128,-1,32
 115 4 115 4 118 14 c 0,33,34
 121 22 121 22 124 29 c 128,-1,35
 127 36 127 36 130.5 47.5 c 128,-1,36
 134 59 134 59 138.5 79 c 128,-1,37
 143 99 143 99 150 132 c 2,38,-1
 167 212 l 2,39,40
 175 250 175 250 190 277 c 128,-1,41
 205 304 205 304 210 326 c 0,42,43
 219 372 219 372 187 372 c 0,44,45
 170 372 170 372 157.5 361 c 128,-1,46
 145 350 145 350 142 335 c 0,47,48
 138 320 138 320 144 309 c 128,-1,49
 150 298 150 298 165 298 c 2,50,-1
 188 298 l 1,51,-1
 184 282 l 1,52,-1
 157 263 l 1,53,54
 128 263 128 263 113.5 284 c 128,-1,55
 99 305 99 305 106 335 c 0,56,57
 112 365 112 365 138 386 c 128,-1,58
 164 407 164 407 194 407 c 0,59,60
 229 407 229 407 243.5 386.5 c 128,-1,61
 258 366 258 366 250 328 c 0,62,63
 248 317 248 317 242 305 c 128,-1,64
 236 293 236 293 229 278.5 c 128,-1,65
 222 264 222 264 215.5 247 c 128,-1,66
 209 230 209 230 204 209 c 0,67,68
 201 197 201 197 197.5 181.5 c 128,-1,69
 194 166 194 166 190 151 c 128,-1,70
 186 136 186 136 182.5 122 c 128,-1,71
 179 108 179 108 177 98 c 1,72,73
 203 150 203 150 235 199.5 c 128,-1,74
 267 249 267 249 295 288 c 0,75,76
 328 334 328 334 361 375 c 1,77,78
 377 334 377 334 390 287 c 0,79,80
 401 247 401 247 411.5 197 c 128,-1,81
 422 147 422 147 424 93 c 1,0,1
EndSplineSet
EndChar
StartChar: uni0E20
Encoding: 3616 3616 245
Width: 452
Flags: W
Fore
109 100 m 2,0,1
 94 100 94 100 85 89.5 c 128,-1,2
 76 79 76 79 73 64 c 256,3,4
 70 49 70 49 77 39 c 128,-1,5
 84 29 84 29 101 29 c 0,6,7
 116 29 116 29 128 39 c 128,-1,8
 140 49 140 49 145 72 c 0,9,10
 149 90 149 90 149 107 c 128,-1,11
 149 124 149 124 148.5 140.5 c 128,-1,12
 148 157 148 157 148 173 c 128,-1,13
 148 189 148 189 151 204 c 0,14,15
 156 228 156 228 165.5 241.5 c 128,-1,16
 175 255 175 255 188 267 c 1,17,18
 185 269 185 269 177.5 275.5 c 128,-1,19
 170 282 170 282 162 289.5 c 128,-1,20
 154 297 154 297 148.5 305 c 128,-1,21
 143 313 143 313 144 319 c 0,22,23
 146 328 146 328 162 343 c 128,-1,24
 178 358 178 358 203 372 c 128,-1,25
 228 386 228 386 260.5 396 c 128,-1,26
 293 406 293 406 329 406 c 0,27,28
 363 406 363 406 390 399 c 128,-1,29
 417 392 417 392 433.5 374 c 128,-1,30
 450 356 450 356 454.5 325.5 c 128,-1,31
 459 295 459 295 449 249 c 2,32,-1
 397 0 l 1,33,-1
 357 0 l 1,34,-1
 409 249 l 2,35,36
 417 288 417 288 415 311.5 c 128,-1,37
 413 335 413 335 401 348.5 c 128,-1,38
 389 362 389 362 369 366.5 c 128,-1,39
 349 371 349 371 321 371 c 0,40,41
 296 371 296 371 272 365 c 128,-1,42
 248 359 248 359 228.5 350.5 c 128,-1,43
 209 342 209 342 197 334 c 128,-1,44
 185 326 185 326 184 321 c 0,45,46
 183 318 183 318 186.5 312 c 128,-1,47
 190 306 190 306 194.5 300 c 128,-1,48
 199 294 199 294 204 289.5 c 128,-1,49
 209 285 209 285 212 285 c 0,50,51
 220 285 220 285 230.5 291.5 c 128,-1,52
 241 298 241 298 250 298 c 0,53,54
 253 298 253 298 256 293 c 128,-1,55
 259 288 259 288 260.5 282 c 128,-1,56
 262 276 262 276 261.5 271 c 128,-1,57
 261 266 261 266 257 266 c 0,58,59
 242 266 242 266 231.5 263 c 128,-1,60
 221 260 221 260 213 253 c 128,-1,61
 205 246 205 246 200 234 c 128,-1,62
 195 222 195 222 191 203 c 0,63,64
 187 186 187 186 186.5 167.5 c 128,-1,65
 186 149 186 149 186 131.5 c 128,-1,66
 186 114 186 114 186 98.5 c 128,-1,67
 186 83 186 83 184 72 c 0,68,69
 176 34 176 34 152 14 c 128,-1,70
 128 -6 128 -6 93 -6 c 0,71,72
 63 -6 63 -6 47.5 14 c 128,-1,73
 32 34 32 34 38 64 c 0,74,75
 45 94 45 94 66.5 113.5 c 128,-1,76
 88 133 88 133 116 133 c 1,77,-1
 135 116 l 1,78,-1
 132 100 l 1,79,-1
 109 100 l 2,0,1
EndSplineSet
EndChar
StartChar: uni0E21
Encoding: 3617 3617 246
Width: 456
Flags: W
Fore
196 282 m 1,0,-1
 169 264 l 1,1,2
 140 264 140 264 127 284.5 c 128,-1,3
 114 305 114 305 121 335 c 0,4,5
 127 365 127 365 153 386 c 128,-1,6
 179 407 179 407 209 407 c 0,7,8
 244 407 244 407 258.5 386.5 c 128,-1,9
 273 366 273 366 265 328 c 0,10,11
 263 317 263 317 257 305.5 c 128,-1,12
 251 294 251 294 244 280.5 c 128,-1,13
 237 267 237 267 230.5 250.5 c 128,-1,14
 224 234 224 234 220 213 c 2,15,-1
 213 179 l 1,16,17
 270 179 270 179 313 148.5 c 128,-1,18
 356 118 356 118 373 71 c 1,19,20
 374 83 374 83 377.5 102 c 128,-1,21
 381 121 381 121 385 141 c 128,-1,22
 389 161 389 161 393 180 c 128,-1,23
 397 199 397 199 399 211 c 2,24,-1
 440 400 l 1,25,-1
 480 400 l 1,26,-1
 442 222 l 2,27,28
 435 189 435 189 428 155 c 128,-1,29
 421 121 421 121 415.5 92.5 c 128,-1,30
 410 64 410 64 406 43 c 128,-1,31
 402 22 402 22 402 14 c 0,32,33
 402 4 402 4 399.5 2 c 128,-1,34
 397 0 397 0 393 0 c 2,35,-1
 354 0 l 1,36,37
 353 33 353 33 341 59.5 c 128,-1,38
 329 86 329 86 309.5 105 c 128,-1,39
 290 124 290 124 263.5 135.5 c 128,-1,40
 237 147 237 147 207 149 c 1,41,-1
 197 95 l 2,42,43
 193 75 193 75 189 57 c 128,-1,44
 185 39 185 39 177 25 c 128,-1,45
 169 11 169 11 156 2.5 c 128,-1,46
 143 -6 143 -6 120 -6 c 0,47,48
 90 -6 90 -6 77.5 14 c 128,-1,49
 65 34 65 34 73 75 c 0,50,51
 83 120 83 120 113 145 c 128,-1,52
 143 170 143 170 175 176 c 1,53,54
 177 189 177 189 178.5 198 c 128,-1,55
 180 207 180 207 182 216 c 0,56,57
 186 235 186 235 192.5 250.5 c 128,-1,58
 199 266 199 266 205.5 279 c 128,-1,59
 212 292 212 292 217.5 303.5 c 128,-1,60
 223 315 223 315 225 326 c 0,61,62
 234 372 234 372 202 372 c 0,63,64
 185 372 185 372 172.5 361 c 128,-1,65
 160 350 160 350 157 335 c 0,66,67
 153 320 153 320 158 309 c 128,-1,68
 163 298 163 298 178 298 c 2,69,-1
 200 298 l 1,70,-1
 196 282 l 1,0,-1
161 92 m 0,71,72
 163 99 163 99 165 114.5 c 128,-1,73
 167 130 167 130 170 147 c 1,74,75
 151 142 151 142 133.5 124.5 c 128,-1,76
 116 107 116 107 110 77 c 0,77,78
 105 55 105 55 111 42.5 c 128,-1,79
 117 30 117 30 128 30 c 0,80,81
 137 30 137 30 142.5 35 c 128,-1,82
 148 40 148 40 151 48.5 c 128,-1,83
 154 57 154 57 156 68.5 c 128,-1,84
 158 80 158 80 161 92 c 0,71,72
EndSplineSet
EndChar
StartChar: uni0E22
Encoding: 3618 3618 247
Width: 419
Flags: W
Fore
91 136 m 2,0,1
 99 171 99 171 115.5 187.5 c 128,-1,2
 132 204 132 204 144 211 c 1,3,4
 138 215 138 215 131 224 c 128,-1,5
 124 233 124 233 119.5 246 c 128,-1,6
 115 259 115 259 113.5 277 c 128,-1,7
 112 295 112 295 117 317 c 0,8,9
 125 353 125 353 152 380 c 128,-1,10
 179 407 179 407 220 407 c 0,11,12
 250 407 250 407 263.5 388 c 128,-1,13
 277 369 277 369 271 339 c 0,14,15
 264 310 264 310 242 292 c 128,-1,16
 220 274 220 274 190 274 c 1,17,-1
 164 291 l 1,18,-1
 168 309 l 1,19,-1
 197 309 l 2,20,21
 213 309 213 309 222.5 318.5 c 128,-1,22
 232 328 232 328 235 339 c 0,23,24
 237 353 237 353 231.5 362 c 128,-1,25
 226 371 226 371 212 371 c 0,26,27
 197 371 197 371 187 366 c 128,-1,28
 177 361 177 361 171 352.5 c 128,-1,29
 165 344 165 344 161.5 332.5 c 128,-1,30
 158 321 158 321 155 308 c 0,31,32
 145 258 145 258 176.5 238 c 128,-1,33
 208 218 208 218 263 218 c 0,34,35
 267 218 267 218 263.5 212.5 c 128,-1,36
 260 207 260 207 254 200 c 128,-1,37
 248 193 248 193 241.5 187.5 c 128,-1,38
 235 182 235 182 233 182 c 0,39,40
 229 182 229 182 220.5 184.5 c 128,-1,41
 212 187 212 187 202.5 189.5 c 128,-1,42
 193 192 193 192 184 194.5 c 128,-1,43
 175 197 175 197 168 197 c 0,44,45
 159 197 159 197 147.5 183 c 128,-1,46
 136 169 136 169 131 145 c 2,47,-1
 125 116 l 2,48,49
 120 92 120 92 120 79.5 c 128,-1,50
 120 67 120 67 126 56 c 0,51,52
 136 42 136 42 162 35.5 c 128,-1,53
 188 29 188 29 219 29 c 256,54,55
 250 29 250 29 278 35.5 c 128,-1,56
 306 42 306 42 322 56 c 0,57,58
 342 75 342 75 347.5 109 c 128,-1,59
 353 143 353 143 364 197 c 2,60,-1
 408 400 l 1,61,-1
 448 400 l 1,62,-1
 404 197 l 2,63,64
 398 166 398 166 393 141.5 c 128,-1,65
 388 117 388 117 382.5 97.5 c 128,-1,66
 377 78 377 78 369 62.5 c 128,-1,67
 361 47 361 47 348 35 c 0,68,69
 333 22 333 22 315 13.5 c 128,-1,70
 297 5 297 5 278 1 c 128,-1,71
 259 -3 259 -3 242 -4.5 c 128,-1,72
 225 -6 225 -6 211 -6 c 0,73,74
 198 -6 198 -6 181 -4.5 c 128,-1,75
 164 -3 164 -3 147 1 c 128,-1,76
 130 5 130 5 115.5 13.5 c 128,-1,77
 101 22 101 22 92 35 c 0,78,79
 81 51 81 51 81 68.5 c 128,-1,80
 81 86 81 86 87 117 c 2,81,-1
 91 136 l 2,0,1
EndSplineSet
EndChar
StartChar: uni0E23
Encoding: 3619 3619 248
Width: 360
Flags: W
Fore
237 104 m 2,0,1
 221 104 221 104 210 93 c 128,-1,2
 199 82 199 82 196 66 c 0,3,4
 192 51 192 51 199.5 40 c 128,-1,5
 207 29 207 29 224 29 c 0,6,7
 245 29 245 29 256 43 c 128,-1,8
 267 57 267 57 272 80 c 2,9,-1
 289 161 l 2,10,11
 294 184 294 184 284 196.5 c 128,-1,12
 274 209 274 209 255.5 215 c 128,-1,13
 237 221 237 221 213.5 223 c 128,-1,14
 190 225 190 225 168 226.5 c 128,-1,15
 146 228 146 228 128.5 230.5 c 128,-1,16
 111 233 111 233 104 240 c 0,17,18
 93 251 93 251 91.5 268.5 c 128,-1,19
 90 286 90 286 95 306 c 0,20,21
 103 347 103 347 133.5 373.5 c 128,-1,22
 164 400 164 400 203 400 c 0,23,24
 217 400 217 400 246.5 395.5 c 128,-1,25
 276 391 276 391 304 391 c 0,26,27
 322 391 322 391 338.5 393.5 c 128,-1,28
 355 396 355 396 368 400 c 0,29,30
 383 404 383 404 396 409 c 1,31,32
 398 395 l 0,33,34
 399 389 399 389 399.5 383 c 128,-1,35
 400 377 400 377 399 372 c 0,36,37
 398 366 398 366 387 362 c 0,38,39
 376 359 376 359 350 355 c 128,-1,40
 324 351 324 351 295 351 c 0,41,42
 264 351 264 351 235.5 357 c 128,-1,43
 207 363 207 363 195 363 c 0,44,45
 173 363 173 363 155.5 346.5 c 128,-1,46
 138 330 138 330 133 307 c 0,47,48
 131 296 131 296 130.5 285.5 c 128,-1,49
 130 275 130 275 136 270 c 0,50,51
 141 265 141 265 159 263.5 c 128,-1,52
 177 262 177 262 201 261 c 128,-1,53
 225 260 225 260 250.5 256 c 128,-1,54
 276 252 276 252 295.5 242 c 128,-1,55
 315 232 315 232 325.5 213 c 128,-1,56
 336 194 336 194 329 161 c 2,57,-1
 312 80 l 2,58,59
 303 40 303 40 280.5 17 c 128,-1,60
 258 -6 258 -6 216 -6 c 0,61,62
 186 -6 186 -6 169.5 15.5 c 128,-1,63
 153 37 153 37 160 66 c 0,64,65
 166 96 166 96 190 117.5 c 128,-1,66
 214 139 214 139 244 139 c 1,67,-1
 267 120 l 1,68,-1
 264 104 l 1,69,-1
 237 104 l 2,0,1
EndSplineSet
EndChar
StartChar: uni0E24
Encoding: 3620 3620 249
Width: 420
Flags: W
Fore
135 102 m 1,0,-1
 139 118 l 1,1,-1
 171 137 l 1,2,3
 200 137 200 137 215 116.5 c 128,-1,4
 230 96 230 96 224 66 c 0,5,6
 217 36 217 36 192 15 c 128,-1,7
 167 -6 167 -6 137 -6 c 0,8,9
 103 -6 103 -6 88.5 17.5 c 128,-1,10
 74 41 74 41 85 90 c 2,11,-1
 103 178 l 2,12,13
 111 216 111 216 122.5 233.5 c 128,-1,14
 134 251 134 251 154 268 c 1,15,16
 151 270 151 270 144.5 276 c 128,-1,17
 138 282 138 282 131.5 289.5 c 128,-1,18
 125 297 125 297 120.5 305 c 128,-1,19
 116 313 116 313 117 319 c 0,20,21
 119 328 119 328 134 343 c 128,-1,22
 149 358 149 358 173 372 c 128,-1,23
 197 386 197 386 229 396 c 128,-1,24
 261 406 261 406 297 406 c 0,25,26
 331 406 331 406 358 399 c 128,-1,27
 385 392 385 392 401.5 374 c 128,-1,28
 418 356 418 356 422.5 325.5 c 128,-1,29
 427 295 427 295 417 249 c 2,30,-1
 333 -150 l 1,31,-1
 293 -150 l 1,32,-1
 377 249 l 2,33,34
 385 288 385 288 383 311.5 c 128,-1,35
 381 335 381 335 369 348.5 c 128,-1,36
 357 362 357 362 337 366.5 c 128,-1,37
 317 371 317 371 289 371 c 0,38,39
 264 371 264 371 240.5 365 c 128,-1,40
 217 359 217 359 199 350.5 c 128,-1,41
 181 342 181 342 169.5 334 c 128,-1,42
 158 326 158 326 157 321 c 0,43,44
 156 318 156 318 158.5 312 c 128,-1,45
 161 306 161 306 165 300 c 128,-1,46
 169 294 169 294 173 289.5 c 128,-1,47
 177 285 177 285 180 285 c 0,48,49
 188 285 188 285 198.5 291.5 c 128,-1,50
 209 298 209 298 218 298 c 0,51,52
 221 298 221 298 224 293 c 128,-1,53
 227 288 227 288 228.5 282 c 128,-1,54
 230 276 230 276 229.5 271 c 128,-1,55
 229 266 229 266 225 266 c 0,56,57
 210 266 210 266 198 263 c 128,-1,58
 186 260 186 260 175.5 250.5 c 128,-1,59
 165 241 165 241 157 223.5 c 128,-1,60
 149 206 149 206 143 178 c 2,61,-1
 122 77 l 2,62,63
 117 54 117 54 123.5 41.5 c 128,-1,64
 130 29 130 29 145 29 c 0,65,66
 162 29 162 29 173 40 c 128,-1,67
 184 51 184 51 188 66 c 0,68,69
 191 81 191 81 184.5 91.5 c 128,-1,70
 178 102 178 102 163 102 c 2,71,-1
 135 102 l 1,0,-1
EndSplineSet
EndChar
